<svg id="Layer_1" data-name="Layer 1" preserveAspectRatio="none" xmlns="http://www.w3.org/2000/svg" viewBox="0 0 1704 673"><defs><style>.cls-1{fill:#1f1f1f;}</style></defs><title>hero-mask-short</title><path class="cls-1" d="M1701,662H-3V-11H1701V662ZM317.57,225.2h-148V522.59h148V225.2h0Zm107.78-17.32-78-.83L338,534.36l78,0.83ZM529,226.09l-84,.9,8.17,286.33,84-.9Zm98.69-20h-70V484.54h70V206.12h0Zm99.59,42.51-71-.76L648.4,526.25l71,0.76ZM952,244l-186-2-7.94,278.38,186,2Zm96-32.6H975V503.27h73V211.38Zm98.57,16.08-74,.79,9.15,320.59,74-.79Zm115.26,14.85h-75v265h75v-265h0Zm146.15-25h-119V533.66h119V217.3Zm100.46,7.24h-70V503h70V224.54Z" transform="translate(3 11)"/></svg>