<svg id="Layer_1" data-name="Layer 1" xmlns="http://www.w3.org/2000/svg" viewBox="0 0 1368 371.93" preserveAspectRatio="none"><defs><style>.cls-1{fill:#1f1f1f;}</style></defs><title>hero-mask-short-hd</title><path class="cls-1" d="M1364,369.93H-4V-2H1364V369.93ZM219.12,64.92H89.82V305.33H219.12V64.92Zm94.16-14-68.13-.67L237,314.85l68.13,0.67Zm90.59,14.72-73.37.73,7.14,231.48,73.37-.73Zm86.22-16.14H428.93V274.57h61.15V49.49Zm861.56,0.84-72.84-1.27-4.82,276,72.84,1.27ZM577.09,83.86l-62-.61-6.94,225,62,0.61ZM773.36,80.1L610.89,78.49l-6.94,225,162.47,1.61Zm83.82-26.35H793.41v236h63.77v-236ZM68.66,53.21L4.89,54.32,9,290.25l63.76-1.11ZM943.29,66.74l-64.64.64,8,259.18,64.64-.64Zm100.69,12H978.46v214.2H1044V78.75Zm127.68-20.21h-104V314.28h104V58.53Zm87.77,5.85h-61.15V289.47h61.15V64.38Z" transform="translate(4 2)"/></svg>