<?xml version="1.0" encoding="utf-8"?>
<!-- Generator: Adobe Illustrator 19.2.1, SVG Export Plug-In . SVG Version: 6.00 Build 0)  -->
<svg version="1.1" id="Layer_1" xmlns="http://www.w3.org/2000/svg" xmlns:xlink="http://www.w3.org/1999/xlink" x="0px" y="0px"
	 viewBox="0 0 1690 1044" style="enable-background:new 0 0 1690 1044;" xml:space="preserve" preserveAspectRatio="none">
<style type="text/css">
	.st0{fill:#1F1F1F;}
</style>
<title>hero-mask</title>
<path class="st0" d="M1696,1050H-8V-7h1704V1050z M312.6,364h-148V831h148V364L312.6,364z M420.4,336.8l-78-1.3L333,849.5l78,1.3
	L420.4,336.8z M524,365.4l-84,1.4l8.2,449.7l84-1.4L524,365.4z M622.7,334h-70v437.3h70V334L622.7,334z M722.3,400.8l-71-1.2
	l-7.9,437.2l71,1.2L722.3,400.8z M947,393.5l-186-3.1l-7.9,437.2l186,3.1L947,393.5z M1042.9,342.3h-73v458.4h73V342.3z
	 M1141.5,367.5l-74,1.2l9.2,503.5l74-1.2L1141.5,367.5z M1256.8,390.8h-75V807h75V390.8L1256.8,390.8z M1402.9,351.6h-119v496.9h119
	C1402.9,848.4,1402.9,351.6,1402.9,351.6z M1503.4,362.9h-70v437.3h70V362.9z"/>
</svg>
