<svg lass="hew-conf-logo" data-name="Layer 1" xmlns="http://www.w3.org/2000/svg" viewBox="0 0 600.99 131.33"><defs><style>.cls-1{fill:#231f20;}</style></defs><title>hew-conf-wide</title><path id="globe" class="cls-1" d="M111.22,9.64c-3.65-4.45-8.31-8.35-8-8.37C113.67,0.74,135.3,6,139.76,11.54a135.43,135.43,0,0,0-27.51-1.37l-0.62,0ZM96.31,2.1c-0.28-.18,0,0-0.31-0.18a1,1,0,0,0-.55-0.12,71.19,71.19,0,0,0-23.76,6,1.34,1.34,0,0,0-.54.32c-0.06.09-.06,0.06,0,0.31,0.31,1.07,3.15,10.07,3.27,10.34a0.52,0.52,0,0,0,.18.31A0.61,0.61,0,0,0,75.16,19,93.69,93.69,0,0,1,105,11a0.66,0.66,0,0,0,.5-0.09,0.66,0.66,0,0,0-.28-0.43A117.68,117.68,0,0,0,96.31,2.1Zm-30.08,8c-0.28.16-14.49,7.47-23.12,17.75a0.39,0.39,0,0,0-.15.28c0,0.07,0-.11,0,0.26s2.1,9.84,2.19,10.24a3.1,3.1,0,0,0,.22.71c0,0.09.17,0,.35-0.22A107.08,107.08,0,0,1,69.82,21.3,0.62,0.62,0,0,0,70.15,21a0.7,0.7,0,0,0-.07-0.25c-0.22-.67-3.07-9.68-3.4-10.5-0.13-.32-0.06-0.16-0.12-0.21S66.41,10,66.23,10.14ZM38.66,33.57C27.39,49.11,25.84,63,25.8,63.45a1.4,1.4,0,0,0,.05,1,0.46,0.46,0,0,0,.52-0.25A115.65,115.65,0,0,1,41,43.65a0.7,0.7,0,0,0,.19-0.27,0.56,0.56,0,0,0,0-.43c-0.12-.5-1.88-8.33-2.12-9.26-0.05-.2-0.06-0.34-0.15-0.34A0.54,0.54,0,0,0,38.66,33.57Zm77.1-18.69a1,1,0,0,0-.65.13,0.86,0.86,0,0,0,.28.63C119.78,23,123.82,33.51,124,34a1.09,1.09,0,0,0,.21.31c0.06,0.07,0,.05.52,0,1.18-.06,16.29-1.13,31.26,3.54,1.07,0.33,1.16.49,1.3,0.35a1.64,1.64,0,0,0-.24-1.18c-5.89-13.84-11.1-18.83-11.74-19.54A2.25,2.25,0,0,0,145,17.2C142.94,15.84,122.56,14.37,115.76,14.88Zm47,23.74c0.42,1.1.42,1.19,0.63,1.78a4,4,0,0,0,1.13.69,128.55,128.55,0,0,1,10.72,7.19c0.91,0.73,1.44,1.18,1.41.94a13.92,13.92,0,0,0-.86-2.86c-2.69-5.19-8.28-19.2-23.29-28.13C149.29,16.32,156.09,21,162.77,38.62ZM108.62,15.48c-9.72,1.29-20.26,2.91-31.15,7.94a1.39,1.39,0,0,0-.81.47,2.72,2.72,0,0,0,.27.74c0.13,0.38,7.31,18.46,7.53,19a1.55,1.55,0,0,0,.39.77c0.09,0.06.07,0.07,0.54-.13s12.85-6.11,32.21-9.14a5.47,5.47,0,0,0,1.41-.31c0.15-.07,0-0.34-0.12-0.79-4.31-11.48-8.72-17.5-9.11-18a2.12,2.12,0,0,0-.55-0.58A1.59,1.59,0,0,0,108.62,15.48ZM71.72,26.16a2.38,2.38,0,0,0-1,.45C57.67,33.79,47.91,44.18,47.5,44.51a1.27,1.27,0,0,0-.57.68,3.44,3.44,0,0,0,.18.59C47.54,47.13,51.1,57.44,54,64a1.56,1.56,0,0,0,.39.64A1.2,1.2,0,0,0,55,64.16c0.74-.68,12.42-11.11,24.24-17.08,0.69-.35.62-0.35,0.71-0.56a0.86,0.86,0,0,0-.17-0.9c-0.3-.63-7.56-18.48-7.72-18.87A1.31,1.31,0,0,0,71.72,26.16Zm0,0,0-.23H71.68a0.94,0.94,0,0,0-.42.14l-0.63.35A99.38,99.38,0,0,0,54.22,38c-2.07,1.77-3.74,3.33-4.92,4.46-0.59.57-1.06,1-1.39,1.36l-0.39.39-0.17.16a3.4,3.4,0,0,0-.47.44,0.67,0.67,0,0,0-.19.41v0h0a3.53,3.53,0,0,0,.19.64c0.45,1.37,4,11.67,7,18.21C53.9,64.21,54,64.37,54,64.5l0.12,0.18a0.4,0.4,0,0,0,.21.15h0.08a0.59,0.59,0,0,0,.37-0.18l0.35-.33c0.72-.67,12.41-11.09,24.19-17A3.23,3.23,0,0,0,80,46.92l0.13-.18,0.05-.13a0.88,0.88,0,0,0,.09-0.35A1.92,1.92,0,0,0,80,45.52c-0.07-.14-0.58-1.39-1.3-3.15-2.18-5.3-6.29-15.41-6.41-15.71a1.42,1.42,0,0,0-.45-0.7l0,0h0l0,0.23-0.12.2,0.08-.14-0.1.13h0l0.08-.14-0.1.13h0a1.48,1.48,0,0,1,.27.49l3.81,9.34,2.6,6.37c0.73,1.77,1.23,3,1.31,3.17a1.87,1.87,0,0,1,.22.54,0.45,0.45,0,0,1-.05.17l0,0.12-0.07.06a5.17,5.17,0,0,1-.48.26C67.3,52.86,55.61,63.3,54.86,64l-0.34.32-0.09.07h0l0,0.09V64.37h0l0,0.09v0l0-.13h0V64.5l0-.13,0,0.13,0.08-.1-0.05,0,0,0.13,0.08-.1h0a3,3,0,0,1-.27-0.52c-2.93-6.5-6.5-16.82-6.94-18.16a3.42,3.42,0,0,1-.17-0.54h0l-0.13,0h0.13v0l-0.13,0h0.07l0.06,0v0H47.09l0.06,0a1.76,1.76,0,0,1,.49-0.5l0.2-.19a107.66,107.66,0,0,1,23-17.68l0.62-.34,0.15-.07h0v0h0v0l0-.23-0.12.2ZM43,49.58c-0.14,0-.16-0.05-0.72.58-5.8,6.57-14.2,19.37-14.5,20.06a1.24,1.24,0,0,0-.17.46,4,4,0,0,0,.09.72,74.57,74.57,0,0,0,7.1,19.1,1.9,1.9,0,0,0,.46.8,2.56,2.56,0,0,0,.43-0.78c0.37-.68,7.56-14.23,14.55-21.22a0.84,0.84,0,0,0,.43-0.64,3.27,3.27,0,0,0-.35-1c-3.85-8.29-6.75-16.87-6.92-17.33A2.28,2.28,0,0,0,43,49.58ZM22.59,92.81c0.27,1.46.68,1.27,0.68,1.27s8.22,0.31,8-.18a66.47,66.47,0,0,1-6.36-15.36c-0.22-.88-1-3.56-1.19-4.27a6.31,6.31,0,0,0-.42,1.49S21.83,88.62,22.59,92.81Zm30.49-19.4c-0.06,0-.06,0-0.55.44-5.2,5.2-12,18.08-12.45,18.87s-0.88,1.21-.56,1.21l25.89,0s0.24-.86-0.14-1c-1-.25-11.59-18.45-11.82-18.92S53.08,73.41,53.08,73.41ZM57,70s7.26,13.4,14.24,22.6c0.26,0.35.5,0.64,0.5,0.64l1.24,0s0.54-.57.85-0.88,5.24-5.13,20.32-13.55a0.78,0.78,0,0,0,.44-0.35,7.38,7.38,0,0,0-.38-0.9C94,77.13,82.63,51.89,82.47,51.61a0.85,0.85,0,0,0-.38-0.32,0.67,0.67,0,0,0-.56.1C68.63,57.83,57.88,68.33,57.2,68.9a1.56,1.56,0,0,0-.47.51A1.39,1.39,0,0,0,57,70Zm63.53-30.3a2.38,2.38,0,0,0-1,.08,129,129,0,0,0-31.81,8.87,2.55,2.55,0,0,0-.82.4,1.81,1.81,0,0,0,.34,1c0.65,1.3,11.49,25.23,11.66,25.54a7.2,7.2,0,0,0,.49.84,0.88,0.88,0,0,0,.66-0.16,110.6,110.6,0,0,1,26.63-8.09c0.71-.12.7-0.11,0.8-0.34a1.83,1.83,0,0,0-.13-1c-2.15-10-5.17-21.77-6.39-26.24A1.33,1.33,0,0,0,120.51,39.72Zm5.54,0.47c1.81,5.26,6.09,25.33,6.2,26a3.8,3.8,0,0,0,.24.9,3.77,3.77,0,0,0,1.22-.08,74.53,74.53,0,0,1,26.12,1.69,4,4,0,0,0,1.45.2,2.75,2.75,0,0,0,.24-1.33c0-1.26.55-8.88-2.12-22.5a1.14,1.14,0,0,0-.31-0.75,1.91,1.91,0,0,0-1-.63c-12.65-5.22-30.32-4.6-31-4.6a1.3,1.3,0,0,0-1.22.31A1.83,1.83,0,0,0,126.05,40.19Zm39.12,8.44a108.34,108.34,0,0,1,1.14,21.21,1.39,1.39,0,0,0,.12,1,2.12,2.12,0,0,0,1,.51,38.52,38.52,0,0,1,14.41,10.17c0.64,0.7.74,1.29,1.06,1.1A2.93,2.93,0,0,0,183,81.2a117.28,117.28,0,0,0-2.31-21.56,2.52,2.52,0,0,0-.51-1.1c-0.35-.59-0.55-0.63-0.67-0.86a88,88,0,0,0-13.48-10.14c-0.48-.28-0.94-0.71-1.14-0.51C164.93,47,165,47.74,165.17,48.64ZM166,77.39a127.42,127.42,0,0,1-2.55,15c-0.16.55-.43,1.41-0.43,1.41l18.65-.28s0.31-1.34.55-2.36,0.08-.28.08-0.63a1.38,1.38,0,0,0-.39-0.82A38.66,38.66,0,0,0,167.41,76.6a1.93,1.93,0,0,0-1.34-.39S166,77,166,77.39Zm-4.87-2.87c-0.08-.24-0.21-0.22-1-0.55S149.5,70.2,135,71.73a12.81,12.81,0,0,0-1.49.28c-0.14,0-.08.13,0.08,1,1.37,7.7,2.17,19.25,2.24,19.64,0.12,0.71.16,1.14,0.16,1.14L157.7,94a2.52,2.52,0,0,0,.39-1c0.31-1,2.08-6.24,3-17.24A6.87,6.87,0,0,0,161.08,74.52Zm-32.6-1.65a2.9,2.9,0,0,0-1.33.08,137.25,137.25,0,0,0-24.27,7.23,3.31,3.31,0,0,0-1.38.86,11.73,11.73,0,0,0,.55,1.34l5.26,10.49a3.38,3.38,0,0,1,.24,1.06l23.13-.08a2.76,2.76,0,0,0,.31-1c0-.39-2.32-18.87-2.32-19A4.49,4.49,0,0,0,128.48,72.87ZM96.75,83.28a5.34,5.34,0,0,0-1.38.63c-9.2,5.52-13.79,8.56-14.22,9a0.88,0.88,0,0,0-.35.63s20.78,0.27,20.85.12,0.28-.13.08-0.47c-0.43-.75-4.08-8.35-4.28-8.8A2,2,0,0,0,96.75,83.28Z" transform="translate(0 -1.24)"/><path id="lines" class="cls-1" d="M601,93.64H0v2.73H601V93.64Z" transform="translate(0 -1.24)"/><g id="highedweb"><path id="h" class="cls-1" d="M239.62,25.07V49.83h10.77V25.07H265V88.76H250.39V63.43H239.62V88.76H225V25.07h14.65Z" transform="translate(0 -1.24)"/><path id="i" class="cls-1" d="M285.22,35.7V88.76H273V35.7h12.2Z" transform="translate(0 -1.24)"/><path id="g" class="cls-1" d="M323.48,87.34a40.35,40.35,0,0,1-11.65,1.89c-6.69,0-11.41-1.89-14.88-5.27-4.88-4.65-7.24-12.67-7.08-21.57,0.31-18.74,11.49-27.16,23.62-27.16a22.25,22.25,0,0,1,9.13,1.65l-2,10.47a13.62,13.62,0,0,0-6.06-1.18c-7.16,0-12,4.65-12,17.32,0,11.18,4.41,15.51,8.5,15.51a3.66,3.66,0,0,0,1.34-.16V68.05h-3.86V58.13h15V87.34Z" transform="translate(0 -1.24)"/><path id="h-2" data-name="h" class="cls-1" d="M344.82,35.7V56.32h9V35.7H366V88.76H353.8V67.66h-9v21.1h-12.2V35.7h12.2Z" transform="translate(0 -1.24)"/><path id="e" class="cls-1" d="M402.84,61.73H388.95V76.1h15.59V88.76H374.3V25.07h29.2V37.73H388.95V49.64h13.89V61.73Z" transform="translate(0 -1.24)"/><path id="d" class="cls-1" d="M410.44,36.48a61.26,61.26,0,0,1,11.49-1c7.17,0,12.13,1.65,15.75,5,4.72,4.33,6.77,11.41,6.77,21.33,0,10.15-2.68,18.18-7.79,22.51-3.7,3.23-9,4.88-16.93,4.88a84.58,84.58,0,0,1-9.29-.63V36.48Zm12.12,42.67a5.39,5.39,0,0,0,1.66.16c4.25,0,7.64-4.88,7.64-18,0-9.84-2.28-16.14-7.56-16.14a4.21,4.21,0,0,0-1.73.24V79.15Z" transform="translate(0 -1.24)"/><path id="w" class="cls-1" d="M455.85,88.76l-10.3-63.68h15.21l2.08,23.05c0.66,7,1,14.36,1.8,22.11h0.19c0.94-7.75,2.27-14.74,3.5-22.11l4-23.05H484l3.5,23.05c1,7,2,14,2.74,22.11h0.19c0.66-7.94,1.32-14.74,2-22.11l2.17-23.05h14.27L498.18,88.76H482.88l-2.74-16.44c-0.94-5.57-1.8-12.85-2.65-21H477.3c-1.23,7.94-2.27,15.12-3.5,21l-3.4,16.44H455.85Z" transform="translate(0 -1.24)"/><path id="e-2" data-name="e" class="cls-1" d="M536.17,66.24H524.6v12h13V88.76H512.39V35.7h24.33V46.25H524.6v9.92h11.57V66.24Z" transform="translate(0 -1.24)"/><path id="b" class="cls-1" d="M544.83,36.48a67.82,67.82,0,0,1,13-1c5,0,10.15.47,14.17,3.78a12.43,12.43,0,0,1,4.25,9.92,12.4,12.4,0,0,1-7.48,11.49V61A12.47,12.47,0,0,1,578,73.25,14.25,14.25,0,0,1,574,83.64c-3.23,3.46-8.82,5.59-18.89,5.59a75.29,75.29,0,0,1-10.31-.63V36.48ZM557,57.19h2c3.23,0,5.43-2.83,5.43-6.61,0-3.46-1.65-6.14-4.88-6.14a7.57,7.57,0,0,0-2.52.31V57.19Zm0,22.59a8,8,0,0,0,2,.16c3.31,0,6.46-2.13,6.46-6.85,0-4.49-3-6.93-6.38-6.93h-2V79.78Z" transform="translate(0 -1.24)"/></g><g id="word-annual"><path class="cls-1" d="M28.52,125.66l-1.28,6.57H21.82L28,103.48h6.7l5.59,28.75H34.92l-1.24-6.57H28.52Zm4.65-4.35-0.94-6c-0.3-1.75-.68-4.61-0.94-6.53H31.16c-0.3,1.92-.73,4.9-1,6.57l-1.07,6h4.09Z" transform="translate(0 -1.24)"/><path class="cls-1" d="M51.34,132.22V103.48h5.12l4.44,11.26c0.85,2.22,2.26,5.93,3.07,8.4H64c-0.17-3-.55-8-0.55-13.31v-6.35h4.9v28.75H63.28l-4.39-10.92a82.44,82.44,0,0,1-2.9-8.66H55.9c0.13,2.9.34,7.34,0.34,13.09v6.48h-4.9Z" transform="translate(0 -1.24)"/><path class="cls-1" d="M81.2,132.22V103.48h5.12l4.44,11.26c0.85,2.22,2.26,5.93,3.07,8.4h0.09c-0.17-3-.55-8-0.55-13.31v-6.35h4.9v28.75H93.14l-4.39-10.92a82.44,82.44,0,0,1-2.9-8.66H85.76c0.13,2.9.34,7.34,0.34,13.09v6.48H81.2Z" transform="translate(0 -1.24)"/><path class="cls-1" d="M116.47,103.48v18.68c0,4.22,1.28,5.5,2.73,5.5,1.62,0,2.77-1.15,2.77-5.5V103.48h5.59v17.7c0,7.38-2.77,11.39-8.32,11.39-6,0-8.36-4.14-8.36-11.34V103.48h5.59Z" transform="translate(0 -1.24)"/><path class="cls-1" d="M144.49,125.66l-1.28,6.57H137.8L144,103.48h6.7l5.59,28.75h-5.42l-1.24-6.57h-5.16Zm4.65-4.35-0.94-6c-0.3-1.75-.68-4.61-0.94-6.53h-0.13c-0.3,1.92-.72,4.9-1,6.57l-1.07,6h4.09Z" transform="translate(0 -1.24)"/><path class="cls-1" d="M167.31,103.48h5.59v24h7.38v4.73h-13V103.48Z" transform="translate(0 -1.24)"/></g><g id="word-conf"><path class="cls-1" d="M219.78,131.8a11.31,11.31,0,0,1-4.35.68c-7.34,0-10.83-6.06-10.83-14.2,0-10.83,6-15.06,11.6-15.06a7.68,7.68,0,0,1,3.88.77l-0.94,4.69a5.62,5.62,0,0,0-2.6-.55c-3.16,0-6,2.73-6,9.85,0,6.87,2.6,9.55,6,9.55a9.86,9.86,0,0,0,2.69-.43Z" transform="translate(0 -1.24)"/><path class="cls-1" d="M247.16,117.34c0,10.83-3.84,15.23-9.3,15.23-6.53,0-9.09-6.91-9.09-14.8s3.11-14.63,9.47-14.63C245.2,103.14,247.16,110.77,247.16,117.34Zm-12.58.51c0,6.53,1.24,9.85,3.5,9.85s3.24-4.27,3.24-10.11c0-5-.77-9.6-3.28-9.6C235.81,108,234.58,111.67,234.58,117.85Z" transform="translate(0 -1.24)"/><path class="cls-1" d="M258.55,132.22V103.48h5.12l4.44,11.26c0.85,2.22,2.26,5.93,3.07,8.4h0.09c-0.17-3-.55-8-0.55-13.31v-6.35h4.9v28.75h-5.12l-4.39-10.92a82.33,82.33,0,0,1-2.9-8.66h-0.09c0.13,2.9.34,7.34,0.34,13.09v6.48h-4.9Z" transform="translate(0 -1.24)"/><path class="cls-1" d="M288.41,103.48h12.5v4.86H294v7.38h6.48v4.65H294v11.86h-5.59V103.48Z" transform="translate(0 -1.24)"/><path class="cls-1" d="M325.13,119.6h-6.57v7.76H326v4.86H313V103.48h12.5v4.86h-6.91V115h6.57v4.65Z" transform="translate(0 -1.24)"/><path class="cls-1" d="M337.63,103.9a33.39,33.39,0,0,1,6.1-.55c3.07,0,5.8.43,7.68,2.13s2.26,3.5,2.26,6a7.66,7.66,0,0,1-4.44,7.21v0.09c2,0.77,2.94,2.6,3.5,5.67a46.26,46.26,0,0,0,1.83,7.81h-5.84a39.78,39.78,0,0,1-1.41-6.87c-0.51-3.58-1.41-4.61-3.28-4.61h-0.81v11.47h-5.59V103.9Zm5.59,12.54h1c2.43,0,3.84-2,3.84-4.48s-1-4.18-3.5-4.27a4,4,0,0,0-1.32.17v8.57Z" transform="translate(0 -1.24)"/><path class="cls-1" d="M377.68,119.6h-6.57v7.76h7.42v4.86h-13V103.48H378v4.86h-6.91V115h6.57v4.65Z" transform="translate(0 -1.24)"/><path class="cls-1" d="M390.18,132.22V103.48h5.12l4.44,11.26c0.85,2.22,2.26,5.93,3.07,8.4h0.09c-0.17-3-.55-8-0.55-13.31v-6.35h4.9v28.75h-5.12l-4.39-10.92a82.44,82.44,0,0,1-2.9-8.66h-0.09c0.13,2.9.34,7.34,0.34,13.09v6.48h-4.9Z" transform="translate(0 -1.24)"/><path class="cls-1" d="M433.81,131.8a11.31,11.31,0,0,1-4.35.68c-7.34,0-10.83-6.06-10.83-14.2,0-10.83,6-15.06,11.6-15.06a7.68,7.68,0,0,1,3.88.77l-0.94,4.69a5.62,5.62,0,0,0-2.6-.55c-3.16,0-6,2.73-6,9.85,0,6.87,2.6,9.55,6,9.55a9.86,9.86,0,0,0,2.69-.43Z" transform="translate(0 -1.24)"/><path class="cls-1" d="M456.89,119.6h-6.57v7.76h7.42v4.86h-13V103.48h12.5v4.86h-6.91V115h6.57v4.65Z" transform="translate(0 -1.24)"/></g><g id="year"><path class="cls-1" d="M482.56,132.22v-3.75l2.77-3.54c3.58-4.56,6.53-8.36,6.53-12.33,0-2.22-1.24-3.8-3.54-3.8a7.85,7.85,0,0,0-4.18,1.41l-1-4.35a12.41,12.41,0,0,1,6.18-1.71c6.06,0,8,4.05,8,8,0,5.2-3.24,9.38-6.44,13.09l-1.66,2v0.09h8.49v4.9H482.56Z" transform="translate(0 -1.24)"/><path class="cls-1" d="M524.75,118.23c0,9.94-3.63,14.33-8.1,14.33-6.06,0-8.1-7-8.1-14.07,0-8,2.56-14.33,8.32-14.33C523.25,104.16,524.75,111.62,524.75,118.23Zm-10.58.13c-0.09,6.48.72,9.43,2.6,9.43s2.35-3.07,2.35-9.43c0-5.93-.55-9.43-2.35-9.43S514.13,111.92,514.17,118.36Z" transform="translate(0 -1.24)"/><path class="cls-1" d="M541.21,109.75h-0.09l-4.69,2.43-0.94-4.39,6.35-3.28h4.9v27.72h-5.54V109.75Z" transform="translate(0 -1.24)"/><path class="cls-1" d="M574.74,108.68a17.07,17.07,0,0,0-2.3.3c-3.67.81-5.5,3.88-6.18,7.38h0.13a5.21,5.21,0,0,1,4.27-2.22c3.75,0,6.27,3.37,6.27,8.62,0,4.86-2.47,9.81-7.89,9.81-5.25,0-8.44-4.56-8.44-11.43,0-6.06,2-10.19,4.56-12.92a12.6,12.6,0,0,1,6.78-3.75,19,19,0,0,1,2.82-.3v4.52Zm-3.33,14c0-2.35-.81-4.56-2.6-4.56a2.54,2.54,0,0,0-2.26,1.88,6.4,6.4,0,0,0-.3,2.43c0,3.63,1,6.06,2.69,6.06C570.81,128.51,571.41,126,571.41,122.71Z" transform="translate(0 -1.24)"/></g></svg>