<?xml version="1.0" encoding="utf-8"?>
<!-- Generator: Adobe Illustrator 19.1.0, SVG Export Plug-In . SVG Version: 6.00 Build 0)  -->
<svg version="1.1" id="Layer_1" xmlns="http://www.w3.org/2000/svg" xmlns:xlink="http://www.w3.org/1999/xlink" x="0px" y="0px"
	 viewBox="0 0 150 150" enable-background="new 0 0 150 150" xml:space="preserve">
<g id="heweb_2_">
	<path id="globe_2_" fill="#FFFFFF" d="M77.9461,23.6838c-2.5507-3.1065-5.8018-5.831-5.5749-5.8426
		c7.2824-0.3703,22.3942,3.3093,25.5071,7.1676c0,0-9.2345-1.5719-19.2122-0.9547l-0.4321,0.0205L77.9461,23.6838z M67.5332,18.4208
		c-0.1941-0.1267,0.0106,0.0161-0.216-0.1234c-0.0652-0.0402-0.2192-0.0997-0.3838-0.0858
		c-9.7617,0.8197-16.2858,4.0345-16.5953,4.1762c-0.2456,0.1125-0.3372,0.1611-0.3806,0.2263
		c-0.0411,0.0617-0.0411,0.0411,0.0103,0.216c0.2189,0.7448,2.2012,7.0358,2.2835,7.221c0.0749,0.1687,0.0617,0.1749,0.1234,0.216
		c0.1032,0.0688,0.2366,0,0.3806-0.0618c0.2739-0.1173,8.8205-4.3909,20.8503-5.5854c0.3691-0.0367,0.2687-0.0129,0.3498-0.0618
		c0.0514-0.0309-0.0913-0.1864-0.1955-0.2983C72.7931,23.2209,68.4895,19.0447,67.5332,18.4208z M67.5332,18.4208l0.09-0.1379
		l-0.0794-0.0505l-0.0253-0.0144c-0.0129-0.0036-0.0171-0.0158-0.0797-0.0196l-0.1138,0.045l-0.0321,0.0421l0.0835,0.045
		l-0.0835-0.0454v0.0003l0.0835,0.045l-0.0835-0.0454l0.1431,0.0778l-0.0929-0.1338l-0.0502,0.056l0.1431,0.0778l-0.0929-0.1338
		l0.0929,0.1334v-0.1627l-0.0929,0.0292l0.0929,0.1334v-0.1627v0.1463l0.0598-0.1344l-0.0598-0.0119v0.1463l0.0598-0.1344
		l-0.0138,0.0309l0.0151-0.0302l-0.0012-0.0007l-0.0138,0.0309l0.0151-0.0302c-0.0038-0.0016-0.0334-0.0184-0.0935-0.0553
		c-0.0884-0.0527-0.235-0.1106-0.4208-0.1122l-0.0637,0.0026c-9.7883,0.8213-16.3379,4.0476-16.6493,4.1904
		c-0.244,0.1161-0.3562,0.1575-0.449,0.2848l-0.0293,0.0454l-0.028,0.1076c0.0042,0.0807,0.0213,0.107,0.0466,0.2009
		c0.1106,0.3764,0.6603,2.1334,1.1939,3.8233c0.2668,0.8448,0.5291,1.6719,0.73,2.2997c0.1006,0.3138,0.1855,0.5779,0.2482,0.7698
		c0.0315,0.0958,0.0572,0.1736,0.0765,0.2308c0.0205,0.0594,0.0305,0.09,0.0424,0.1176c0.0363,0.0814,0.0479,0.1174,0.0698,0.162
		l0.1128,0.1241c0.0594,0.0402,0.1298,0.0569,0.1903,0.0562c0.145-0.0038,0.2482-0.0643,0.3462-0.1035
		c0.0456-0.0196,0.2009-0.0958,0.4854-0.2266c1.974-0.9084,9.8173-4.3042,20.3164-5.3466c0.1851-0.0183,0.2411-0.0199,0.2912-0.0273
		l0.0971-0.0363l0.0302-0.0209c0.0598-0.0312,0.0951-0.1147,0.0906-0.1617c-0.0032-0.0717-0.0251-0.1026-0.0425-0.136
		c-0.0552-0.0919-0.1402-0.179-0.2083-0.2536c-0.4892-0.5256-1.8058-1.8281-3.1245-3.0823
		c-0.6589-0.6265-1.3172-1.2405-1.8721-1.7378c-0.5567-0.4979-1.0023-0.8756-1.2604-1.0447L67.5332,18.4208l-0.09,0.1379
		c0.2202,0.1427,0.6708,0.5214,1.2205,1.0142c1.6535,1.4809,4.2586,4.028,4.976,4.7992l0.1279,0.1446l0.0367,0.0512l0.0032,0.0051
		l0.072-0.0357h-0.0778l0.0058,0.0357l0.072-0.0357h-0.0778h0.1414l-0.0726-0.1202l-0.0688,0.1202h0.1414l-0.0726-0.1202
		l-0.0341,0.0224l-0.0103,0.0078l0.0598,0.0858l-0.0257-0.1016l-0.0341,0.0158l0.0598,0.0858l-0.0257-0.1016l0.0096,0.0377
		l-0.0058-0.0382l-0.0038,0.0006l0.0096,0.0377l-0.0058-0.0382c-0.0116,0.0022-0.09,0.007-0.2745,0.025
		c-6.0303,0.5989-11.1864,1.9692-14.8698,3.2045c-1.8419,0.6178-3.3157,1.2019-4.3469,1.6391
		c-0.5156,0.2186-0.9206,0.4005-1.2051,0.5317c-0.2826,0.1298-0.4542,0.2131-0.4774,0.2228
		c-0.1045,0.0475-0.1935,0.081-0.2167,0.0771l-0.0077-0.0009l-0.0099-0.0071l-0.027,0.0344l0.035-0.0254l-0.008-0.009l-0.027,0.0344
		l0.035-0.0254l-0.0321,0.0235l0.0344-0.0203l-0.0022-0.0032l-0.0321,0.0235l0.0344-0.0203
		c-0.0016,0.0007-0.0209-0.0511-0.0646-0.1511l-0.0016-0.0045c-0.0643-0.1688-0.5834-1.7969-1.1074-3.4582
		c-0.5253-1.6635-1.0608-3.3755-1.1672-3.7378l-0.0292-0.1l-0.0045-0.018l-0.0515,0.0099h0.0521l-0.0006-0.0099l-0.0515,0.0099
		h0.0521H49.986l0.0932,0.0515l0.0132-0.0515H49.986l0.0932,0.0515l-0.0289-0.0161l0.028,0.018l0.0009-0.0019l-0.0289-0.0161
		l0.028,0.018l0.0161-0.0238l0.0604-0.0444c0.0485-0.0286,0.1301-0.0681,0.2517-0.1238c0.3076-0.1405,6.8063-3.3437,16.5407-4.1618
		l0.0353-0.0013c0.1051-0.002,0.2196,0.0437,0.2481,0.0633l0.1,0.0594l0.0309,0.0157l0.0743,0.0164l0.0967-0.0309l0.0457-0.0492
		l0.0042-0.0077l-0.1395-0.0749l0.1347,0.0836l0.0048-0.0087l-0.1395-0.0749l0.1347,0.0836l-0.1392-0.0862l0.0852,0.1395
		l0.054-0.0533l-0.1392-0.0862l0.0852,0.1395l-0.0849-0.1392v0.163l0.0849-0.0238l-0.0849-0.1392v0.163v-0.1517l-0.0688,0.1363
		c0.0067,0.0007,0.008,0.0116,0.0688,0.0155v-0.1517l-0.0688,0.1363l0.0003,0.0003l0.0729,0.0466L67.5332,18.4208z M46.5218,24.0335
		c-0.1974,0.1151-10.1175,5.2145-16.1495,12.3956c-0.0624,0.0743-0.0907,0.0756-0.1058,0.1964
		c-0.0058,0.0475-0.0151-0.0762,0.0151,0.181c0.026,0.2215,1.4658,6.8745,1.5269,7.1499c0.0604,0.272,0.1022,0.4015,0.1511,0.4989
		c0.0302,0.0604,0.1186-0.0273,0.2417-0.1511c7.8311-7.8764,16.5076-12.2584,16.8303-12.4737
		c0.1543-0.1029,0.2263-0.1337,0.2263-0.1852c0-0.072-0.0232-0.0874-0.0515-0.1749c-0.1504-0.468-2.1418-6.7597-2.3761-7.3341
		c-0.0923-0.226-0.0411-0.1132-0.0823-0.144C46.6745,23.9371,46.6452,23.9616,46.5218,24.0335z M46.7481,23.9924l-0.0987,0.1318
		c0.0199,0.0132,0.0479,0.0363,0.1112,0.0386c0.0781,0.0032,0.1421-0.0652,0.1475-0.0849l0.0058-0.0106l-0.1337-0.0675
		l0.1238,0.0845l0.0099-0.017l-0.1337-0.0675l0.1238,0.0845l-0.134-0.092l0.0993,0.1286l0.0348-0.0367l-0.134-0.092l0.0993,0.1286
		l-0.1003-0.1296v0.1639l0.1003-0.0344l-0.1003-0.1296v0.1639v-0.1636l-0.1006,0.1289l0.1006,0.0347v-0.1636l-0.1006,0.1289
		l0.0964-0.1238l-0.136,0.0784l0.0396,0.0454l0.0964-0.1238l-0.136,0.0784l0.092-0.0527l-0.0961,0.0447l0.0041,0.008l0.092-0.0527
		l-0.0961,0.0447c0.0006,0.0007,0.0176,0.0437,0.0533,0.1315c0.0534,0.1296,0.2241,0.6358,0.4449,1.3112
		c0.6657,2.0328,1.8136,5.6587,1.9268,6.0111l0.0398,0.1028l0.0039,0.0215h0.1045l-0.0833-0.0652l-0.0212,0.0652h0.1045
		l-0.0833-0.0652l-0.0007-0.0007c-0.0186,0.0158-0.0835,0.0544-0.1736,0.1142c-0.0205,0.0147-0.2018,0.1134-0.4828,0.2674
		c-1.9894,1.0942-9.5022,5.3174-16.3729,12.2272l-0.1163,0.1122l-0.0254,0.0193l0.0454,0.0772v-0.0865l-0.0454,0.0093l0.0454,0.0772
		v-0.0865v0.1309l0.1186-0.0592l-0.1186-0.0717v0.1309l0.1186-0.0592c-0.0389-0.0775-0.0781-0.1931-0.1376-0.4613
		c-0.0302-0.1363-0.4057-1.8692-0.7763-3.5941c-0.1854-0.8628-0.3696-1.7236-0.5095-2.3823
		c-0.0694-0.3295-0.1282-0.6085-0.1701-0.8116c-0.0415-0.1996-0.0681-0.3382-0.0685-0.3456
		c-0.008-0.0704-0.0135-0.1128-0.0167-0.1382l-0.0035-0.0263l-0.0007-0.0036l-0.1418,0.0171h0.1427l-0.0009-0.0171l-0.1418,0.0171
		h0.1427h-0.1614l0.1604,0.0167l0.0009-0.0167h-0.1614l0.1604,0.0167l-0.1633-0.0171l0.1485,0.0704l0.0148-0.0533l-0.1633-0.0171
		l0.1485,0.0704l-0.1488-0.0704l0.1003,0.1302l0.0485-0.0598l-0.1488-0.0704l0.1003,0.1302l-0.1003,0.034v-0.1643l-0.1231,0.109
		c0.0132,0.0064,0.0193,0.0447,0.1231,0.0553v-0.1643l-0.1231,0.109l0.1205-0.1064l-0.1359,0.0858l0.0154,0.0205l0.1205-0.1064
		l-0.1359,0.0858l0.0176,0.0231c0.0129,0.0122,0.0425,0.0515,0.1232,0.055c0.062,0.001,0.1125-0.0382,0.1289-0.0614l0.0328-0.0662
		l0.0055-0.0286l0.0077-0.0424l0.0007-0.002l0.0099-0.0112l0.0502-0.0556c2.9997-3.5716,6.9773-6.6353,10.2284-8.8167
		c1.6255-1.091,3.0695-1.9618,4.119-2.5667c0.5246-0.3025,0.9506-0.5384,1.2517-0.7024c0.3031-0.1652,0.4712-0.253,0.5072-0.2735
		l0.0833-0.0476l0.0084-0.0039l-0.0196-0.0636v0.0662l0.0196-0.0026l-0.0196-0.0636v0.0662v-0.0784l-0.0312,0.0723l0.0312,0.0061
		v-0.0784l-0.0312,0.0723l0.009-0.0209l-0.0119,0.0196l0.0029,0.0013l0.009-0.0209l-0.0119,0.0196l0.0065,0.0045L46.7481,23.9924
		l0.099-0.1315c-0.0383-0.0296-0.0978-0.0636-0.1704-0.0633c-0.1215,0.008-0.1627,0.055-0.2379,0.0939
		c-0.0135,0.008-0.1983,0.1051-0.4989,0.2687c-2.1212,1.1569-10.3875,5.8484-15.6936,12.1632l-0.0807,0.0942
		c-0.0363,0.0521-0.0543,0.1173-0.0623,0.1874l0.1157,0.0145l-0.1099-0.0379l-0.0058,0.0234l0.1157,0.0145l-0.1099-0.0379
		l0.1498,0.0517l-0.1231-0.0993l-0.0267,0.0476l0.1498,0.0517l-0.1231-0.0993l0.127,0.1026v-0.1633
		c-0.0614-0.0006-0.1109,0.0382-0.127,0.0608l0.127,0.1026v-0.1633v0.1637l0.109-0.1219c-0.0151-0.0132-0.0488-0.0405-0.109-0.0418
		v0.1637l0.109-0.1219l-0.1061,0.1186L30.4,36.5481l-0.0283-0.0331l-0.1061,0.1186L30.4,36.5481l-0.0061-0.009l-0.0199-0.0228
		c-0.0135-0.0093-0.0344-0.0406-0.1135-0.0454l-0.1003,0.0344l-0.0589,0.0887l-0.0055,0.0421l0.0026,0.0302
		c0.002,0.0161,0.0074,0.0553,0.0199,0.1594c0.0061,0.0479,0.0302,0.1658,0.0727,0.3735c0.2944,1.4282,1.4027,6.5498,1.4568,6.7928
		c0.0614,0.2758,0.1057,0.4192,0.1646,0.5371c0.019,0.0527,0.1051,0.1161,0.1758,0.1103c0.1144-0.0096,0.1446-0.0543,0.1931-0.0887
		l0.1366-0.1305c3.905-3.9274,8.0233-6.986,11.2047-9.0886c1.5909-1.0511,2.9477-1.8634,3.9265-2.4262
		c0.4893-0.2812,0.8843-0.5005,1.1672-0.6561c0.286-0.1575,0.4465-0.2427,0.5066-0.2819c0.0739-0.0495,0.1276-0.0807,0.1762-0.1154
		l0.0748-0.0691l0.0486-0.1376l-0.0264-0.1417l-0.0331-0.0839c-0.0749-0.2325-0.6104-1.9232-1.1565-3.6266
		c-0.2729-0.8519-0.5487-1.7069-0.7708-2.3855c-0.2228-0.6804-0.3889-1.1762-0.4529-1.3333
		c-0.0251-0.0614-0.0392-0.0968-0.0482-0.1196l-0.0135-0.0309l-0.0174-0.0289l-0.0325-0.0338l-0.1022-0.035l-0.1183,0.0498
		l-0.0302,0.0424l0.1344,0.0679l-0.1083-0.1039l-0.0261,0.036l0.1344,0.0679l-0.1083-0.1039l0.1141,0.1097v-0.1585l-0.1141,0.0488
		l0.1141,0.1097v-0.1585v0.1421l0.0862-0.1151l-0.0862-0.027v0.1421l0.0862-0.1151L46.7481,23.9924z M27.2665,40.3968
		c-7.8697,10.8543-8.9536,20.5761-8.9806,20.8731c-0.0325,0.3562-0.0466,0.6532,0.0357,0.6635
		c0.0823,0.0103,0.2588,0.0282,0.3642-0.1723c3.4231-6.4926,9.2901-13.3863,10.2194-14.3211
		c0.1569-0.1575-0.0816,0.099,0.1302-0.1916c0.055-0.0758,0.0379-0.1993,0.0138-0.3022c-0.0823-0.3497-1.3141-5.8208-1.4806-6.4662
		c-0.0354-0.1369-0.0386-0.2395-0.1041-0.2395C27.4333,40.2406,27.3401,40.2952,27.2665,40.3968z M27.4645,40.2406v0.1646V40.292
		l-0.0862,0.0739l0.0862,0.0392V40.292l-0.0862,0.0739l0.0582-0.0498l-0.0675,0.0367l0.0093,0.0132l0.0582-0.0498l-0.0675,0.0367
		l0.0093-0.0051l-0.0096,0.0038l0.0003,0.0013l0.0093-0.0051l-0.0096,0.0038c0.0058,0.0103,0.019,0.0826,0.0405,0.1698
		c0.1646,0.6374,1.3973,6.1119,1.4799,6.463l0.0184,0.1267l-0.0036,0.0348l-0.0019,0.0064l-0.0807,0.1171l-0.0231,0.0411
		l-0.0206,0.0835l0.0402,0.1087l0.1263,0.0585c0.0633-0.0038,0.0736-0.0186,0.0881-0.0244l0.0315-0.0225l0.0084-0.007l0.0048-0.0045
		l0.0048-0.0052l0.0074-0.0084l0.0103-0.0135l0.0115-0.0205l0.0161-0.0707l-0.0483-0.1164l-0.1163-0.0482l-0.1164,0.0482
		l-0.0482,0.1164l0.0482,0.1163l-0.0273-0.0366l-0.0199-0.0958l0.0582-0.1106l0.0784-0.036l0.0271-0.0019
		c-0.0637,0.0045-0.0653,0.0161-0.0772,0.0186l-0.0257,0.0174l-0.0244,0.0224l-0.0466,0.0463
		c-0.477,0.4797-2.1733,2.4347-4.1891,5.0924c-2.0141,2.6571-4.3408,6.0085-6.0593,9.2679c-0.0533,0.0894-0.0826,0.0836-0.1417,0.09
		l-0.0566-0.0045l-0.0147,0.1202l0.1022-0.0688l-0.0875-0.0514l-0.0147,0.1202l0.1022-0.0688l-0.0573,0.0386l0.0633-0.0282
		l-0.0061-0.0103l-0.0573,0.0386l0.0633-0.0282l-0.0061,0.0032l0.0064-0.0026l-0.0003-0.0006l-0.0061,0.0032l0.0064-0.0026
		c-0.0038-0.0084-0.0116-0.0649-0.0109-0.1376c0-0.1054,0.0103-0.2514,0.0251-0.4101c0.0244-0.2732,1.1035-9.9713,8.9497-20.7912
		l0.0785-0.0797l0.0228-0.0142l-0.0363-0.0771v0.0826l0.0363-0.0055l-0.0363-0.0771v0.0826V40.2406V40.076l-0.1038,0.0257
		c-0.0749,0.0363-0.154,0.0989-0.2276,0.1983c-7.8928,10.8887-8.9816,20.6343-9.0111,20.9551
		c-0.0148,0.1626-0.0261,0.3144-0.0264,0.4397c0.0003,0.0772,0.0036,0.1434,0.018,0.2077l0.0431,0.1035
		c0.0228,0.0367,0.0765,0.0829,0.1443,0.0906l0.0974,0.007c0.1192,0.0065,0.3282-0.0546,0.433-0.2662
		c1.7047-3.2331,4.0229-6.5749,6.0304-9.2217c2.0058-2.6461,3.7079-4.6057,4.1601-5.0602l0.0427-0.0418l0.0071-0.007l-0.0164-0.0174
		l0.0157,0.018l0.0007-0.0007l-0.0164-0.0174l0.0157,0.018l-0.0922-0.1041l0.0897,0.1067l0.0026-0.0026l-0.0922-0.1041
		l0.0897,0.1067l-0.1041-0.1234l0.099,0.1273l0.0051-0.0038l-0.1041-0.1234l0.099,0.1273l-0.1009-0.1298l0.0916,0.1363
		l0.0093-0.0065l-0.1009-0.1298l0.0916,0.1363l-0.0145,0.009l-0.0771-0.1453v0.1646c0.0639-0.0045,0.0652-0.0161,0.0771-0.0193
		l-0.0771-0.1453v0.1646h0.0048l0.0338-0.0045l0.0578-0.027l0.0672-0.1138c0.0029-0.0945-0.0318-0.1113-0.036-0.1234l-0.0109-0.0122
		l0.0261,0.0341l0.0219,0.0823l-0.0483-0.1164l-0.1163-0.0482l-0.1164,0.0482l-0.0482,0.1164
		c0.0035-0.0598,0.0167-0.0681,0.0209-0.0804l0.1434,0.0797l-0.1209-0.1113l-0.0225,0.0315l0.1434,0.0797l-0.1209-0.1113
		l0.0974,0.0901l-0.0871-0.0997l-0.0103,0.0096l0.0974,0.0901l-0.0871-0.0997l0.0508,0.0579l-0.0438-0.0637l-0.007,0.0058
		l0.0508,0.0579l-0.0438-0.0637l0.0743,0.108l-0.0575-0.1176l-0.0167,0.0096l0.0743,0.108l-0.0575-0.1176l0.0688,0.1407v-0.1562
		l-0.0688,0.0155l0.0688,0.1407v-0.1562v0.1627l0.1238-0.1055l-0.1238-0.0572v0.1627l0.1238-0.1055l-0.1228,0.1048h0.1617
		l-0.0389-0.1048l-0.1228,0.1048h0.1617h-0.1354l0.1231,0.0598l0.0122-0.0598h-0.1354l0.1231,0.0598l0.0029-0.0051l0.0711-0.1028
		c0.0562-0.0797,0.0678-0.164,0.0681-0.2347c-0.0003-0.0752-0.0135-0.1433-0.0273-0.2018c-0.082-0.3491-1.3128-5.8166-1.4812-6.4701
		c-0.0161-0.0608-0.0244-0.1171-0.0431-0.1794l-0.0565-0.108c-0.0321-0.0417-0.1038-0.0784-0.1639-0.0755V40.2406z M81.1143,27.3457
		c-0.252,0.019-0.4307,0.027-0.4526,0.0926c-0.0309,0.0926,0.0103,0.1337,0.1955,0.4423c3.0627,5.1046,5.885,12.4786,6.0381,12.7859
		c0.072,0.144,0.0797,0.1356,0.144,0.216c0.0411,0.0514,0.0193,0.0376,0.36,0.0205c0.8229-0.0411,11.3805-0.7885,21.8314,2.4755
		c0.7444,0.2327,0.8087,0.3436,0.9052,0.2469c0.0823-0.0823,0.0128-0.4044-0.1646-0.8229
		c-4.1145-9.6691-7.7495-13.1526-8.202-13.6464c-0.0437-0.0485-0.1504-0.1286-0.2392-0.1878
		C100.0964,28.0179,85.8614,26.9886,81.1143,27.3457z M101.53,28.9684l-0.0913,0.1373c0.081,0.0524,0.1891,0.1366,0.2096,0.1614
		c0.2327,0.2537,1.2382,1.2309,2.713,3.3653c1.4735,2.1315,3.4048,5.4096,5.4582,10.2346c0.1234,0.2874,0.1878,0.5339,0.1864,0.6342
		l-0.0038,0.0319l0.0552,0.0151l-0.0385-0.0386l-0.0167,0.0235l0.0552,0.0151l-0.0385-0.0386l0,0l0.0411,0.0543v-0.0678
		l-0.0411,0.0135l0.0411,0.0543v-0.0678v0.0164l0.0013-0.0164H110.06v0.0164l0.0013-0.0164
		c-0.0065,0.0013-0.081-0.0244-0.2057-0.0736c-0.126-0.0485-0.3086-0.1173-0.576-0.2009
		c-7.0679-2.2067-14.1719-2.5844-18.3096-2.5847c-2.002-0.0003-3.3135,0.0887-3.5783,0.1022
		c-0.1633,0.008-0.2494,0.0155-0.2777,0.0151h-0.0065l-0.0038,0.0681l0.0193-0.0652l-0.0155-0.0029l-0.0038,0.0681l0.0193-0.0652
		l-0.0335,0.1128l0.0823-0.0849l-0.0488-0.028l-0.0335,0.1128l0.0823-0.0849l-0.0411,0.0424l0.045-0.0373l-0.0038-0.0051
		l-0.0411,0.0424l0.045-0.0373l-0.0077-0.0103l-0.0642-0.0784c-0.0103-0.0138-0.0257-0.0389-0.0604-0.1084
		c-0.0116-0.0219-0.0759-0.1781-0.1736-0.4166c-0.6853-1.6885-3.181-7.8967-5.8709-12.3802
		c-0.0758-0.1257-0.1273-0.208-0.1556-0.2591l-0.0244-0.0498l-0.0013-0.0041l-0.0308,0.0061h0.0308V27.483l-0.0308,0.0061h0.0308
		h-0.0308l0.0308,0.0058v-0.0058h-0.0308l0.0308,0.0058l0.0013-0.0042l-0.108-0.036l0.0746,0.0855l0.0334-0.0498l-0.108-0.0357
		l0.0746,0.0855l-0.0398-0.0456l0.027,0.0552l0.0128-0.0096l-0.0398-0.0456l0.027,0.0552c0-0.0013,0.045-0.0135,0.108-0.0196
		c0.0643-0.0074,0.1492-0.0132,0.2469-0.0206c0.6532-0.0488,1.4928-0.072,2.4572-0.072c2.9856,0,7.1618,0.219,10.7401,0.5401
		c1.7898,0.1607,3.4305,0.3468,4.697,0.5432c0.6339,0.0981,1.1739,0.199,1.5892,0.2996c0.4153,0.0987,0.7111,0.2054,0.828,0.2851
		L101.53,28.9684l0.09-0.1373c-0.1916-0.125-0.5001-0.2247-0.9322-0.3304c-2.9959-0.7226-11.8485-1.3909-17.1035-1.3922
		c-0.9695,0-1.8156,0.0232-2.4816,0.073c-0.126,0.0096-0.234,0.0161-0.3266,0.0305l-0.135,0.0357
		c-0.0425,0.0186-0.1055,0.055-0.135,0.1385l-0.018,0.1029c0.0013,0.0832,0.0322,0.1446,0.0669,0.2083
		c0.0373,0.0656,0.0874,0.145,0.1607,0.2677c1.5263,2.5417,2.9946,5.6572,4.1004,8.1734c0.5542,1.2585,1.0158,2.3671,1.3501,3.1808
		c0.1659,0.4066,0.3009,0.7396,0.3986,0.9807c0.099,0.2436,0.1569,0.3851,0.1839,0.4401c0.0373,0.0746,0.0617,0.1173,0.0887,0.1552
		l0.0733,0.09l0.0746,0.0682l0.1286,0.0296c0.0604-0.0003,0.1325-0.0077,0.2944-0.0157c0.2714-0.0136,1.5674-0.1016,3.5617-0.1016
		c4.1171-0.0003,11.1941,0.3777,18.2119,2.57c0.2764,0.0864,0.4552,0.1549,0.5798,0.2032c0.1273,0.0463,0.1903,0.0813,0.2984,0.0861
		c0.0733,0.0036,0.1556-0.0421,0.1916-0.0832c0.0745-0.0807,0.081-0.1637,0.0835-0.2408c-0.0026-0.1964-0.0823-0.4506-0.2121-0.7631
		c-2.0625-4.8439-4.004-8.1422-5.4903-10.293c-1.4838-2.1482-2.5214-3.1595-2.7413-3.4c-0.0681-0.072-0.1735-0.1479-0.2713-0.2138
		L101.53,28.9684z M113.9482,43.9272c0.2906,0.7666,0.2906,0.828,0.4423,1.2446c0.0411,0.1132,0.2674,0.1749,0.792,0.4835
		c2.425,1.4259,6.2541,4.0322,7.4884,5.0197c0.6326,0.5066,1.0081,0.8229,0.9875,0.6583c-0.0232-0.1839-0.315-1.4433-0.603-1.9987
		c-1.8811-3.6279-5.7796-13.4076-16.2665-19.6436C104.5336,28.3496,109.2846,31.6219,113.9482,43.9272z M106.7889,29.691
		l-0.0836,0.1414c10.4368,6.2078,14.3159,15.9361,16.2035,19.5781c0.2701,0.5105,0.5709,1.7937,0.5864,1.9434l0.0656-0.009h-0.0656
		v0.0084l0.0656-0.0084h-0.0656h0.1298l-0.0964-0.0849l-0.0334,0.0849h0.1298l-0.0964-0.0849l0.1029,0.0906v-0.1382l-0.1029,0.0476
		l0.1029,0.0906v-0.1382v0.0849l0.0231-0.0823l-0.0231-0.0026v0.0849l0.0231-0.0823l-0.0038-0.0013
		c-0.0348-0.0135-0.153-0.0926-0.3022-0.2095c-0.1517-0.1176-0.3459-0.2752-0.5747-0.4577
		c-1.2485-0.9978-5.0724-3.6002-7.5077-5.0329c-0.2662-0.1572-0.4604-0.2523-0.5825-0.3182
		c-0.0618-0.0328-0.1055-0.0585-0.126-0.0749l-0.0167-0.0145l-0.0244,0.0199l0.0296-0.0103l-0.0051-0.0097l-0.0244,0.0199
		l0.0296-0.0103c-0.1492-0.4086-0.1517-0.477-0.4436-1.2469c-1.9236-5.0753-3.8638-8.6202-5.3232-10.9411
		c-0.7303-1.1604-1.3398-2.0149-1.7667-2.5998c-0.2134-0.2922-0.3806-0.5176-0.4924-0.6773
		c-0.0553-0.0797-0.0977-0.1431-0.1221-0.1868l-0.0232-0.046l-0.0026-0.0032l-0.0849,0.0219h0.0874l-0.0026-0.0219l-0.0849,0.0219
		h0.0874h-0.1402l0.0939,0.1028l0.0463-0.1028h-0.1402l0.0939,0.1028l-0.09-0.0984l0.0013,0.1344l0.0887-0.036l-0.09-0.0984
		l0.0013,0.1344V29.53l-0.0116,0.0446l0.0116,0.0007V29.53l-0.0116,0.0446c0.0322,0.0049,0.2135,0.0993,0.477,0.2578
		L106.7889,29.691l0.0848-0.1415c-0.1556-0.0922-0.2777-0.1633-0.3754-0.2134l-0.1286-0.0604l-0.1299-0.0296l-0.1325,0.0492
		l-0.0617,0.1411c0.0065,0.0926,0.0347,0.1289,0.0669,0.1919c0.1247,0.2144,0.4307,0.6066,0.891,1.2491
		c1.3771,1.9194,4.0965,5.9998,6.7915,13.108c0.2893,0.7637,0.2867,0.818,0.441,1.2427c0.0257,0.071,0.0758,0.1192,0.1234,0.1549
		c0.1427,0.1041,0.351,0.1842,0.7393,0.414c2.4147,1.4192,6.2489,4.0293,7.4692,5.0065c0.2584,0.207,0.4744,0.3826,0.6416,0.5091
		c0.0835,0.0637,0.1556,0.1145,0.2172,0.1531c0.0669,0.0366,0.1055,0.0694,0.2045,0.0758l0.144-0.0637l0.0489-0.1331l-0.0026-0.0315
		c-0.0308-0.2186-0.3137-1.4542-0.621-2.0547c-1.8747-3.6137-5.7912-13.4448-16.3269-19.7092L106.7889,29.691z M76.128,27.7623
		c-6.7899,0.9039-14.1476,2.029-21.7584,5.545c-0.4043,0.1867-0.5426,0.2211-0.5651,0.3294
		c-0.0222,0.107,0.0842,0.199,0.1883,0.5137c0.0887,0.2681,5.1088,12.8923,5.2592,13.2999
		c0.1415,0.3825,0.1929,0.4822,0.2752,0.5368c0.0617,0.0411,0.0508,0.0482,0.3806-0.0926
		c0.3298-0.1408,8.9725-4.2692,22.4962-6.3811c0.5747-0.0897,0.8229-0.1373,0.9875-0.2196
		c0.1041-0.0521,0.0347-0.2373-0.0823-0.5487c-3.0075-8.0146-6.0934-12.2233-6.3647-12.5628
		c-0.1877-0.2366-0.2841-0.3533-0.387-0.4047C76.5575,27.7777,76.3916,27.7273,76.128,27.7623z M76.5575,27.7777l-0.0733,0.1473
		c0.0489,0.0196,0.1453,0.1218,0.3317,0.36c0.2571,0.3215,3.3392,4.5222,6.3389,12.5181c0.0785,0.2012,0.1273,0.3575,0.1234,0.3905
		v0.0026L83.349,41.21l-0.0308-0.0633l-0.0399,0.0495L83.349,41.21l-0.0308-0.0633c-0.1247,0.0646-0.3652,0.1157-0.9386,0.2041
		c-6.7736,1.0576-12.3239,2.6201-16.2238,3.9364c-3.8972,1.3151-6.1554,2.3887-6.3125,2.4562
		c-0.1032,0.0437-0.1726,0.0733-0.2163,0.0893l-0.0438,0.0148l-0.0045,0.0013l0.0087,0.0553v-0.056l-0.0087,0.0007l0.0087,0.0553
		v-0.056v0.0964l0.0431-0.0861l-0.0431-0.0103v0.0964l0.0431-0.0861l-0.0251,0.0501l0.0286-0.0482l-0.0036-0.0019l-0.0251,0.0501
		l0.0286-0.0482l-0.0154-0.0103c-0.0132-0.0097-0.0242-0.0155-0.0602-0.0836c-0.0344-0.0668-0.082-0.1839-0.152-0.3735
		c-0.0778-0.2109-1.3684-3.4636-2.6542-6.7057c-0.6423-1.6204-1.2829-3.236-1.7683-4.4636
		c-0.2427-0.6136-0.4465-1.1305-0.5924-1.5018c-0.1453-0.3687-0.2363-0.6037-0.2423-0.6233
		c-0.0505-0.153-0.1036-0.2607-0.1399-0.3343l-0.0373-0.0813l-0.0055-0.0167l-0.0003-0.0007h-0.0263l0.0257,0.0055l0.0007-0.0055
		h-0.0263l0.0257,0.0055l-0.0369-0.0087l0.0328,0.019l0.0041-0.0113l-0.0369-0.0077l0.0328,0.019l-0.0171-0.0099l0.0142,0.0142
		l0.0029-0.0042l-0.0171-0.0099l0.0142,0.0142c0.0029-0.0155,0.1685-0.0894,0.4802-0.2289
		c7.5858-3.5047,14.9231-4.6279,21.7112-5.5312c0.0604-0.0083,0.1144-0.0112,0.1607-0.0112c0.0681,0,0.1209,0.0061,0.1556,0.0119
		l0.0373,0.0074l0.0065,0.0016l0.0051-0.0174l-0.0051,0.0174l0,0l0.0051-0.0174l-0.0051,0.0174L76.5575,27.7777l-0.0733,0.1473
		L76.5575,27.7777l0.0476-0.1575c-0.0116-0.0036-0.1196-0.0348-0.2945-0.035c-0.0604,0-0.1286,0.0038-0.2044,0.0138
		c-6.7919,0.9045-14.1697,2.0315-21.8057,5.5587c-0.1996,0.0922-0.3321,0.146-0.4323,0.1974l-0.1363,0.0916l-0.0884,0.1566
		l-0.0065,0.0623c0.0029,0.1067,0.0434,0.171,0.0768,0.2437c0.036,0.0733,0.0785,0.1598,0.1228,0.2928
		c0.0161,0.0476,0.1013,0.2655,0.2482,0.6404c1.0222,2.6002,4.884,12.3159,5.0129,12.665c0.0714,0.1928,0.1203,0.3169,0.1675,0.4095
		c0.0457,0.0907,0.1016,0.162,0.171,0.207l0.0469,0.0289l0.1041,0.0244c0.118-0.0077,0.172-0.045,0.3851-0.1318
		c0.1726-0.0733,2.4005-1.134,6.2884-2.4465c3.8847-1.3112,9.4171-2.8689,16.1688-3.9229c0.576-0.091,0.8307-0.135,1.0351-0.235
		l0.1132-0.1125l0.0296-0.135c-0.0051-0.1539-0.0681-0.298-0.144-0.5062c-3.0152-8.0332-6.105-12.25-6.3904-12.6078
		c-0.1903-0.2346-0.2841-0.3658-0.4423-0.449l-0.0116-0.0065l-0.0142-0.0038L76.5575,27.7777z M50.3586,35.225
		c-0.1028-0.0205-0.2491,0.0778-0.6811,0.3151c-9.132,5.0133-15.9525,12.2715-16.2398,12.5017
		c-0.2874,0.2301-0.4101,0.3915-0.4012,0.4731c0.0103,0.0926,0.0399,0.1556,0.1234,0.4115
		c0.3086,0.9463,2.7979,8.1467,4.8532,12.7004c0.0926,0.2051,0.1974,0.4275,0.2694,0.4456
		c0.0823,0.0205,0.1964-0.1106,0.4115-0.3086c0.5143-0.4731,8.6772-7.7591,16.9312-11.9321
		c0.4822-0.2443,0.4321-0.2469,0.4937-0.3908c0.0907-0.2115,0.0573-0.2494-0.1209-0.6274
		c-0.2083-0.4423-5.281-12.9058-5.3926-13.1768C50.4615,35.2868,50.3586,35.225,50.3586,35.225z M50.3586,35.225l0.0322-0.1614
		l-0.0598-0.0058c-0.107,0.0026-0.1851,0.0421-0.2925,0.0958c-0.1074,0.0553-0.244,0.1344-0.4404,0.2421
		c-4.58,2.5147-8.5759,5.589-11.4644,8.0638c-1.4442,1.2376-2.6114,2.3254-3.4356,3.1184c-0.4121,0.396-0.7384,0.7188-0.9708,0.9495
		c-0.1161,0.1151-0.2084,0.2077-0.2758,0.2739c-0.0656,0.0649-0.1135,0.1099-0.1167,0.1118
		c-0.1444,0.1157-0.2514,0.216-0.3279,0.3066c-0.0736,0.0926-0.1296,0.1646-0.1356,0.2867l0.0019,0.0283v0.0019l-0.0003-0.0038
		c0.0157,0.1273,0.0498,0.1941,0.1305,0.4442c0.3112,0.9534,2.7989,8.1506,4.8597,12.7171c0.0469,0.1041,0.0974,0.2134,0.1488,0.306
		l0.0829,0.1267c0.0328,0.0367,0.0624,0.0791,0.1479,0.1048l0.0573,0.007c0.1292-0.0077,0.1874-0.0688,0.26-0.126
		c0.0704-0.0611,0.1475-0.1382,0.2456-0.2282c0.5057-0.4661,8.6678-7.7488,16.894-11.9064c0.244-0.1241,0.3552-0.1839,0.4394-0.2565
		l0.0935-0.1228l0.0379-0.0932c0.0344-0.081,0.0617-0.1575,0.0617-0.2475c-0.0055-0.1677-0.0749-0.2739-0.1852-0.5149
		c-0.0463-0.0977-0.406-0.9675-0.9113-2.1997c-1.5198-3.7046-4.3938-10.7652-4.478-10.9697
		c-0.1517-0.3677-0.2691-0.4615-0.3144-0.4899l-0.0245-0.0148l-0.0279-0.0055L50.3586,35.225l-0.0845,0.1411l0.0582-0.0974
		l-0.0691,0.0904l0.0109,0.007l0.0582-0.0974l-0.0691,0.0904l0,0c0.0097,0.0083,0.0862,0.0868,0.1903,0.3401
		c0.055,0.1344,1.3517,3.3189,2.6596,6.5237c0.6542,1.6024,1.3112,3.2103,1.8178,4.4457c0.5078,1.2375,0.8605,2.0913,0.9184,2.2147
		c0.1196,0.2469,0.1591,0.3452,0.1537,0.3748c0.0003,0.0187-0.0055,0.0483-0.0354,0.1177l-0.0328,0.0816l-0.0498,0.0444
		c-0.0521,0.0354-0.1553,0.0926-0.334,0.1832c-8.282,4.1884-16.4455,11.4776-16.9685,11.9578
		c-0.1022,0.0939-0.1816,0.1723-0.2376,0.2205l-0.0608,0.0463l-0.0051,0.0032l0.0209,0.0618v-0.065l-0.0209,0.0032l0.0209,0.0618
		v-0.065v0.092l0.0221-0.0894l-0.0221-0.0026v0.092l0.0221-0.0894l-0.0215,0.0881l0.0582-0.0707l-0.0363-0.0167l-0.0219,0.0874
		l0.0582-0.0707l-0.0055-0.0065c-0.0386-0.0424-0.1224-0.2109-0.19-0.3639c-2.0498-4.5408-4.5407-11.7444-4.8468-12.6837
		c-0.0864-0.2617-0.1115-0.3208-0.1163-0.3787l-0.0007-0.0045l0.0003,0.0026l-0.0916,0.0115h0.0923l-0.0007-0.0115l-0.0916,0.0115
		h0.0923h-0.0447l0.0434,0.0129l0.0013-0.0129h-0.0447l0.0434,0.0129c-0.0032-0.0148,0.1077-0.1678,0.3414-0.3491
		c0.0328-0.027,0.072-0.0656,0.1421-0.1344c1.0186-1.0055,7.5376-7.6655,16.0739-12.3516c0.1986-0.1093,0.3375-0.1893,0.433-0.2382
		l0.108-0.0502l0.0334-0.009v-0.0241l-0.0045,0.0235l0.0045,0.0006v-0.0241l-0.0045,0.0235L50.3586,35.225l-0.0845,0.1411
		L50.3586,35.225z M30.2865,51.5802c-0.1009-0.0328-0.1141-0.036-0.5043,0.4063c-4.049,4.5864-9.9189,13.5277-10.1269,14.008
		c-0.0997,0.2301-0.0958,0.162-0.1212,0.3182c-0.0148,0.0913,0.0254,0.2295,0.0608,0.5002
		c0.0488,0.3754,1.3481,6.5832,4.9576,13.3407c0.1659,0.3105,0.2212,0.5612,0.3182,0.5612c0.0759,0,0.1787-0.3188,0.3028-0.5464
		c0.2578-0.4719,5.2775-9.9353,10.1603-14.8187c0.2754-0.2752,0.2996-0.3092,0.3005-0.4468c0.001-0.1292-0.1105-0.3864-0.2459-0.677
		c-2.6879-5.7886-4.7118-11.7842-4.8333-12.1031C30.4337,51.8046,30.3318,51.5951,30.2865,51.5802z M30.2865,51.5802l0.0508-0.1562
		l-0.1093-0.0212l-0.1376,0.0392c-0.1105,0.0695-0.1983,0.1743-0.4317,0.4359c-2.0328,2.3029-4.5138,5.6871-6.5154,8.5582
		c-1.0007,1.4356-1.8811,2.7426-2.5249,3.7218c-0.3218,0.4892-0.5844,0.8968-0.7737,1.1977
		c-0.1907,0.3041-0.3009,0.486-0.3404,0.5735c-0.0486,0.1118-0.0659,0.1395-0.0865,0.1826
		c-0.0234,0.0489-0.0344,0.099-0.0459,0.1749l-0.0055,0.0694c0.0022,0.1299,0.0367,0.2527,0.0652,0.4783
		c0.0151,0.1125,0.1051,0.5651,0.2912,1.3115c0.5577,2.2302,1.9685,7.0005,4.6844,12.0858c0.0781,0.146,0.1309,0.2797,0.1806,0.3883
		l0.0843,0.1504c0.0325,0.0437,0.0961,0.108,0.1986,0.1093c0.0698-0.0013,0.1128-0.0328,0.1389-0.0559l0.0929-0.126
		c0.0707-0.1299,0.1408-0.3144,0.2153-0.45c0.2552-0.47,5.2782-9.9288,10.1323-14.7814c0.1386-0.1389,0.2164-0.2167,0.2733-0.2996
		c0.0604-0.0823,0.0781-0.1884,0.0755-0.2623V64.901c-0.0019-0.1094-0.0366-0.2115-0.0832-0.3363
		c-0.0476-0.1234-0.1103-0.2623-0.1781-0.4082c-2.6841-5.7809-4.7038-11.7643-4.8288-12.0922
		c-0.062-0.1626-0.119-0.2976-0.1691-0.3992l-0.0723-0.1299l-0.0418-0.054l-0.0881-0.0572L30.2865,51.5802l-0.0511,0.1562
		l0.0354-0.1086l-0.0843,0.0803l0.0489,0.0283l0.0354-0.1086l-0.0843,0.0803h0.0003c0.0097,0.0109,0.0447,0.0707,0.082,0.153
		c0.0382,0.083,0.0839,0.1922,0.1328,0.3202c0.118,0.3099,2.146,6.3177,4.8378,12.114c0.0669,0.1434,0.127,0.2771,0.1688,0.387
		c0.0427,0.1074,0.0637,0.198,0.0617,0.2186v0.0019c-0.0038,0.0623,0.0017,0.0418-0.0193,0.0797
		c-0.0241,0.0373-0.0961,0.1144-0.233,0.2507c-4.9114,4.9143-9.9278,14.3822-10.1882,14.856
		c-0.0682,0.1254-0.1257,0.2642-0.1743,0.3677l-0.0594,0.1132l-0.0068,0.0097l0.0367,0.0302l-0.0267-0.0386l-0.01,0.0084
		l0.0367,0.0302l-0.0267-0.0386l0.072,0.1035v-0.1248l-0.072,0.0213l0.072,0.1035v-0.1248v0.1016l0.0569-0.0849l-0.0569-0.0167
		v0.1016l0.0569-0.0849l-0.0328,0.0489l0.0411-0.0425l-0.0084-0.0065l-0.0328,0.0489l0.0411-0.0425h-0.0007h0.0007l0,0h-0.0007
		h0.0007c-0.0093-0.009-0.0438-0.0758-0.0817-0.1652c-0.0395-0.09-0.089-0.2057-0.1565-0.3324
		c-1.7988-3.3675-3.0229-6.5999-3.8027-9.0358c-0.3899-1.2183-0.6687-2.2373-0.8528-2.9747
		c-0.1839-0.7342-0.2749-1.1983-0.2842-1.2736c-0.0318-0.2365-0.0646-0.3825-0.0627-0.4359l0.001-0.0167
		c0.0138-0.0803,0.0135-0.0745,0.0193-0.0881c0.009-0.0193,0.0395-0.0726,0.0907-0.1909c0.0125-0.0328,0.1311-0.2353,0.3169-0.5297
		c1.3131-2.0881,6.2528-9.4383,9.7823-13.4352c0.1514-0.1716,0.2462-0.2758,0.3022-0.3285l0.0485-0.0405l-0.0154-0.0257
		l0.0086,0.0283l0.0068-0.0026l-0.0154-0.0257l0.0086,0.0283l-0.0215-0.072v0.0752l0.0215-0.0032l-0.0215-0.072v0.0752v-0.0469
		l-0.0113,0.0456l0.0113,0.0013v-0.0469l-0.0113,0.0456l0.019,0.0058L30.2865,51.5802z M16.0422,81.7731
		c0.1851,1.017,0.4748,0.8904,0.4748,0.8904s5.7443,0.216,5.5977-0.1234c-0.4092-0.9463-3.0193-5.0383-4.4392-10.728
		c-0.1533-0.6146-0.7203-2.4887-0.8286-2.9843c0,0-0.1151,0.198-0.2922,1.0421C16.5546,69.8699,15.5099,78.8486,16.0422,81.7731z
		 M16.5546,69.8699l0.161,0.0341c0.0878-0.4179,0.1594-0.6731,0.208-0.8203c0.0241-0.0739,0.0424-0.1202,0.0537-0.1473
		l0.0116-0.0257h0.0003l-0.1424-0.0829l-0.1608,0.0353c0.1122,0.5118,0.6783,2.3813,0.8297,2.9889
		c0.7136,2.8589,1.7252,5.3141,2.6098,7.1734c0.8827,1.8561,1.6451,3.1316,1.838,3.5803l0.1219-0.0527H21.953l0.0103,0.0521
		l0.1222-0.0521H21.953h0.1276l-0.0912-0.0919l-0.0367,0.0919h0.1279l-0.0912-0.0919l0.0546,0.0546l-0.0428-0.0649l-0.0119,0.0103
		l0.0546,0.0546l-0.0428-0.0649l0.002,0.0032l-0.0016-0.0032h-0.0003l0.002,0.0032l-0.0016-0.0032
		c-0.0148,0.009-0.108,0.0334-0.2336,0.0482c-0.3839,0.0502-1.1081,0.0681-1.8901,0.0675c-0.7773,0-1.6166-0.0167-2.2608-0.0334
		c-0.6445-0.0174-1.0926-0.0341-1.0939-0.0341l-0.0377-0.0013l-0.0344,0.0147l0.0344,0.0791V82.504l-0.0344,0.0084l0.0344,0.0791
		V82.504v0.029l0.0077-0.0283l-0.0077-0.0007v0.029l0.0077-0.0283l-0.0202-0.0142c-0.0498-0.0398-0.1765-0.2282-0.2687-0.7471
		c-0.1051-0.5747-0.1488-1.413-0.1485-2.3748c-0.0003-1.8888,0.1652-4.2611,0.3311-6.1583
		c0.0829-0.9489,0.1656-1.7795,0.2279-2.3729c0.0621-0.5934,0.1032-0.9476,0.1032-0.9476L16.5546,69.8699l0.161,0.0341
		L16.5546,69.8699l-0.1636-0.0193c0,0.0032-0.6641,5.7057-0.6644,9.518c0,0.9727,0.0424,1.8213,0.1537,2.434
		c0.0772,0.4198,0.1704,0.6622,0.2729,0.8152c0.0987,0.153,0.233,0.2179,0.3324,0.2153l0.0971-0.0186l-0.0656-0.1511l-0.0061,0.1646
		c0.001,0,1.803,0.0675,3.3669,0.0675c0.5972,0,1.1591-0.0096,1.577-0.0373c0.2095-0.0142,0.3818-0.0321,0.512-0.0579
		c0.0659-0.0128,0.1202-0.027,0.1726-0.0508l0.082-0.0553c0.028-0.0264,0.0611-0.0791,0.0608-0.1415l-0.0161-0.0778
		c-0.2167-0.4983-0.964-1.7416-1.8435-3.5912c-0.8779-1.8457-1.8811-4.281-2.5873-7.1117
		c-0.1556-0.6217-0.7232-2.5002-0.8277-2.9798l-0.0903-0.4134l-0.2128,0.3658c-0.0151,0.0283-0.1311,0.2379-0.3108,1.091
		l-0.0016,0.0077l-0.0009,0.007L16.5546,69.8699z M37.3362,68.2234c-0.0411-0.0205-0.0402-0.0347-0.3838,0.3086
		c-3.6291,3.6291-8.4062,12.6309-8.6977,13.1819c-0.2916,0.5509-0.6153,0.8428-0.3887,0.8428
		c0.2267,0,17.9859,0.0193,18.0833,0.0193c0,0,0.1646-0.603-0.0997-0.6673c-0.7104-0.1729-8.0943-12.8881-8.2564-13.2121
		C37.4313,68.3726,37.3362,68.2234,37.3362,68.2234z M37.3362,68.2234l0.0736-0.1472c-0.0007,0.0013-0.0344-0.0251-0.0993-0.0263
		l-0.1196,0.0373c-0.0768,0.0508-0.1511,0.1267-0.3549,0.3285c-1.8348,1.8361-3.9364,4.9979-5.6246,7.7764
		c-1.687,2.7773-2.9554,5.1676-3.1023,5.4447c-0.1067,0.2019-0.2189,0.3691-0.3076,0.5028c-0.0444,0.0669-0.0829,0.1253-0.1138,0.18
		c-0.0289,0.0566-0.0585,0.101-0.0623,0.1891c-0.0045,0.0533,0.0328,0.1395,0.0932,0.1742l0.1475,0.0386
		c0.2263,0,17.9856,0.0193,18.0833,0.0193h0.1257l0.0331-0.1215c0.0013-0.007,0.0556-0.1986,0.0562-0.405
		c-0.0003-0.0836-0.0077-0.1704-0.0434-0.2578c-0.0328-0.0862-0.1147-0.1806-0.2324-0.2076l-0.0148,0.0604l0.0257-0.0566
		l-0.0109-0.0038l-0.0148,0.0604l0.0257-0.0566l-0.0128-0.009c-0.0845-0.0578-0.3124-0.3285-0.5937-0.7245
		c-0.9997-1.3964-2.858-4.4334-4.4787-7.1497c-0.811-1.3585-1.5632-2.6371-2.1216-3.5944c-0.279-0.4783-0.5095-0.8763-0.6744-1.1631
		c-0.1639-0.2841-0.2671-0.4667-0.2777-0.4885c-0.1646-0.3292-0.2626-0.4835-0.2655-0.4886l-0.0247-0.0379l-0.0405-0.0206
		L37.3362,68.2234l-0.1388,0.0887c0,0,0.0209,0.0321,0.0633,0.1074c0.0428,0.0752,0.1058,0.1909,0.1855,0.3504
		c0.0273,0.054,0.1566,0.281,0.3767,0.6629c0.7667,1.3276,2.5825,4.4295,4.2856,7.2209c0.8515,1.3951,1.6748,2.7124,2.3253,3.6928
		c0.3257,0.4905,0.6076,0.8962,0.8309,1.1881c0.1116,0.1459,0.2084,0.2629,0.2916,0.351c0.0887,0.0868,0.1405,0.1479,0.2546,0.1832
		l0.0013-0.0058l-0.0036,0.0039l0.0022,0.0019l0.0013-0.0058l-0.0036,0.0039l0.0155,0.0373l0.0112,0.1099
		c0.0003,0.0726-0.0109,0.1549-0.0224,0.2173c-0.0116,0.0623-0.0225,0.1009-0.0225,0.1009l0.1591,0.0437v-0.1646
		c-0.0971,0-17.8564-0.0193-18.0833-0.0193l-0.0006,0.0007l-0.0222,0.1061l0.0784-0.0714l-0.0562-0.0347l-0.0222,0.1061
		l0.0784-0.0714l-0.0897,0.081h0.1224l-0.0328-0.081l-0.0897,0.081h0.1224h-0.0707l0.0691,0.0167l0.0016-0.0167h-0.0707
		l0.0691,0.0167l0.007-0.0167c0.0447-0.0984,0.2511-0.3614,0.4401-0.7175c0.145-0.2739,1.4108-2.6596,3.0926-5.4286
		c1.6806-2.7677,3.7819-5.921,5.5761-7.7141c0.1325-0.1324,0.2135-0.2109,0.2594-0.2513l0.0376-0.0309l-0.0553-0.0881v0.101
		l0.0553-0.0129l-0.0553-0.0881v0.101v-0.1299l-0.0485,0.1209l0.0485,0.009v-0.1299l-0.0485,0.1209l0.0007,0.0007L37.3362,68.2234
		l-0.1388,0.0887L37.3362,68.2234z M40.062,65.8576c0,0,5.0711,9.3605,9.9469,15.7863c0.1832,0.2411,0.3497,0.4455,0.3497,0.4455
		l0.8641-0.0205c0,0,0.3774-0.398,0.5966-0.6172c0.2192-0.2192,3.6619-3.5796,14.1951-9.4634
		c0.3259-0.182,0.2469-0.1852,0.3086-0.2469c0,0-0.1028-0.3086-0.2674-0.6313c-0.146-0.2854-8.0783-17.9187-8.1879-18.1103
		c-0.0823-0.144-0.2334-0.2095-0.2675-0.2263c-0.0829-0.0411-0.2086-0.0193-0.3908,0.072
		c-9.0108,4.4951-16.5182,11.8285-16.993,12.2304c-0.1337,0.1132-0.324,0.2777-0.3292,0.3561
		C39.8769,65.5902,40.062,65.8576,40.062,65.8576z M39.8872,65.432l0.1643,0.0109l-0.0739-0.0051l0.0678,0.0328l0.0061-0.0276
		l-0.0739-0.0051l0.0678,0.0328l0.0974-0.1099l0.18-0.1594c0.1299-0.1099,0.6799-0.6365,1.5915-1.451
		c2.7284-2.4378,8.6331-7.3978,15.3684-10.7575c0.1118-0.0566,0.1916-0.0758,0.224-0.0746l0.0203,0.0026
		c0.0389,0.0174,0.1482,0.072,0.1977,0.1608l0.0097-0.0051l-0.01,0.0045l0.0007,0.0007l0.0093-0.0051l-0.01,0.0045
		c0.109,0.2179,2.1228,4.6809,4.121,9.1111c0.9997,2.2167,1.9965,4.4276,2.7525,6.1024c0.3783,0.837,0.696,1.5403,0.9242,2.0431
		c0.2289,0.5053,0.3633,0.8004,0.387,0.848c0.0791,0.1542,0.144,0.3079,0.189,0.4217c0.0447,0.1138,0.0688,0.1864,0.0688,0.1864
		l0.1562-0.0521l-0.1163-0.1164l-0.0569,0.0772l-0.0042,0.0077l0.0055,0.0032l-0.0048-0.0045l-0.0007,0.0013l0.0055,0.0032
		l-0.0048-0.0045c-0.0036,0.0058-0.0566,0.0502-0.2122,0.1356c-10.5431,5.8896-13.9977,9.2577-14.2311,9.491
		c-0.2221,0.2224-0.5991,0.6197-0.5998,0.6204l0.1196,0.1132l-0.0038-0.1646l-0.8641,0.0205l0.0038,0.1646l0.1277-0.1041
		c0,0-0.1649-0.2025-0.3462-0.441c-2.4314-3.2042-4.9162-7.147-6.7915-10.2875c-0.938-1.57-1.7236-2.94-2.2746-3.9172
		c-0.551-0.9766-0.8663-1.559-0.8673-1.5604l-0.0041-0.0077l-0.0051-0.0077l-0.0232-0.0354l-0.0823-0.1511l-0.0405-0.1325
		l-0.0003-0.0006l0.0003-0.002v0.0007L39.8872,65.432l-0.1642-0.0122l-0.0007,0.025c0.0032,0.1376,0.0588,0.2482,0.1064,0.3427
		c0.0488,0.0926,0.0958,0.1601,0.098,0.164l0.1353-0.0939l-0.1446,0.0784c0.0022,0.0032,5.073,9.3657,9.9604,15.8075
		c0.1851,0.2437,0.3526,0.4488,0.3533,0.45l0.0508,0.0624l1.0132-0.0244l0.0473-0.0495c0.0003-0.0007,0.377-0.398,0.5933-0.614
		c0.2051-0.2051,3.6359-3.5577,14.1591-9.4363c0.1677-0.0945,0.2391-0.1427,0.2941-0.2006l0.0505-0.0727v-0.0007l0.072-0.072
		l-0.0322-0.0965c-0.0016-0.0045-0.1061-0.3182-0.2771-0.6538c-0.0125-0.0238-0.1562-0.3381-0.386-0.8454
		c-0.8084-1.784-2.7342-6.0573-4.4697-9.9044c-0.8676-1.9235-1.6879-3.741-2.2971-5.0885c-0.3047-0.6731-0.5567-1.2292-0.7355-1.622
		c-0.0893-0.1968-0.1607-0.3523-0.2112-0.4623l-0.0598-0.1292l-0.0325-0.0656c-0.1147-0.1993-0.308-0.2758-0.3379-0.2925
		l-0.1659-0.0367c-0.1195,0.0013-0.235,0.0425-0.3709,0.1093c-4.5208,2.2553-8.6582,5.2184-11.7267,7.6691
		c-1.534,1.2248-2.8008,2.3215-3.714,3.1374c-0.911,0.8139-1.4777,1.3552-1.585,1.4459c-0.0675,0.0572-0.1511,0.1286-0.2228,0.1999
		l-0.098,0.1118c-0.0273,0.0405-0.0575,0.0778-0.0662,0.1588L39.8872,65.432l-0.1642-0.0122L39.8872,65.432z M84.4329,44.6955
		c-0.3292-0.055-0.4384,0.0209-0.6853,0.0546c-11.438,1.5635-20.2945,5.4247-22.2181,6.1962
		c-0.2704,0.108-0.5452,0.2057-0.576,0.2777c-0.0405,0.0939,0.0514,0.3086,0.2366,0.6789
		c0.4545,0.9084,8.0271,17.6204,8.1467,17.8365c0.1542,0.2777,0.216,0.4217,0.3394,0.5863c0.0469,0.063,0.2301-0.0142,0.4629-0.1132
		c5.7664-2.4546,11.249-4.4231,18.5973-5.651c0.4976-0.0835,0.4874-0.0758,0.5555-0.2365c0.0309-0.072,0.0282-0.1041-0.0926-0.6687
		c-1.5018-7.0011-3.6131-15.2031-4.4643-18.3301C84.5756,44.7402,84.4329,44.6955,84.4329,44.6955z M84.4329,44.6955l0.027-0.1623
		c-0.09-0.0151-0.1684-0.0215-0.2391-0.0215c-0.2161,0.0012-0.3356,0.0553-0.4951,0.0755
		c-11.4612,1.5661-20.336,5.436-22.2576,6.2062c-0.133,0.0533-0.27,0.1048-0.3828,0.1549l-0.1527,0.0765
		c-0.044,0.0309-0.0891,0.0515-0.1305,0.1344l-0.0225,0.1183c0.0016,0.0984,0.0322,0.1871,0.0765,0.2996
		c0.045,0.1106,0.108,0.2417,0.1868,0.3993c0.2224,0.4448,2.2324,4.8564,4.1965,9.1727c0.9824,2.1595,1.9544,4.2971,2.6883,5.9082
		c0.3671,0.8055,0.6745,1.4799,0.8937,1.9595c0.1099,0.2398,0.1974,0.4307,0.2597,0.5658c0.0643,0.1376,0.0958,0.207,0.1118,0.2366
		c0.1511,0.2706,0.2147,0.4217,0.3517,0.6056c0.0565,0.0746,0.1408,0.0893,0.1916,0.0881c0.081-0.0013,0.146-0.0232,0.2231-0.0495
		c0.0752-0.027,0.1569-0.0623,0.2443-0.099c5.7612-2.4527,11.2272-4.4148,18.56-5.6408c0.2508-0.0431,0.3677-0.0566,0.4758-0.0996
		l0.1414-0.1106l0.063-0.1234l0.0296-0.1427c-0.0013-0.1112-0.0322-0.2417-0.1132-0.6255
		c-1.5018-7.0063-3.6143-15.2083-4.4655-18.3385c-0.0836-0.3041-0.1633-0.4768-0.2327-0.5825
		c-0.0681-0.1051-0.1325-0.1479-0.18-0.1623l-0.0103-0.0032l-0.0116-0.0019L84.4329,44.6955l-0.0489,0.1572l0.027-0.0846
		l-0.0591,0.0695l0.0321,0.0151l0.027-0.0846l-0.0591,0.0695c0.0051,0.001,0.1105,0.1077,0.225,0.5317
		c0.8499,3.1238,2.9611,11.3259,4.4617,18.3219c0.0823,0.3767,0.108,0.5233,0.1055,0.5561v0.0051L89.1415,64.26l-0.0296,0.063
		l0.0142,0.0097l-0.009-0.0148l-0.0052,0.0051l0.0142,0.0097l-0.009-0.0148c-0.0039,0.0084-0.1286,0.0373-0.4076,0.0816
		c-7.3637,1.2299-12.863,3.2049-18.6346,5.6614c-0.0868,0.0373-0.1652,0.07-0.2276,0.0926
		c-0.0604,0.0231-0.1099,0.0321-0.1113,0.0302v0.0623l0.0212-0.0572l-0.0212-0.0051v0.0623l0.0212-0.0572l-0.0392,0.1054
		l0.09-0.0668l-0.0508-0.0386l-0.0392,0.1054l0.09-0.0668c-0.1099-0.146-0.1697-0.2829-0.3273-0.5677l-0.034,0.0186l0.0347-0.0174
		l-0.0007-0.0013l-0.034,0.0186l0.0347-0.0174c-0.0167-0.0315-0.1569-0.335-0.3787-0.8209
		c-1.5645-3.4183-7.3643-16.2081-7.7655-17.011c-0.0775-0.1543-0.1376-0.2803-0.1765-0.3761
		c-0.0395-0.0945-0.0537-0.1626-0.0521-0.1755h-0.0003l0,0l0,0l0,0l0,0l-0.0546-0.0103l0.0508,0.0225l0.0038-0.0122l-0.0546-0.0103
		l0.0508,0.0225l-0.0743-0.0328l0.055,0.0623l0.0196-0.0302l-0.0746-0.0321l0.055,0.0623c0.0029-0.0058,0.0784-0.0488,0.172-0.0868
		c0.0949-0.0406,0.2134-0.0855,0.3334-0.1331c1.9258-0.7727,10.7639-4.6256,22.1802-6.1863c0.2083-0.0305,0.3034-0.0739,0.45-0.0723
		c0.0501,0,0.1093,0.0045,0.1851,0.017L84.4329,44.6955l-0.0489,0.1572L84.4329,44.6955z M88.3019,45.0247
		c1.2613,3.6754,4.2508,17.6924,4.3331,18.1585s0.1646,0.6313,0.1646,0.6313c0.1376,0.0823,0.6043-0.0386,0.8512-0.0553
		c0.4115-0.027,8.9144-1.2344,18.2402,1.1797c0.3189,0.0829,0.8525,0.2018,1.0158,0.1369c0.1363-0.0546,0.1581-0.7136,0.1646-0.9322
		c0.027-0.8782,0.3845-6.2001-1.4812-15.7175c-0.0926-0.4706-0.1106-0.3292-0.2199-0.5214
		c-0.1106-0.1922-0.3523-0.3015-0.6853-0.4391c-8.8334-3.6481-21.1731-3.2093-21.6424-3.2093c-0.4937,0-0.7406,0.0276-0.8512,0.2195
		C88.1913,44.476,88.163,44.6219,88.3019,45.0247z M88.1913,44.476l0.1427,0.082c0.0309-0.0485,0.0604-0.0746,0.1749-0.1032
		c0.1118-0.0257,0.2893-0.0341,0.5336-0.0338c0.0977,0,0.6287-0.0164,1.4992-0.0164c3.6131-0.0017,13.0019,0.288,20.0802,3.2135
		c0.3355,0.1344,0.5413,0.2456,0.6056,0.3684l0.0861,0.1234l0.0425,0.0579c0.0142,0.0328,0.0386,0.1176,0.072,0.2899
		c1.3141,6.7022,1.5224,11.3162,1.5224,13.758c0,1.0215-0.036,1.6593-0.0437,1.9229c-0.0039,0.1086-0.0103,0.324-0.0322,0.5136
		c-0.0115,0.0939-0.027,0.182-0.0437,0.2392l-0.0205,0.0553l-0.0013,0.0019l0.0656,0.0476l-0.0296-0.0733l-0.036,0.0257
		l0.0656,0.0476l-0.0296-0.0733l-0.0193,0.0038l-0.0579,0.0032c-0.1928,0.0013-0.5876-0.0849-0.8358-0.1504
		c-4.6545-1.2048-9.1008-1.5102-12.4477-1.5108c-1.6921,0.0006-3.1039,0.0784-4.1184,0.1588
		c-1.0106,0.0797-1.6394,0.162-1.7268,0.1678c-0.207,0.0154-0.5143,0.0842-0.6841,0.0829l-0.0617-0.0038l-0.0129-0.0032
		l-0.0064,0.0193l0.0103-0.0174l-0.0039-0.0019l-0.0064,0.0193l0.0103-0.0174l-0.0848,0.1415l0.1479-0.0733l-0.0591,0.0296
		l0.0591-0.0283v-0.0013l-0.0591,0.0296l0.0591-0.0283c-0.0013-0.0032-0.0746-0.162-0.1504-0.5883
		c-0.0862-0.4822-3.0705-14.4786-4.3395-18.1829c-0.0939-0.2732-0.1041-0.4124-0.1041-0.4558l0.0013-0.0147l-0.0707-0.0065
		l0.0695,0.0138l0.0013-0.0074l-0.0707-0.0065l0.0695,0.0138L88.1913,44.476l0.1427,0.082L88.1913,44.476l-0.1607-0.0321
		l-0.0065,0.0716c0,0.0904,0.0193,0.2639,0.1221,0.5625c1.2524,3.6465,4.2483,17.6841,4.3267,18.1335
		c0.0849,0.4783,0.171,0.6583,0.18,0.6763l0.0206,0.0431l0.0411,0.0244c0.0862,0.0483,0.1607,0.0502,0.2404,0.0521
		c0.2327-0.0013,0.5439-0.0745,0.7059-0.0842c0.1209-0.0084,0.72-0.0881,1.732-0.1678c1.0068-0.0797,2.4095-0.1575,4.0913-0.1569
		c3.3263-0.0006,7.7469,0.3041,12.3654,1.4999c0.2623,0.0668,0.6519,0.1588,0.918,0.1607c0.0694-0.0007,0.1312-0.0045,0.1993-0.0302
		c0.0707-0.0302,0.1041-0.0778,0.1273-0.1176c0.0759-0.1388,0.0939-0.3124,0.1145-0.4995c0.018-0.1839,0.0231-0.3664,0.027-0.4629
		c0.0077-0.2546,0.0437-0.9058,0.0437-1.9332c0-2.461-0.2109-7.0976-1.5288-13.821c-0.0476-0.2392-0.0733-0.335-0.1247-0.4211
		l-0.0643-0.081l-0.0489-0.0694c-0.1569-0.2617-0.4333-0.3691-0.765-0.5099c-7.1631-2.956-16.5726-3.2366-20.2062-3.2379
		c-0.8717,0-1.4157,0.0164-1.4992,0.0164c-0.2508,0.0003-0.4423,0.0058-0.6057,0.0418c-0.1607,0.0334-0.3086,0.117-0.3883,0.2604
		l-0.0128,0.0234l-0.0051,0.0264L88.1913,44.476z M115.6223,50.9219c0.1093,0.6853,1.2613,8.2843,0.7946,14.8123
		c-0.0193,0.2752-0.054,0.5214,0.0823,0.686c0.1762,0.2109,0.3575,0.2192,0.6866,0.3568c0.3922,0.1633,5.3206,1.8927,10.0664,7.104
		c0.4461,0.4905,0.5182,0.9013,0.7406,0.7683c0.1376-0.0823,0.1118-0.713,0.1093-0.9875
		c-0.054-7.6254-1.5031-14.5898-1.6137-15.0559c-0.1093-0.4668-0.1672-0.4546-0.3562-0.7683
		c-0.2469-0.4114-0.3845-0.4391-0.4668-0.6037s-5.1611-4.6385-9.4132-7.0795c-0.3356-0.1935-0.6583-0.4937-0.7946-0.3568
		C115.4577,49.7975,115.522,50.2932,115.6223,50.9219z M115.4577,49.7975l0.1157,0.1163l-0.0348-0.0347l0.018,0.0456l0.0167-0.0109
		l-0.0348-0.0347l0.018,0.0456l-0.0103-0.0276v0.0302l0.0103-0.0026l-0.0103-0.0276v0.0302
		c0.0039-0.0057,0.108,0.0334,0.2212,0.1099c0.1157,0.0746,0.2546,0.1743,0.4024,0.2598c2.1138,1.2131,4.4424,2.938,6.2502,4.3794
		c0.9039,0.7207,1.678,1.37,2.2296,1.8496c0.2764,0.2392,0.4976,0.4365,0.6506,0.5773c0.0772,0.0708,0.1363,0.1273,0.1775,0.1678
		l0.0437,0.0457l0.0077,0.009l0.0797-0.0637l-0.09,0.045l0.0103,0.0186l0.0797-0.0637l-0.09,0.045
		c0.0579,0.1151,0.1311,0.1774,0.1993,0.2494c0.0707,0.0739,0.1556,0.1697,0.2726,0.3658c0.1003,0.1646,0.1633,0.2443,0.2044,0.3208
		c0.0425,0.0772,0.0797,0.1723,0.1337,0.4005c0.1068,0.4526,1.5546,7.4152,1.6086,15.0192
		c0.0013,0.0817,0.0039,0.1903,0.0039,0.3054c0,0.1402-0.0052,0.2912-0.0193,0.4057l-0.0271,0.1311l-0.009,0.0213l0.0527,0.0334
		l-0.0309-0.0521l-0.0219,0.0187l0.0527,0.0334l-0.0309-0.0521l-0.0065,0.0039l0.0116,0.0347v-0.0366l-0.0116,0.0019l0.0116,0.0347
		v-0.0366v0.0392l0.0193-0.0347l-0.0193-0.0045v0.0392l0.0193-0.0347c-0.0064,0.0032-0.0797-0.0842-0.1659-0.2231
		c-0.0912-0.1388-0.2134-0.324-0.3934-0.5207c-2.3852-2.6204-4.8166-4.3652-6.7028-5.4761
		c-1.8823-1.1097-3.2337-1.5912-3.4214-1.669c-0.1736-0.0726-0.3061-0.1106-0.3999-0.1511
		c-0.0952-0.0411-0.1517-0.0752-0.2225-0.1594c-0.0437-0.0501-0.0643-0.1286-0.0643-0.2558c0-0.0894,0.0103-0.1955,0.0193-0.3125
		c0.0784-1.0955,0.1106-2.2199,0.1106-3.3359c0-5.5655-0.8165-10.9382-0.9078-11.5143c-0.1003-0.6268-0.1633-1.1186-0.1633-1.1199
		L115.4577,49.7975l0.1157,0.1163L115.4577,49.7975l-0.1633,0.0212c0,0.0013,0.0643,0.4976,0.1646,1.129
		c0.0913,0.5651,0.9052,5.9287,0.904,11.4628c0,1.1096-0.0322,2.2263-0.1093,3.3122c-0.009,0.1113-0.0206,0.2238-0.0206,0.3363
		c0,0.1549,0.0232,0.3246,0.1402,0.4667c0.1041,0.1267,0.2263,0.2019,0.3484,0.2521c0.1221,0.0514,0.2443,0.0861,0.3999,0.151
		c0.2057,0.0855,1.5159,0.5504,3.3816,1.649c1.8631,1.0974,4.2676,2.823,6.6269,5.4138c0.1839,0.2018,0.3009,0.3889,0.3986,0.5368
		c0.0489,0.0746,0.0926,0.1395,0.1466,0.1961c0.0514,0.0546,0.1298,0.1145,0.2379,0.1145c0.0617,0.0006,0.117-0.0206,0.1646-0.0483
		c0.081-0.0533,0.1067-0.1189,0.1299-0.1787c0.0578-0.1787,0.0604-0.4211,0.063-0.6435c0-0.1196-0.0026-0.2308-0.0039-0.308
		c-0.0553-7.6466-1.5057-14.6129-1.6175-15.0926c-0.0566-0.2385-0.1029-0.3703-0.1646-0.4828
		c-0.0618-0.1118-0.1222-0.1832-0.2109-0.3323c-0.1286-0.2154-0.2366-0.3395-0.3176-0.4237
		c-0.0823-0.0855-0.1183-0.119-0.1427-0.1684l-0.0475-0.0656c-0.1106-0.1195-0.4822-0.4583-1.0621-0.9579
		c-1.7346-1.4916-5.2627-4.3415-8.3692-6.1255c-0.1286-0.0739-0.2623-0.1697-0.3896-0.2514
		c-0.1311-0.0791-0.2417-0.1556-0.3986-0.162c-0.0681-0.0019-0.1504,0.0257-0.2057,0.083l-0.0565,0.0572l0.0103,0.0804
		L115.4577,49.7975z M116.17,71.0008c-0.4115,4.499-1.6728,10.1217-1.7821,10.5062c-0.1093,0.3845-0.3022,0.9875-0.3022,0.9875
		l13.0289-0.1922c0,0,0.2199-0.9328,0.3845-1.6458s0.0553-0.1922,0.0553-0.4391s-0.1106-0.3176-0.2752-0.576
		c-3.8677-6.0895-9.5933-8.9388-10.0934-9.1889c-0.6043-0.3015-0.8782-0.3298-0.9335-0.2745
		C116.2523,70.1779,116.1932,70.7539,116.17,71.0008z M116.2523,70.1779l0.117,0.1163l-0.0656-0.0656l0.0244,0.0913l0.0411-0.0257
		l-0.0656-0.0656l0.0244,0.0913v-0.0013v0.0013l0,0v-0.0013v0.0013l0.0116-0.0007c0.0746-0.0032,0.3369,0.0604,0.7727,0.2803
		c0.4899,0.2443,6.1885,3.0821,10.0279,9.1298c0.0887,0.1376,0.1594,0.2243,0.1967,0.2887c0.036,0.0642,0.0502,0.0996,0.0527,0.1993
		l0.0064,0.0907l0.0257,0.0662c0.0142,0.0282,0.072,0.0823,0.1453,0.0803c0.0939-0.0064,0.1157-0.0482,0.1311-0.061l0.0296-0.0457
		l0.0026-0.0038l-0.0835-0.0444l0.081,0.0502l0.0026-0.0058l-0.0835-0.0444l0.081,0.0502l-0.1324-0.0823l0.1183,0.1016
		l0.0141-0.0193l-0.1324-0.0823l0.1183,0.1016l-0.1234-0.1061l0.0964,0.1305l0.0271-0.0244l-0.1234-0.1061l0.0964,0.1305
		l-0.0977-0.1324v0.1646l0.0977-0.0321l-0.0977-0.1324v0.1646V80.261l-0.1118,0.1209l0.1118,0.0437V80.261l-0.1118,0.1209
		l0.1118-0.1209l-0.1607,0.0309l0.0489,0.09l0.1118-0.1209l-0.1607,0.0309l0.1581-0.0302h-0.162l0.0039,0.0302l0.1581-0.0302h-0.162
		h0.126l-0.1234-0.0232l-0.0026,0.0232h0.126l-0.1234-0.0232c-0.0026,0.0122-0.027,0.1144-0.0887,0.3806
		c-0.1646,0.713-0.3831,1.6439-0.3831,1.6452l0.1595,0.0379l-0.0026-0.1646l-13.0289,0.1922l0.0026,0.1646l0.1569,0.0501
		c0,0,0.1928-0.6036,0.3034-0.9926c0.0591-0.2083,0.3999-1.7024,0.7818-3.7249c0.3806-2.0193,0.7997-4.553,1.0068-6.8114
		c0.0219-0.2443,0.081-0.8197,0.0823-0.821L116.2523,70.1779l0.117,0.1163L116.2523,70.1779l-0.1633-0.0167
		c0,0-0.0604,0.5754-0.0823,0.8248c-0.2057,2.2405-0.6224,4.767-1.003,6.7806c-0.3793,2.0097-0.7239,3.5192-0.7741,3.6954
		c-0.108,0.38-0.3009,0.981-0.3009,0.9824l-0.0695,0.218l13.3863-0.1974l0.0296-0.1248c0,0,0.2186-0.9335,0.3832-1.6465
		c0.036-0.153,0.0579-0.2488,0.072-0.308l0.0155-0.0656l0.0077-0.0585l-0.0077-0.0521l-0.045-0.0695l-0.1119-0.0437
		c-0.099,0.0096-0.1067,0.0456-0.1209,0.0527l-0.0231,0.0315l-0.0065,0.0116v0.0007l0.0951,0.0565l-0.0823-0.0746l-0.0128,0.018
		l0.0951,0.0565l-0.0823-0.0746l0.1157,0.1055v-0.155c-0.0836,0.0052-0.1041,0.0411-0.1157,0.0495l0.1157,0.1055v-0.155v0.1582
		l0.1337-0.0843c-0.0103-0.0231-0.0642-0.0752-0.1337-0.0739v0.1582l0.1337-0.0843l-0.0951,0.0598l0.1132-0.0142l-0.018-0.0457
		l-0.0951,0.0598l0.1132-0.0142v-0.0276c0.0012-0.1472-0.0399-0.2706-0.099-0.3677c-0.0592-0.0977-0.1247-0.1755-0.2019-0.297
		c-3.8946-6.1306-9.6485-8.9915-10.159-9.2474c-0.4629-0.2288-0.7342-0.3118-0.9193-0.315
		c-0.0643,0.0026-0.1311,0.0051-0.2032,0.0714l-0.0411,0.0411l-0.0064,0.0585L116.2523,70.1779z M112.7691,68.9988
		c-0.0553-0.1646-0.1479-0.1504-0.6853-0.3845c-0.6313-0.2739-7.4061-2.6333-17.5279-1.5635
		c-0.3292,0.0347-0.6866,0.1099-1.0428,0.1922c-0.0965,0.0225-0.0566,0.0919,0.0553,0.713
		c0.9592,5.3765,1.5185,13.4455,1.5635,13.7155c0.0823,0.4937,0.1093,0.7952,0.1093,0.7952l15.1684,0.1099
		c0,0,0.0553,0.0019,0.2752-0.7136c0.2186-0.713,1.4529-4.3614,2.0843-12.0414C112.8077,69.3537,112.7691,68.9988,112.7691,68.9988z
		 M112.7691,68.9988l0.1556-0.0521l-0.0926-0.1594c-0.0707-0.0701-0.1466-0.1016-0.2469-0.144
		c-0.1016-0.0417-0.2379-0.0932-0.4359-0.18c-0.2777-0.1196-1.5623-0.5793-3.6928-1.0145c-2.128-0.434-5.0917-0.839-8.7009-0.839
		c-1.6162,0-3.3611,0.081-5.2177,0.2771C94.1972,66.9235,93.8346,67,93.4758,67.083l-0.135,0.0823l-0.0463,0.155
		c0.0026,0.1279,0.045,0.2835,0.1118,0.6647c0.4783,2.6802,0.8576,6.0387,1.1225,8.7594c0.1324,1.361,0.2365,2.5619,0.3099,3.4401
		c0.0373,0.4391,0.0668,0.7972,0.0874,1.0543c0.0231,0.2604,0.0347,0.4057,0.0424,0.4597c0.0411,0.2443,0.0681,0.441,0.0849,0.576
		c0.0167,0.135,0.0232,0.207,0.0232,0.207l0.0141,0.1485l15.4834,0.1125v-0.1658l0,0h-0.1646v0.1646
		c0.0964-0.0071,0.1221-0.0527,0.1427-0.0759c0.0565-0.0784,0.1209-0.2121,0.2893-0.7541
		c0.2198-0.7136,1.4606-4.3858,2.0906-12.0761c0.0141-0.1614,0.018-0.3092,0.018-0.4346c0-0.252-0.018-0.4153-0.018-0.4198
		l-0.0013-0.0173l-0.0065-0.0167L112.7691,68.9988l-0.1646,0.018c0,0,0.0038,0.0341,0.009,0.1016
		c0.0038,0.0669,0.0077,0.1639,0.0077,0.2822c0,0.1176-0.0039,0.2565-0.0167,0.4076c-0.63,7.6691-1.8592,11.2943-2.0779,12.0066
		c-0.108,0.3517-0.1749,0.5259-0.2109,0.6031l-0.0193,0.0398l-0.0051,0.0084l0.081,0.0565l-0.0618-0.0765l-0.0193,0.02l0.081,0.0565
		l-0.0618-0.0765l0.099,0.1234v-0.1575l-0.099,0.034l0.099,0.1234v-0.1575l-0.1157,0.0482l-0.0488,0.1164l0,0h0.1646l0.0013-0.1646
		l-15.1685-0.1099l-0.0012,0.1646l0.1633-0.0148c0-0.0032-0.027-0.3086-0.1105-0.8074c-0.0026-0.0135-0.018-0.1794-0.0386-0.4333
		c-0.1504-1.7989-0.6827-8.5666-1.5249-13.2842c-0.0695-0.378-0.1106-0.5696-0.1067-0.6068v-0.002l-0.1003-0.0096l0.0695,0.0675
		l0.0309-0.0579l-0.1003-0.0096l0.0695,0.0675l-0.0797-0.0772l0.0476,0.1003l0.0321-0.0232l-0.0797-0.0772l0.0476,0.1003
		l-0.0232-0.0476l0.0128,0.0514l0.0103-0.0038l-0.0232-0.0476l0.0128,0.0514c0.3536-0.0816,0.7059-0.1556,1.0222-0.1883
		c1.8451-0.1954,3.5783-0.2758,5.183-0.2758c3.5848,0,6.5267,0.4024,8.6354,0.8325c2.1061,0.4295,3.3881,0.8898,3.6272,0.9939
		c0.2726,0.1183,0.4371,0.1762,0.5182,0.216l0.0604,0.0354l0.0154,0.0341L112.7691,68.9988l-0.1646,0.018L112.7691,68.9988z
		 M90.0017,67.8468c-0.3009-0.0823-0.5876-0.0109-0.9322,0.0546c-8.7781,1.6735-16.5683,4.8828-16.9515,5.0474
		c-0.3845,0.1646-0.8782,0.4115-0.9605,0.603c0,0,0.1646,0.4937,0.3845,0.9328c0.1556,0.3118,3.5378,7.0493,3.6748,7.3238
		c0.1376,0.2745,0.1646,0.7406,0.1646,0.7406l16.1569-0.0546c0,0,0.2199-0.4115,0.2199-0.686
		c0-0.2745-1.6188-13.1774-1.6188-13.2764C90.1393,68.2852,90.0017,67.8468,90.0017,67.8468z M90.0017,67.8468l0.0437-0.1588
		c-0.1132-0.0309-0.2237-0.0431-0.3317-0.0431c-0.2289,0.0007-0.4449,0.0515-0.675,0.0952
		c-8.7986,1.6773-16.5928,4.8892-16.9856,5.0576c-0.196,0.0835-0.4204,0.1883-0.6114,0.3002
		c-0.1916,0.1176-0.3523,0.2166-0.4352,0.389l-0.0251,0.0572l0.0199,0.0598c0.0013,0.0039,0.1665,0.5014,0.3934,0.9547
		c0.1556,0.3118,3.5379,7.0493,3.6748,7.3232c0.0553,0.1086,0.0965,0.2835,0.1183,0.4256c0.0115,0.0714,0.0186,0.135,0.0231,0.1806
		l0.0058,0.0707l0.009,0.1556l16.4115-0.056l0.0463-0.0862c0.0013-0.0038,0.0591-0.1105,0.117-0.2565
		c0.0579-0.1472,0.1196-0.3279,0.1222-0.5072c-0.0013-0.0411-0.0077-0.0971-0.0193-0.2109c-0.09-0.8255-0.4899-4.0715-0.8679-7.1258
		c-0.189-1.5269-0.3716-3.0056-0.5079-4.1075c-0.0681-0.5516-0.1247-1.0087-0.1633-1.3308
		c-0.0206-0.1607-0.036-0.2887-0.0463-0.3768l-0.0116-0.1016l-0.0026-0.027V68.523l-0.1132,0.009h0.1132v-0.009l-0.1132,0.009
		h0.1132c-0.0039-0.2957-0.1441-0.7258-0.1453-0.7342l-0.0257-0.0862l-0.0874-0.0238L90.0017,67.8468l-0.1569,0.0488
		c0,0.0007,0.0334,0.1048,0.0656,0.2404c0.0334,0.1338,0.0643,0.3009,0.0643,0.396l0.0051,0.0642
		c0.0476,0.4269,0.4513,3.6658,0.8435,6.8353c0.1954,1.5841,0.3883,3.1501,0.5323,4.3363c0.072,0.5933,0.1312,1.0916,0.1736,1.4497
		c0.0206,0.1787,0.0373,0.3228,0.0476,0.4256l0.0128,0.1215l0.0026,0.0347l0.0013,0.009h0.0038h-0.0038l0,0h0.0038h-0.0038
		c0.0012,0.0951-0.0463,0.2578-0.099,0.3845c-0.0257,0.0642-0.0514,0.1215-0.0707,0.1614l-0.0309,0.0623l0.1453,0.0778
		l-0.0013-0.1646l-16.1562,0.0546l0.0007,0.1646l0.1646-0.0097c-0.0032-0.0103-0.0219-0.4764-0.182-0.8049
		c-0.1369-0.2745-3.5192-7.0121-3.6748-7.3232c-0.106-0.2128-0.2012-0.4417-0.2681-0.6172
		c-0.0675-0.1749-0.1074-0.2945-0.1074-0.2945l-0.1562,0.0521l0.1511,0.0649c-0.0007-0.0193,0.1267-0.1395,0.2989-0.2346
		c0.1723-0.1003,0.387-0.2019,0.5754-0.2822c0.3735-0.1608,8.1599-3.3675,16.9174-5.0371c0.2365-0.0456,0.4359-0.0887,0.6133-0.0887
		c0.0836,0,0.1633,0.0097,0.2456,0.0315L90.0017,67.8468l-0.1569,0.0488L90.0017,67.8468z M67.8389,75.1153
		c-0.1376-0.0276-0.8232,0.3568-0.9605,0.4391c-6.4258,3.8522-9.628,5.9796-9.9298,6.2817
		c-0.2694,0.2694-0.2469,0.4384-0.2469,0.4384s14.5104,0.1916,14.5651,0.0823c0.0553-0.1093,0.1929-0.092,0.0553-0.3292
		c-0.3022-0.5207-2.8499-5.8298-2.9894-6.1441C68.1128,75.3898,67.9752,75.1429,67.8389,75.1153z M67.8389,75.1153l0.0328-0.1614
		l-0.0488-0.0045c-0.0952,0.0032-0.1662,0.0328-0.2623,0.0695c-0.2761,0.1132-0.6596,0.3305-0.7669,0.3941
		c-3.2139,1.9268-5.6221,3.4228-7.2654,4.4752c-0.8216,0.5259-1.4519,0.9412-1.8972,1.2446
		c-0.4478,0.3067-0.6978,0.488-0.7988,0.587c-0.2549,0.2527-0.2966,0.4577-0.2957,0.5446l0.0022,0.0328l0.0193,0.1402l0.1415,0.0019
		c0,0,8.7841,0.1157,12.7113,0.1157c0.5606,0,1.0222-0.002,1.3462-0.0077c0.162-0.0026,0.2899-0.0058,0.3799-0.0103l0.1106-0.0077
		l0.045-0.007l0.034-0.0109c0.0142-0.0097,0.045-0.0097,0.0874-0.0804l0.0386-0.0386c0.0309-0.0257,0.0964-0.1061,0.0932-0.2044
		c-0.0013-0.0862-0.0321-0.1563-0.0816-0.2424c-0.1414-0.2443-0.8596-1.7107-1.5494-3.1386
		c-0.6918-1.4298-1.3655-2.8403-1.4317-2.9901c-0.1113-0.2494-0.2019-0.4384-0.2887-0.5793
		c-0.0887-0.1356-0.1678-0.2449-0.3227-0.2835L67.8389,75.1153l-0.0328,0.1614v-0.0013l-0.0007,0.0019l0.0007-0.0007v-0.0013
		l-0.0007,0.0019c0.0142,0.0051,0.072,0.0649,0.1363,0.18c0.0662,0.1138,0.1453,0.279,0.2405,0.4931
		c0.0733,0.1646,0.7432,1.5662,1.4362,2.9998c0.6937,1.435,1.4008,2.8834,1.5616,3.1598l0.0328,0.0675l0.0038,0.0129l0.0129-0.0026
		h-0.0129v0.0026l0.0129-0.0026h-0.0129h0.0656l-0.0565-0.0322l-0.009,0.0322h0.0656l-0.0565-0.0322l0.0399,0.0225l-0.036-0.0283
		l-0.0039,0.0058l0.0399,0.0225l-0.036-0.0283l-0.0064,0.0064c-0.0148,0.0154-0.0656,0.0534-0.1029,0.126l0.1415,0.072
		l-0.0611-0.1472c-0.0109,0.0083-0.0392,0.0064-0.081,0.0758l0.1421,0.0714l-0.0611-0.1472l0.0463,0.1118l-0.027-0.1183
		l-0.0193,0.0065l0.0463,0.1118l-0.027-0.1183l0.0026,0.0116l-0.0019-0.0116h-0.0007l0.0026,0.0116l-0.0019-0.0116
		c-0.0347,0.0065-0.2494,0.0154-0.56,0.0193c-0.3144,0.0038-0.7413,0.0058-1.2498,0.0058c-1.9608,0-5.138-0.029-7.8244-0.0579
		c-1.3433-0.0142-2.5638-0.029-3.4488-0.0399c-0.8849-0.0109-1.4323-0.018-1.4336-0.018l-0.0022,0.1646l0.163-0.0225l-0.0891,0.0122
		h0.09l-0.0009-0.0122l-0.0891,0.0122h0.09l0.0228-0.0752c0.0234-0.0521,0.0729-0.133,0.1765-0.2366
		c0.0501-0.0521,0.3134-0.2501,0.7515-0.5477c1.324-0.9026,4.3292-2.821,9.1464-5.7089c0.0614-0.0373,0.2549-0.1472,0.4484-0.2443
		c0.0967-0.0495,0.1941-0.0951,0.2735-0.1279l0.1012-0.036l0.0302-0.0077l0.007-0.0013l-0.0006-0.0096v0.0096h0.0006l-0.0006-0.0096
		v0.0096V75.195l-0.0167,0.0816l0.0167,0.0019V75.195l-0.0167,0.0816L67.8389,75.1153z"/>
	<path id="lines_2_" fill="#FFFFFF" d="M149.7561,120.4097H0.4241v-2.1704h149.3319V120.4097z M149.5966,82.2237H0.265v2.1711
		h149.3316V82.2237z"/>
	<g id="association_2_">
		<path id="a_5_" fill="#FFFFFF" d="M3.1435,131.3749l-0.3372,1.9492H0.608l2.0958-9.8781h2.7554l1.8027,9.8781H5.0635
			l-0.3224-1.9492H3.1435z M4.5653,129.6308l-0.2494-1.8759c-0.0733-0.5568-0.2051-1.6266-0.2928-2.2424H3.9934
			c-0.1025,0.6159-0.2491,1.7146-0.3369,2.2424l-0.2932,1.8759H4.5653z"/>
		<path id="s_5_" fill="#FFFFFF" d="M16.2576,131.067c0.4249,0.2346,1.1431,0.3812,1.7146,0.3812
			c0.8502,0,1.2311-0.3812,1.2311-0.8795c0-0.6153-0.4101-0.8937-1.2748-1.4067c-1.5976-0.9527-1.8615-2.0373-1.8615-2.7702
			c0-1.6265,1.0553-3.0338,3.3418-3.0338c0.6741,0,1.3189,0.1762,1.6268,0.3517l-0.3227,1.9493
			c-0.2928-0.1755-0.7181-0.3369-1.2897-0.3369c-0.7621,0-1.1286,0.3954-1.1286,0.85c0,0.4249,0.2054,0.7033,1.3192,1.334
			c1.3629,0.7618,1.8174,1.8027,1.8174,2.8139c0,1.8612-1.3925,3.0923-3.4735,3.0923c-0.8503,0-1.6417-0.1909-1.9933-0.3812
			L16.2576,131.067z"/>
		<path id="s_4_" fill="#FFFFFF" d="M30.4562,131.067c0.4249,0.2346,1.143,0.3812,1.7146,0.3812
			c0.8502,0,1.2311-0.3812,1.2311-0.8795c0-0.6153-0.4101-0.8937-1.2748-1.4067c-1.5976-0.9527-1.8615-2.0373-1.8615-2.7702
			c0-1.6265,1.0553-3.0338,3.3417-3.0338c0.6741,0,1.3189,0.1762,1.6265,0.3517l-0.3224,1.9493
			c-0.2928-0.1755-0.7181-0.3369-1.2897-0.3369c-0.7621,0-1.1286,0.3954-1.1286,0.85c0,0.4249,0.2055,0.7033,1.3192,1.334
			c1.363,0.7618,1.8175,1.8027,1.8175,2.8139c0,1.8612-1.3925,3.0923-3.4736,3.0923c-0.8502,0-1.6416-0.1909-1.9933-0.3812
			L30.4562,131.067z"/>
		<path id="o_2_" fill="#FFFFFF" d="M47.645,133.4411c-2.4915,0-3.2829-2.6378-3.2829-5.0853c0-2.4474,1.026-5.0268,3.4147-5.0268
			c2.6821,0,3.2097,2.9605,3.2097,4.8365c0,3.7371-1.3482,5.2755-3.3267,5.2755H47.645z M47.7183,131.4778
			c0.6156,0,0.9087-1.1726,0.9087-3.1952c0-1.7004-0.2347-2.9901-0.9236-2.9901c-0.6592,0-0.9964,1.2896-0.9817,3.0338
			c-0.0296,1.9789,0.3224,3.1515,0.9817,3.1515H47.7183z"/>
		<path id="c_2_" fill="#FFFFFF" d="M65.2583,133.1924c-0.2639,0.1171-0.821,0.2199-1.5095,0.2199
			c-2.7847,0-3.9133-2.3009-3.9133-4.8661c0-3.6491,2.1251-5.1882,4.1917-5.1882c0.7182,0,1.2019,0.1466,1.3922,0.2636
			l-0.3517,1.9056c-0.2199-0.1029-0.469-0.1903-0.8499-0.1903c-1.1142,0-1.9789,0.9084-1.9789,3.1071
			c0,2.0663,0.8062,2.9605,1.9493,2.9605c0.2787,0,0.6451-0.0591,0.8795-0.1176L65.2583,133.1924z"/>
		<path id="i_8_" fill="#FFFFFF" d="M76.7452,123.4461v9.8781h-2.2713v-9.8781H76.7452z"/>
		<path id="a_4_" fill="#FFFFFF" d="M88.3507,131.3749l-0.3369,1.9492h-2.1987l2.0958-9.8781h2.7555l1.8026,9.8781h-2.1987
			l-0.3227-1.9492H88.3507z M89.7728,129.6308l-0.2494-1.8759c-0.0733-0.5568-0.2057-1.6266-0.2932-2.2424h-0.0296
			c-0.1028,0.6159-0.2494,1.7146-0.3369,2.2424l-0.2932,1.8759H89.7728z"/>
		<path id="t_2_" fill="#FFFFFF" d="M102.0508,125.5567h-1.7139v-2.1106h5.7154v2.1106h-1.7294v7.7674h-2.272V125.5567z"/>
		<path id="i_7_" fill="#FFFFFF" d="M117.5098,123.4461v9.8781h-2.272v-9.8781H117.5098z"/>
		<path id="_x30__2_" fill="#FFFFFF" d="M130.1555,133.4411c-2.4906,0-3.2826-2.6378-3.2826-5.0853
			c0-2.4474,1.0261-5.0268,3.415-5.0268c2.6821,0,3.2093,2.9605,3.2093,4.8365c0,3.7371-1.3488,5.2755-3.3263,5.2755H130.1555z
			 M130.2288,131.4778c0.6159,0,0.909-1.1726,0.909-3.1952c0-1.7004-0.234-2.9901-0.9232-2.9901
			c-0.6596,0-0.9965,1.2896-0.9824,3.0338c-0.0296,1.9789,0.3227,3.1515,0.9824,3.1515H130.2288z"/>
		<path id="n_2_" fill="#FFFFFF" d="M142.8591,133.3242v-9.8781h2.0663l1.3925,3.5468c0.2494,0.6301,0.7188,1.876,0.9669,2.6378
			h0.0296c-0.0591-0.8062-0.2199-2.7259-0.2199-4.5871v-1.5976h1.9789v9.8781h-2.0663l-1.3346-3.327
			c-0.3073-0.7618-0.7612-2.0663-0.9374-2.7992h-0.0296c0.0437,0.85,0.1324,2.4912,0.1324,4.4264v1.6998H142.8591z"/>
	</g>
	<g id="highedweb_2_">
		<path id="h_5_" fill="#FFFFFF" d="M6.5827,87.9057v10.4432h4.544V87.9057h6.1782v26.8652h-6.1782v-10.6823h-4.544v10.6823H0.4045
			V87.9057H6.5827z"/>
		<path id="i_6_" fill="#FFFFFF" d="M25.8184,92.3879v22.383h-5.1474v-22.383H25.8184z"/>
		<path id="g_2_" fill="#FFFFFF" d="M41.9592,114.173c-0.963,0.3652-3.1881,0.7972-4.9149,0.7972
			c-2.8229,0-4.8152-0.7972-6.2766-2.2251c-2.0588-1.9595-3.0553-5.3469-2.9888-9.0995c0.1328-7.9038,4.8487-11.457,9.9629-11.457
			c1.8265,0,3.1547,0.3651,3.8522,0.6975l-0.8303,4.4167c-0.6641-0.3324-1.5275-0.4982-2.5571-0.4982
			c-3.022,0-5.0811,1.9595-5.0811,7.3058c0,4.7163,1.8599,6.5427,3.5867,6.5427c0.1993,0,0.3986,0,0.5645-0.0669v-4.5497h-1.6272
			v-4.184h6.3096V114.173z"/>
		<path id="h_4_" fill="#FFFFFF" d="M50.9613,92.3879v8.7009h3.7859v-8.7009h5.1474v22.383h-5.1474v-8.9002h-3.7859v8.9002H45.814
			v-22.383H50.9613z"/>
		<path id="e_5_" fill="#FFFFFF" d="M75.435,103.3711h-5.8593v6.0586h6.5768v5.3412h-12.755V87.9057H75.714v5.3412h-6.1383v5.0223
			h5.8593V103.3711z"/>
		<path id="d_2_" fill="#FFFFFF" d="M78.6417,92.7196c1.129-0.2321,2.9213-0.4314,4.8474-0.4314
			c3.0229,0,5.1149,0.6969,6.6424,2.1254c1.9929,1.8265,2.8557,4.8153,2.8557,8.9999c0,4.2836-1.129,7.671-3.2878,9.4975
			c-1.5596,1.3617-3.7854,2.0592-7.14,2.0592c-1.5275,0-3.0216-0.1658-3.9178-0.2655V92.7196z M83.7553,110.7194
			c0.1659,0.0662,0.4655,0.0662,0.6982,0.0662c1.7924,0,3.2208-2.0586,3.2208-7.6048c0-4.1511-0.963-6.8082-3.1887-6.8082
			c-0.2648,0-0.4976,0-0.7303,0.0997V110.7194z"/>
		<path id="w_2_" fill="#FFFFFF" d="M97.8,114.7709l-4.3447-26.8652h6.4173l0.8769,9.7257c0.279,2.9496,0.4384,6.0587,0.7573,9.3271
			h0.0797c0.3986-3.2684,0.9566-6.2181,1.4748-9.3271l1.6741-9.7257h4.9426l1.4748,9.7257c0.4384,2.9496,0.8371,5.8992,1.156,9.3271
			h0.0797c0.279-3.3482,0.558-6.2181,0.837-9.3271l0.9168-9.7257h6.0188l-4.5041,26.8652h-6.4572l-1.1559-6.9356
			c-0.3986-2.3517-0.7573-5.4208-1.1161-8.8488h-0.0797c-0.5182,3.3482-0.9566,6.3775-1.4748,8.8488l-1.435,6.9356H97.8z"/>
		<path id="e_4_" fill="#FFFFFF" d="M131.6817,105.2728h-4.8821v5.048h5.4788v4.4501h-10.6271v-22.383h10.2619v4.4501h-5.1136
			v4.1839h4.8821V105.2728z"/>
		<path id="b_2_" fill="#FFFFFF" d="M135.336,92.7196c1.4285-0.2989,3.3867-0.4314,5.48-0.4314c2.092,0,4.283,0.1993,5.9776,1.5937
			c1.2948,1.0627,1.7923,2.6237,1.7923,4.1846c0,1.8599-0.9296,3.8188-3.154,4.8487v0.1325
			c2.5896,0.7637,3.8857,2.9226,3.8857,5.1811c0,1.8592-0.5979,3.2877-1.6613,4.3832c-1.3616,1.4613-3.7198,2.3581-7.9706,2.3581
			c-1.66,0-3.2209-0.0996-4.3498-0.2655V92.7196z M140.4496,101.454h0.8306c1.3616,0,2.2912-1.1958,2.2912-2.7895
			c0-1.4613-0.6969-2.5902-2.0585-2.5902c-0.4321,0-0.7971,0.0328-1.0633,0.1325V101.454z M140.4496,110.9849
			c0.2662,0.0669,0.5323,0.0669,0.8306,0.0669c1.3951,0,2.7233-0.8968,2.7233-2.8898c0-1.8927-1.2613-2.9219-2.6898-2.9219h-0.864
			V110.9849z"/>
	</g>
</g>
</svg>
