<svg class="heweb-logo" xmlns="http://www.w3.org/2000/svg" viewBox="0 0 636.87 136.87"><defs><style>path { fill: #fff; }</style></defs><title>highedweb-association-wide</title>
    <path id="globe" fill="#FFFFFF" class="globe-mark" d="M122.56,9.52c-4-4.9-9.15-9.2-8.8-9.22C125.25-.28,149.09,5.52,154,11.61a149.23,149.23,0,0,0-30.31-1.51l-0.68,0Zm-16.43-8.3c-0.31-.2,0,0-0.34-0.19a1.09,1.09,0,0,0-.61-0.14A78.44,78.44,0,0,0,79,7.47a1.48,1.48,0,0,0-.6.36c-0.06.1-.06,0.06,0,0.34,0.35,1.18,3.47,11.1,3.6,11.39a0.57,0.57,0,0,0,.19.34,0.67,0.67,0,0,0,.6-0.1A103.24,103.24,0,0,1,115.71,11a0.73,0.73,0,0,0,.55-0.1,0.73,0.73,0,0,0-.31-0.47C114.43,8.79,107.64,2.2,106.13,1.21ZM73,10.07c-0.31.18-16,8.23-25.48,19.56a0.43,0.43,0,0,0-.17.31c0,0.07,0-.12,0,0.29s2.31,10.85,2.41,11.28a3.41,3.41,0,0,0,.24.79c0,0.1.19,0,.38-0.24A118,118,0,0,1,76.94,22.37a0.68,0.68,0,0,0,.36-0.29,0.77,0.77,0,0,0-.08-0.28c-0.24-.74-3.38-10.66-3.75-11.57-0.15-.36-0.06-0.18-0.13-0.23S73.17,10,73,10.07ZM42.6,35.89C30.18,53,28.47,68.35,28.43,68.82a1.54,1.54,0,0,0,.06,1,0.51,0.51,0,0,0,.57-0.27C34.46,59.35,43.72,48.47,45.19,47a0.77,0.77,0,0,0,.21-0.3,0.62,0.62,0,0,0,0-.48C45.28,45.67,43.34,37,43.08,36,43,35.8,43,35.64,42.91,35.64A0.59,0.59,0,0,0,42.6,35.89Zm85-20.59a1.11,1.11,0,0,0-.71.15,1,1,0,0,0,.31.7c4.83,8.05,9.28,19.69,9.53,20.17a1.2,1.2,0,0,0,.23.34c0.06,0.08,0,.06.57,0,1.3-.06,18-1.24,34.44,3.91,1.17,0.37,1.28.54,1.43,0.39a1.81,1.81,0,0,0-.26-1.3c-6.49-15.25-12.23-20.75-12.94-21.53a2.48,2.48,0,0,0-.38-0.3C157.5,16.36,135,14.73,127.55,15.3Zm51.8,26.16c0.46,1.21.46,1.31,0.7,2a4.44,4.44,0,0,0,1.25.76,141.65,141.65,0,0,1,11.81,7.92c1,0.8,1.59,1.3,1.56,1a15.34,15.34,0,0,0-1-3.15c-3-5.72-9.12-21.15-25.66-31C164.5,16.88,172,22,179.36,41.46ZM119.69,16C109,17.38,97.37,19.15,85.36,24.7a1.54,1.54,0,0,0-.89.52,3,3,0,0,0,.3.81c0.14,0.42,8.06,20.34,8.3,21a1.7,1.7,0,0,0,.43.85c0.1,0.06.08,0.08,0.6-.15S108.25,41,129.59,37.65a6,6,0,0,0,1.56-.35c0.16-.08.05-0.37-0.13-0.87-4.74-12.64-9.61-19.28-10-19.82a2.33,2.33,0,0,0-.61-0.64A1.75,1.75,0,0,0,119.69,16ZM79,27.73a2.62,2.62,0,0,0-1.07.5C63.55,36.13,52.79,47.58,52.34,47.95a1.4,1.4,0,0,0-.63.75,3.79,3.79,0,0,0,.19.65c0.49,1.49,4.41,12.85,7.66,20a1.72,1.72,0,0,0,.43.7,1.32,1.32,0,0,0,.65-0.49c0.81-.75,13.69-12.24,26.71-18.83,0.76-.39.68-0.39,0.78-0.62a0.94,0.94,0,0,0-.19-1c-0.33-.7-8.33-20.36-8.51-20.79A1.45,1.45,0,0,0,79,27.73ZM47.36,53.53c-0.16-.05-0.18-0.06-0.8.64-6.39,7.24-15.65,21.34-16,22.1a1.37,1.37,0,0,0-.19.5,4.39,4.39,0,0,0,.1.79,82.17,82.17,0,0,0,7.82,21,2.09,2.09,0,0,0,.5.89,2.82,2.82,0,0,0,.48-0.86c0.41-.74,8.33-15.67,16-23.38a0.93,0.93,0,0,0,.47-0.7,3.6,3.6,0,0,0-.39-1.07C51.17,64.35,48,54.89,47.79,54.39A2.52,2.52,0,0,0,47.36,53.53ZM24.89,101.16c0.29,1.6.75,1.4,0.75,1.4s9.06,0.34,8.83-.19c-0.65-1.49-4.76-7.95-7-16.93-0.24-1-1.14-3.93-1.31-4.71a7,7,0,0,0-.46,1.64S24.05,96.55,24.89,101.16Zm33.6-21.38c-0.06,0-.06-0.05-0.61.49C52.16,86,44.62,100.2,44.16,101.07s-1,1.33-.61,1.33l28.53,0s0.26-1-.16-1.05c-1.12-.27-12.77-20.33-13-20.84S58.49,79.79,58.49,79.79Zm4.3-3.73s8,14.77,15.69,24.91c0.29,0.38.55,0.7,0.55,0.7l1.36,0s0.6-.63.94-1,5.78-5.65,22.4-14.93a0.86,0.86,0,0,0,.49-0.39,8.13,8.13,0,0,0-.42-1c-0.23-.45-12.74-28.27-12.92-28.57a0.94,0.94,0,0,0-.42-0.36,0.74,0.74,0,0,0-.62.11C75.62,62.62,63.78,74.19,63,74.82a1.72,1.72,0,0,0-.52.56A1.54,1.54,0,0,0,62.79,76.06Zm70-33.39a2.63,2.63,0,0,0-1.08.09,142.18,142.18,0,0,0-35.05,9.78,2.81,2.81,0,0,0-.91.44A2,2,0,0,0,96.12,54c0.72,1.43,12.66,27.8,12.85,28.14a7.93,7.93,0,0,0,.54.92,1,1,0,0,0,.73-0.18A121.87,121.87,0,0,1,139.58,74c0.79-.13.77-0.12,0.88-0.37a2,2,0,0,0-.15-1.05c-2.37-11-5.7-24-7-28.92A1.46,1.46,0,0,0,132.79,42.67Zm6.1,0.52c2,5.8,6.71,27.91,6.84,28.65a4.18,4.18,0,0,0,.26,1,4.16,4.16,0,0,0,1.34-.09,82.12,82.12,0,0,1,28.78,1.86,4.36,4.36,0,0,0,1.6.22,3,3,0,0,0,.26-1.47c0-1.39.61-9.78-2.34-24.8a1.26,1.26,0,0,0-.35-0.82,2.11,2.11,0,0,0-1.08-.69C160.27,41.28,140.8,42,140.06,42s-1.17,0-1.34.35A2,2,0,0,0,138.89,43.19Zm43.1,9.3c0.17,1.08,2,13.07,1.25,23.37a1.53,1.53,0,0,0,.13,1.08,2.34,2.34,0,0,0,1.08.56,42.44,42.44,0,0,1,15.88,11.21c0.7,0.77.82,1.42,1.17,1.21a3.23,3.23,0,0,0,.17-1.56,129.23,129.23,0,0,0-2.55-23.75,2.78,2.78,0,0,0-.56-1.21c-0.39-.65-0.61-0.69-0.74-1A96.93,96.93,0,0,0,183,51.28c-0.53-.31-1-0.78-1.25-0.56C181.74,50.72,181.84,51.5,182,52.49Zm0.86,31.68a140.4,140.4,0,0,1-2.81,16.58c-0.17.61-.48,1.56-0.48,1.56l20.56-.3s0.35-1.47.61-2.6,0.09-.3.09-0.69a1.52,1.52,0,0,0-.43-0.91,42.6,42.6,0,0,0-15.92-14.5c-1-.48-1.39-0.52-1.47-0.43S182.9,83.78,182.86,84.17ZM177.5,81c-0.09-.26-0.23-0.24-1.08-0.61s-11.68-4.15-27.65-2.47a14.11,14.11,0,0,0-1.65.3c-0.15,0-.09.14,0.09,1.12,1.51,8.48,2.4,21.21,2.47,21.64,0.13,0.78.17,1.25,0.17,1.25l23.93,0.17a2.78,2.78,0,0,0,.43-1.13c0.34-1.12,2.29-6.88,3.29-19A7.57,7.57,0,0,0,177.5,81Zm-35.92-1.82a3.2,3.2,0,0,0-1.47.09,151.24,151.24,0,0,0-26.74,8,3.65,3.65,0,0,0-1.52,1,12.92,12.92,0,0,0,.61,1.47l5.8,11.55a3.72,3.72,0,0,1,.26,1.17L144,102.3a3,3,0,0,0,.35-1.08c0-.43-2.55-20.79-2.55-20.95A5,5,0,0,0,141.58,79.19Zm-35,11.47a5.88,5.88,0,0,0-1.52.69c-10.14,6.08-15.19,9.43-15.67,9.91A1,1,0,0,0,89,102s22.89,0.3,23,.13,0.3-.15.09-0.52c-0.48-.82-4.5-9.2-4.72-9.69A2.17,2.17,0,0,0,106.61,90.66Z" transform="translate(0 -0.26)"/>
    <path id="lines" fill="#FFFFFF" class="logo-lines" d="M636.23,102.08H0v3H636.23v-3Z" transform="translate(0 -0.26)"/>
    <g id="association">
        <path fill="#FFFFFF" class="letter-a" d="M255.05,131.74l-0.88,5.09h-5.74L253.9,111h7.2l4.71,25.8h-5.74l-0.84-5.09h-4.17Zm3.71-4.56-0.65-4.9c-0.19-1.45-.54-4.25-0.76-5.86h-0.08c-0.27,1.61-.65,4.48-0.88,5.86l-0.77,4.9h3.14Z" transform="translate(0 -0.26)"/>
        <path fill="#FFFFFF" class="letter-s" d="M289.31,130.93a10.41,10.41,0,0,0,4.48,1c2.22,0,3.22-1,3.22-2.3,0-1.61-1.07-2.33-3.33-3.67-4.17-2.49-4.86-5.32-4.86-7.24,0-4.25,2.76-7.92,8.73-7.92a9.61,9.61,0,0,1,4.25.92l-0.84,5.09a6.46,6.46,0,0,0-3.37-.88c-2,0-2.95,1-2.95,2.22s0.54,1.84,3.45,3.48c3.56,2,4.75,4.71,4.75,7.35,0,4.86-3.64,8.08-9.07,8.08a12.57,12.57,0,0,1-5.21-1Z" transform="translate(0 -0.26)"/>
        <path fill="#FFFFFF" class="letter-s" d="M326.4,130.93a10.41,10.41,0,0,0,4.48,1c2.22,0,3.22-1,3.22-2.3,0-1.61-1.07-2.33-3.33-3.67-4.17-2.49-4.86-5.32-4.86-7.24,0-4.25,2.76-7.92,8.73-7.92a9.61,9.61,0,0,1,4.25.92L338,116.81a6.46,6.46,0,0,0-3.37-.88c-2,0-2.95,1-2.95,2.22s0.54,1.84,3.45,3.48c3.56,2,4.75,4.71,4.75,7.35,0,4.86-3.64,8.08-9.07,8.08a12.57,12.57,0,0,1-5.21-1Z" transform="translate(0 -0.26)"/>
        <path fill="#FFFFFF" class="letter-o" d="M371.29,137.13c-6.51,0-8.58-6.89-8.58-13.28s2.68-13.13,8.92-13.13c7,0,8.38,7.73,8.38,12.63,0,9.76-3.52,13.78-8.69,13.78h0Zm0.19-5.13c1.61,0,2.37-3.06,2.37-8.35,0-4.44-.61-7.81-2.41-7.81s-2.6,3.37-2.56,7.92c-0.08,5.17.84,8.23,2.56,8.23h0Z" transform="translate(0 -0.26)"/>
        <path fill="#FFFFFF" class="letter-c" d="M417.3,136.48a11.09,11.09,0,0,1-3.94.57c-7.27,0-10.22-6-10.22-12.71,0-9.53,5.55-13.55,10.95-13.55a7.75,7.75,0,0,1,3.64.69l-0.92,5a4.87,4.87,0,0,0-2.22-.5c-2.91,0-5.17,2.37-5.17,8.12,0,5.4,2.11,7.73,5.09,7.73a10.75,10.75,0,0,0,2.3-.31Z" transform="translate(0 -0.26)"/>
        <path fill="#FFFFFF" class="letter-i" d="M447.31,111v25.8h-5.93V111h5.93Z" transform="translate(0 -0.26)"/>
        <path fill="#FFFFFF" class="letter-a" d="M477.62,131.74l-0.88,5.09H471l5.47-25.8h7.2l4.71,25.8h-5.74l-0.84-5.09h-4.17Zm3.71-4.56-0.65-4.9c-0.19-1.45-.54-4.25-0.77-5.86h-0.08c-0.27,1.61-.65,4.48-0.88,5.86l-0.77,4.9h3.14Z" transform="translate(0 -0.26)"/>
        <path fill="#FFFFFF" class="letter-t" d="M513.41,116.54h-4.48V111h14.93v5.51h-4.52v20.29h-5.93V116.54Z" transform="translate(0 -0.26)"/>
        <path fill="#FFFFFF" class="letter-i" d="M553.79,111v25.8h-5.93V111h5.93Z" transform="translate(0 -0.26)"/>
        <path fill="#FFFFFF" class="letter-o" d="M586.82,137.13c-6.51,0-8.57-6.89-8.57-13.28s2.68-13.13,8.92-13.13c7,0,8.38,7.73,8.38,12.63,0,9.76-3.52,13.78-8.69,13.78h0ZM587,132c1.61,0,2.37-3.06,2.37-8.35,0-4.44-.61-7.81-2.41-7.81s-2.6,3.37-2.57,7.92c-0.08,5.17.84,8.23,2.57,8.23h0Z" transform="translate(0 -0.26)"/>
        <path fill="#FFFFFF" class="letter-n" d="M620,136.83V111h5.4l3.64,9.26c0.65,1.65,1.88,4.9,2.53,6.89h0.08c-0.15-2.11-.57-7.12-0.57-12V111h5.17v25.8h-5.4l-3.49-8.69a65.91,65.91,0,0,1-2.45-7.31h-0.08c0.11,2.22.35,6.51,0.35,11.56v4.44H620Z" transform="translate(0 -0.26)"/>
    </g>
    <g id="highedweb">
        <path fill="#FFFFFF" class="letter-h" d="M264,26.53V53.8h11.87V26.53H292V96.7H275.91V68.8H264V96.7H247.9V26.53H264Z" transform="translate(0 -0.26)"/>
        <path fill="#FFFFFF" class="letter-i" d="M314.28,38.23V96.7H300.84V38.23h13.45Z" transform="translate(0 -0.26)"/>
        <path fill="#FFFFFF" class="letter-g" d="M356.44,95.14a44.47,44.47,0,0,1-12.84,2.08c-7.37,0-12.58-2.08-16.39-5.81-5.38-5.12-8-14-7.81-23.77,0.35-20.65,12.67-29.93,26-29.93a24.52,24.52,0,0,1,10.06,1.82l-2.17,11.54a15,15,0,0,0-6.68-1.3c-7.89,0-13.27,5.12-13.27,19.08,0,12.32,4.86,17.09,9.37,17.09a4,4,0,0,0,1.47-.17V73.89H340V63h16.48V95.14Z" transform="translate(0 -0.26)"/>
        <path fill="#FFFFFF" class="letter-h" d="M380,38.23V61h9.89V38.23h13.45V96.7H389.85V73.45H380V96.7H366.51V38.23H380Z" transform="translate(0 -0.26)"/>
        <path fill="#FFFFFF" class="letter-e" d="M443.88,66.92h-15.3V82.75h17.18v14H412.44V26.53h32.17v14h-16V53.6h15.3V66.92Z" transform="translate(0 -0.26)"/>
        <path fill="#FFFFFF" class="letter-d" d="M452.26,39.1A67.51,67.51,0,0,1,464.92,38c7.9,0,13.36,1.82,17.35,5.55,5.21,4.77,7.46,12.58,7.46,23.51,0,11.19-2.95,20-8.59,24.81-4.07,3.56-9.89,5.38-18.65,5.38a93.2,93.2,0,0,1-10.23-.69V39.1Zm13.36,47a5.94,5.94,0,0,0,1.82.17c4.68,0,8.41-5.38,8.41-19.86,0-10.84-2.52-17.78-8.33-17.78a4.64,4.64,0,0,0-1.91.26V86.12Z" transform="translate(0 -0.26)"/>
        <path fill="#FFFFFF" class="letter-w" d="M502.3,96.7L491,26.53h16.76L510,51.93c0.73,7.7,1.15,15.83,2,24.36h0.21c1-8.54,2.5-16.24,3.85-24.36l4.37-25.4h12.91l3.85,25.4c1.15,7.7,2.19,15.41,3,24.36h0.21c0.73-8.75,1.46-16.24,2.19-24.36L545,26.53h15.72L548.95,96.7H532.08l-3-18.12c-1-6.14-2-14.16-2.92-23.11h-0.21c-1.35,8.75-2.5,16.66-3.85,23.11L518.34,96.7h-16Z" transform="translate(0 -0.26)"/>
        <path fill="#FFFFFF" class="letter-e" d="M590.8,71.89H578.05V85.08h14.31V96.7H564.6V38.23h26.8V49.86H578.05V60.79H590.8v11.1Z" transform="translate(0 -0.26)"/>
        <path fill="#FFFFFF" class="letter-b" d="M600.35,39.1A74.73,74.73,0,0,1,614.66,38c5.46,0,11.19.52,15.61,4.16C633.66,44.91,635,49,635,53.07a13.66,13.66,0,0,1-8.24,12.67v0.35a13.74,13.74,0,0,1,10.15,13.53,15.7,15.7,0,0,1-4.34,11.45c-3.56,3.82-9.72,6.16-20.82,6.16a83,83,0,0,1-11.36-.69V39.1Zm13.36,22.81h2.17c3.56,0,6-3.12,6-7.29,0-3.82-1.82-6.77-5.38-6.77a8.34,8.34,0,0,0-2.78.35V61.92Zm0,24.9a8.76,8.76,0,0,0,2.17.17c3.64,0,7.11-2.34,7.11-7.55,0-4.94-3.29-7.63-7-7.63h-2.26v15Z" transform="translate(0 -0.26)"/>
    </g>
</svg>
