<?xml version="1.0" encoding="utf-8"?>
<!-- Generator: Adobe Illustrator 19.2.1, SVG Export Plug-In . SVG Version: 6.00 Build 0)  -->
<svg version="1.1" id="heweb16" xmlns="http://www.w3.org/2000/svg" xmlns:xlink="http://www.w3.org/1999/xlink" x="0px" y="0px"
	 viewBox="0 0 891 288" style="enable-background:new 0 0 891 288;" xml:space="preserve">
<g id="heweb-logo">
	<g id="globe-third">
		<path d="M96.1,97.9c-7.5,10.4-8.6,19.7-8.6,20c0,0.3,0,0.6,0,0.6c0.1,0,0.2,0,0.3-0.2c3.3-6.2,8.9-12.8,9.8-13.7
			c0.2-0.2-0.1,0.1,0.1-0.2c0.1-0.1,0-0.2,0-0.3c-0.1-0.3-1.3-5.6-1.4-6.2c0-0.1,0-0.2-0.1-0.2C96.2,97.7,96.1,97.8,96.1,97.9z"/>
		<path d="M179.2,101.3c0.3,0.7,0.3,0.8,0.4,1.2c0,0.1,0.3,0.2,0.8,0.5c2.3,1.4,6,3.9,7.2,4.8c0.6,0.5,1,0.8,0.9,0.6
			c0-0.2-0.3-1.4-0.6-1.9c-1.8-3.5-5.5-12.9-15.6-18.8C170.2,86.3,174.7,89.5,179.2,101.3z"/>
		<path d="M99,108.6c-0.1,0-0.1,0-0.5,0.4c-3.9,4.4-9.5,13-9.7,13.4c-0.1,0.2-0.1,0.2-0.1,0.3c0,0.1,0,0.2,0.1,0.5
			c0,0.4,1.3,6.3,4.8,12.8c0.2,0.3,0.2,0.5,0.3,0.5c0.1,0,0.2-0.3,0.3-0.5c0.2-0.5,5.1-9.5,9.7-14.2c0.3-0.3,0.3-0.3,0.3-0.4
			c0-0.1-0.1-0.4-0.2-0.6c-2.6-5.6-4.5-11.3-4.6-11.6C99.1,108.8,99,108.6,99,108.6z"/>
		<path d="M85.3,137.6c0.2,1,0.5,0.9,0.5,0.9s5.5,0.2,5.4-0.1c-0.4-0.9-2.9-4.8-4.3-10.3c-0.1-0.6-0.7-2.4-0.8-2.9
			c0,0-0.1,0.2-0.3,1C85.8,126.1,84.8,134.8,85.3,137.6z"/>
		<path d="M105.7,124.6c0,0,0,0-0.4,0.3c-3.5,3.5-8.1,12.1-8.3,12.6c-0.3,0.5-0.6,0.8-0.4,0.8c0.2,0,17.2,0,17.3,0
			c0,0,0.2-0.6-0.1-0.6c-0.7-0.2-7.8-12.4-7.9-12.7C105.8,124.7,105.7,124.6,105.7,124.6z"/>
		<path d="M180.8,108c0.1,0.7,1.2,7.9,0.8,14.2c0,0.3-0.1,0.5,0.1,0.7c0.2,0.2,0.3,0.2,0.7,0.3c0.4,0.2,5.1,1.8,9.7,6.8
			c0.4,0.5,0.5,0.9,0.7,0.7c0.1-0.1,0.1-0.7,0.1-0.9c-0.1-7.3-1.4-14-1.5-14.4c-0.1-0.4-0.2-0.4-0.3-0.7c-0.2-0.4-0.4-0.4-0.4-0.6
			s-4.9-4.4-9-6.8c-0.3-0.2-0.6-0.5-0.8-0.3C180.6,106.9,180.7,107.4,180.8,108z"/>
		<path d="M181.3,127.2c-0.4,4.3-1.6,9.7-1.7,10.1s-0.3,0.9-0.3,0.9l12.5-0.2c0,0,0.2-0.9,0.4-1.6c0.2-0.7,0.1-0.2,0.1-0.4
			c0-0.2-0.1-0.3-0.3-0.6c-3.7-5.8-9.2-8.6-9.7-8.8c-0.6-0.3-0.8-0.3-0.9-0.3C181.4,126.4,181.4,127,181.3,127.2z"/>
	</g>
	<g id="globe-secondary">
		<path d="M144.7,81.8c-2.4-3-5.6-5.6-5.3-5.6c7-0.4,21.5,3.2,24.5,6.9c0,0-8.9-1.5-18.4-0.9l-0.4,0L144.7,81.8z"/>
		<path d="M147.7,85.4c-0.2,0-0.4,0-0.4,0.1c0,0.1,0,0.1,0.2,0.4c2.9,4.9,5.6,12,5.8,12.3c0.1,0.1,0.1,0.1,0.1,0.2c0,0,0,0,0.3,0
			c0.8,0,10.9-0.8,20.9,2.4c0.7,0.2,0.8,0.3,0.9,0.2c0.1-0.1,0-0.4-0.2-0.8c-3.9-9.3-7.4-12.6-7.9-13.1c0,0-0.1-0.1-0.2-0.2
			C165.9,86,152.3,85,147.7,85.4z"/>
		<path d="M154.6,102.3c1.2,3.5,4.1,17,4.2,17.4c0.1,0.4,0.2,0.6,0.2,0.6c0.1,0.1,0.6,0,0.8-0.1c0.4,0,8.5-1.2,17.5,1.1
			c0.3,0.1,0.8,0.2,1,0.1c0.1-0.1,0.2-0.7,0.2-0.9c0-0.8,0.4-5.9-1.4-15.1c-0.1-0.5-0.1-0.3-0.2-0.5c-0.1-0.2-0.3-0.3-0.7-0.4
			c-8.5-3.5-20.3-3.1-20.8-3.1c-0.5,0-0.7,0-0.8,0.2C154.5,101.8,154.5,101.9,154.6,102.3z"/>
		<path d="M178.1,125.3c-0.1-0.2-0.1-0.1-0.7-0.4c-0.6-0.3-7.1-2.5-16.8-1.5c-0.3,0-0.7,0.1-1,0.2c-0.1,0-0.1,0.1,0.1,0.7
			c0.9,5.2,1.5,12.9,1.5,13.2c0.1,0.5,0.1,0.8,0.1,0.8l14.5,0.1c0,0,0.1,0,0.3-0.7c0.2-0.7,1.4-4.2,2-11.5
			C178.1,125.6,178.1,125.3,178.1,125.3z"/>
	</g>
	<g id="globe-primary">
		<path d="M134.7,76.8c-0.2-0.1,0,0-0.2-0.1c-0.1,0-0.2-0.1-0.4-0.1c-9.4,0.8-15.6,3.9-15.9,4c-0.2,0.1-0.3,0.2-0.4,0.2
			c0,0.1,0,0,0,0.2c0.2,0.7,2.1,6.7,2.2,6.9c0.1,0.2,0.1,0.2,0.1,0.2c0.1,0.1,0.2,0,0.4-0.1c0.3-0.1,8.5-4.2,20-5.4
			c0.4,0,0.3,0,0.3-0.1c0,0-0.1-0.2-0.2-0.3C139.7,81.4,135.6,77.4,134.7,76.8z"/>
		<path d="M114.5,82.2c-0.2,0.1-9.7,5-15.5,11.9c-0.1,0.1-0.1,0.1-0.1,0.2c0,0,0-0.1,0,0.2c0,0.2,1.4,6.6,1.5,6.9
			c0.1,0.3,0.1,0.4,0.1,0.5c0,0.1,0.1,0,0.2-0.1c7.5-7.6,15.8-11.8,16.1-12c0.1-0.1,0.2-0.1,0.2-0.2c0-0.1,0-0.1,0-0.2
			c-0.1-0.4-2.1-6.5-2.3-7c-0.1-0.2,0-0.1-0.1-0.1C114.7,82.1,114.7,82.1,114.5,82.2z"/>
		<path d="M142.9,85.8c-6.5,0.9-13.6,1.9-20.9,5.3c-0.4,0.2-0.5,0.2-0.5,0.3c0,0.1,0.1,0.2,0.2,0.5c0.1,0.3,4.9,12.4,5,12.8
			c0.1,0.4,0.2,0.5,0.3,0.5c0.1,0,0,0,0.4-0.1c0.3-0.1,8.6-4.1,21.6-6.1c0.6-0.1,0.8-0.1,0.9-0.2c0.1,0,0-0.2-0.1-0.5
			c-2.9-7.7-5.8-11.7-6.1-12c-0.2-0.2-0.3-0.3-0.4-0.4C143.3,85.8,143.2,85.7,142.9,85.8z"/>
		<path d="M118.2,92.9c-0.1,0-0.2,0.1-0.7,0.3c-8.8,4.8-15.3,11.8-15.6,12c-0.3,0.2-0.4,0.4-0.4,0.5c0,0.1,0,0.1,0.1,0.4
			c0.3,0.9,2.7,7.8,4.7,12.2c0.1,0.2,0.2,0.4,0.3,0.4c0.1,0,0.2-0.1,0.4-0.3c0.5-0.5,8.3-7.4,16.2-11.4c0.5-0.2,0.4-0.2,0.5-0.4
			c0.1-0.2,0.1-0.2-0.1-0.6c-0.2-0.4-5.1-12.4-5.2-12.6C118.3,93,118.2,92.9,118.2,92.9z"/>
		<path d="M108.3,122.3c0,0,4.9,9,9.5,15.1c0.2,0.2,0.3,0.4,0.3,0.4l0.8,0c0,0,0.4-0.4,0.6-0.6c0.2-0.2,3.5-3.4,13.6-9.1
			c0.3-0.2,0.2-0.2,0.3-0.2c0,0-0.1-0.3-0.3-0.6c-0.1-0.3-7.7-17.2-7.9-17.4c-0.1-0.1-0.2-0.2-0.3-0.2c-0.1,0-0.2,0-0.4,0.1
			c-8.6,4.3-15.8,11.3-16.3,11.7c-0.1,0.1-0.3,0.3-0.3,0.3C108.2,122,108.3,122.3,108.3,122.3z"/>
		<path d="M150.9,102c-0.3-0.1-0.4,0-0.7,0.1c-11,1.5-19.5,5.2-21.3,5.9c-0.3,0.1-0.5,0.2-0.6,0.3c0,0.1,0,0.3,0.2,0.7
			c0.4,0.9,7.7,16.9,7.8,17.1c0.1,0.3,0.2,0.4,0.3,0.6c0,0.1,0.2,0,0.4-0.1c5.5-2.4,10.8-4.2,17.8-5.4c0.5-0.1,0.5-0.1,0.5-0.2
			c0-0.1,0-0.1-0.1-0.6c-1.4-6.7-3.5-14.6-4.3-17.6C151,102,150.9,102,150.9,102z"/>
		<path d="M156.2,124.2c-0.3-0.1-0.6,0-0.9,0.1c-8.4,1.6-15.9,4.7-16.3,4.8c-0.4,0.2-0.8,0.4-0.9,0.6c0,0,0.2,0.5,0.4,0.9
			c0.1,0.3,3.4,6.8,3.5,7c0.1,0.3,0.2,0.7,0.2,0.7l15.5-0.1c0,0,0.2-0.4,0.2-0.7c0-0.3-1.6-12.6-1.6-12.7
			C156.4,124.6,156.2,124.2,156.2,124.2z"/>
		<path d="M135,131.2c-0.1,0-0.8,0.3-0.9,0.4c-6.2,3.7-9.2,5.7-9.5,6c-0.3,0.3-0.2,0.4-0.2,0.4s13.9,0.2,14,0.1
			c0.1-0.1,0.2-0.1,0.1-0.3c-0.3-0.5-2.7-5.6-2.9-5.9C135.2,131.4,135.1,131.2,135,131.2z"/>
	</g>
	<path id="lines_13_" d="M213.5,174.6H70.3v-2.1h143.2V174.6z M213.4,138H70.2v2.1h143.2V138z"/>
	<g id="association_11_">
		<path id="a_27_" d="M72.9,185.1l-0.3,1.9h-2.1l2-9.5h2.6l1.7,9.5h-2.1l-0.3-1.9H72.9z M74.3,183.5l-0.2-1.8
			c-0.1-0.5-0.2-1.6-0.3-2.2h0c-0.1,0.6-0.2,1.6-0.3,2.2l-0.3,1.8H74.3z"/>
		<path id="s_27_" d="M85.5,184.8c0.4,0.2,1.1,0.4,1.6,0.4c0.8,0,1.2-0.4,1.2-0.8c0-0.6-0.4-0.9-1.2-1.3c-1.5-0.9-1.8-2-1.8-2.7
			c0-1.6,1-2.9,3.2-2.9c0.6,0,1.3,0.2,1.6,0.3l-0.3,1.9c-0.3-0.2-0.7-0.3-1.2-0.3c-0.7,0-1.1,0.4-1.1,0.8c0,0.4,0.2,0.7,1.3,1.3
			c1.3,0.7,1.7,1.7,1.7,2.7c0,1.8-1.3,3-3.3,3c-0.8,0-1.6-0.2-1.9-0.4L85.5,184.8z"/>
		<path id="s_26_" d="M99.1,184.8c0.4,0.2,1.1,0.4,1.6,0.4c0.8,0,1.2-0.4,1.2-0.8c0-0.6-0.4-0.9-1.2-1.3c-1.5-0.9-1.8-2-1.8-2.7
			c0-1.6,1-2.9,3.2-2.9c0.6,0,1.3,0.2,1.6,0.3l-0.3,1.9c-0.3-0.2-0.7-0.3-1.2-0.3c-0.7,0-1.1,0.4-1.1,0.8c0,0.4,0.2,0.7,1.3,1.3
			c1.3,0.7,1.7,1.7,1.7,2.7c0,1.8-1.3,3-3.3,3c-0.8,0-1.6-0.2-1.9-0.4L99.1,184.8z"/>
		<path id="o_13_" d="M115.6,187.1c-2.4,0-3.1-2.5-3.1-4.9c0-2.3,1-4.8,3.3-4.8c2.6,0,3.1,2.8,3.1,4.6
			C118.8,185.6,117.5,187.1,115.6,187.1L115.6,187.1z M115.7,185.2c0.6,0,0.9-1.1,0.9-3.1c0-1.6-0.2-2.9-0.9-2.9
			c-0.6,0-1,1.2-0.9,2.9C114.7,184.1,115,185.2,115.7,185.2L115.7,185.2z"/>
		<path id="c_13_" d="M132.5,186.9c-0.3,0.1-0.8,0.2-1.4,0.2c-2.7,0-3.8-2.2-3.8-4.7c0-3.5,2-5,4-5c0.7,0,1.2,0.1,1.3,0.3l-0.3,1.8
			c-0.2-0.1-0.4-0.2-0.8-0.2c-1.1,0-1.9,0.9-1.9,3c0,2,0.8,2.8,1.9,2.8c0.3,0,0.6-0.1,0.8-0.1L132.5,186.9z"/>
		<path id="i_41_" d="M143.5,177.5v9.5h-2.2v-9.5H143.5z"/>
		<path id="a_26_" d="M154.6,185.1l-0.3,1.9h-2.1l2-9.5h2.6l1.7,9.5h-2.1l-0.3-1.9H154.6z M156,183.5l-0.2-1.8
			c-0.1-0.5-0.2-1.6-0.3-2.2h0c-0.1,0.6-0.2,1.6-0.3,2.2l-0.3,1.8H156z"/>
		<path id="t_13_" d="M167.8,179.5h-1.6v-2h5.5v2H170v7.4h-2.2V179.5z"/>
		<path id="i_40_" d="M182.6,177.5v9.5h-2.2v-9.5H182.6z"/>
		<path id="_x30__13_" d="M194.7,187.1c-2.4,0-3.1-2.5-3.1-4.9c0-2.3,1-4.8,3.3-4.8c2.6,0,3.1,2.8,3.1,4.6
			C197.9,185.6,196.7,187.1,194.7,187.1L194.7,187.1z M194.8,185.2c0.6,0,0.9-1.1,0.9-3.1c0-1.6-0.2-2.9-0.9-2.9
			c-0.6,0-1,1.2-0.9,2.9C193.8,184.1,194.2,185.2,194.8,185.2L194.8,185.2z"/>
		<path id="n_13_" d="M206.9,187v-9.5h2l1.3,3.4c0.2,0.6,0.7,1.8,0.9,2.5h0c-0.1-0.8-0.2-2.6-0.2-4.4v-1.5h1.9v9.5h-2l-1.3-3.2
			c-0.3-0.7-0.7-2-0.9-2.7h0c0,0.8,0.1,2.4,0.1,4.2v1.6H206.9z"/>
	</g>
	<g id="highedweb_11_">
		<path id="h_27_" d="M76.2,143.4v10h4.4v-10h5.9v25.8h-5.9V159h-4.4v10.2h-5.9v-25.8H76.2z"/>
		<path id="i_39_" d="M94.7,147.7v21.5h-4.9v-21.5H94.7z"/>
		<path id="g_13_" d="M110.2,168.6c-0.9,0.4-3.1,0.8-4.7,0.8c-2.7,0-4.6-0.8-6-2.1c-2-1.9-2.9-5.1-2.9-8.7c0.1-7.6,4.7-11,9.6-11
			c1.8,0,3,0.4,3.7,0.7l-0.8,4.2c-0.6-0.3-1.5-0.5-2.5-0.5c-2.9,0-4.9,1.9-4.9,7c0,4.5,1.8,6.3,3.4,6.3c0.2,0,0.4,0,0.5-0.1v-4.4
			h-1.6v-4h6.1V168.6z"/>
		<path id="h_26_" d="M118.8,147.7v8.3h3.6v-8.3h4.9v21.5h-4.9v-8.5h-3.6v8.5h-4.9v-21.5H118.8z"/>
		<path id="e_27_" d="M142.3,158.3h-5.6v5.8h6.3v5.1h-12.2v-25.8h11.8v5.1h-5.9v4.8h5.6V158.3z"/>
		<path id="d_13_" d="M145.3,148.1c1.1-0.2,2.8-0.4,4.6-0.4c2.9,0,4.9,0.7,6.4,2c1.9,1.8,2.7,4.6,2.7,8.6c0,4.1-1.1,7.4-3.2,9.1
			c-1.5,1.3-3.6,2-6.8,2c-1.5,0-2.9-0.2-3.8-0.3V148.1z M150.2,165.3c0.2,0.1,0.4,0.1,0.7,0.1c1.7,0,3.1-2,3.1-7.3
			c0-4-0.9-6.5-3.1-6.5c-0.3,0-0.5,0-0.7,0.1V165.3z"/>
		<path id="w_13_" d="M163.7,169.2l-4.2-25.8h6.2l0.8,9.3c0.3,2.8,0.4,5.8,0.7,8.9h0.1c0.4-3.1,0.9-6,1.4-8.9l1.6-9.3h4.7l1.4,9.3
			c0.4,2.8,0.8,5.7,1.1,8.9h0.1c0.3-3.2,0.5-6,0.8-8.9l0.9-9.3h5.8l-4.3,25.8h-6.2l-1.1-6.7c-0.4-2.3-0.7-5.2-1.1-8.5h-0.1
			c-0.5,3.2-0.9,6.1-1.4,8.5l-1.4,6.7H163.7z"/>
		<path id="e_26_" d="M196.2,160.1h-4.7v4.8h5.3v4.3h-10.2v-21.5h9.8v4.3h-4.9v4h4.7V160.1z"/>
		<path id="b_13_" d="M199.7,148.1c1.4-0.3,3.2-0.4,5.3-0.4c2,0,4.1,0.2,5.7,1.5c1.2,1,1.7,2.5,1.7,4c0,1.8-0.9,3.7-3,4.7v0.1
			c2.5,0.7,3.7,2.8,3.7,5c0,1.8-0.6,3.2-1.6,4.2c-1.3,1.4-3.6,2.3-7.6,2.3c-1.6,0-3.1-0.1-4.2-0.3V148.1z M204.6,156.4h0.8
			c1.3,0,2.2-1.1,2.2-2.7c0-1.4-0.7-2.5-2-2.5c-0.4,0-0.8,0-1,0.1V156.4z M204.6,165.6c0.3,0.1,0.5,0.1,0.8,0.1
			c1.3,0,2.6-0.9,2.6-2.8c0-1.8-1.2-2.8-2.6-2.8h-0.8V165.6z"/>
	</g>
</g>
<path id="record" d="M269.6,193.2 M267.1,88.8 M141.6,57.3c-47.9,0-86.7,38.8-86.7,86.7s38.8,86.7,86.7,86.7s86.7-38.8,86.7-86.7
	S189.5,57.3,141.6,57.3z M267.1,89h-34.6H227v5.5v13.2v5.5h5.5c3.5,0,5.1,0.5,5.7,0.8l0,54.4c-0.6,0.3-2.2,0.8-5.7,0.8H227v5.5v13.2
	v5.5h5.5h37.1c0,0,0,0,0.1,0c-19.7,51.5-69.6,88.1-128.1,88.1c-75.7,0-137.1-61.4-137.1-137.1S65.8,7,141.6,7
	c56.1,0,104.3,33.6,125.5,81.8 M278.7,144.1 M141.6,49.6c22.1,0,42.4,7.6,58.5,20.3c0.6,0.5,1.5,0.6,2.3,0.3l3-1.2
	c1.6-0.7,1.9-2.8,0.6-3.9c-17.6-14.3-40-22.9-64.3-22.9l0,0c-24.6,0-47.3,8.8-64.9,23.4c-1.1,0.9-0.9,2.6,0.3,3.2l3,1.6
	c0.9,0.5,1.9,0.4,2.7-0.2C98.8,57.3,119.3,49.6,141.6,49.6 M141.1,237.7c-22.1,0-42.4-7.6-58.5-20.3c-0.6-0.5-1.5-0.6-2.3-0.3
	l-3,1.2c-1.6,0.7-1.9,2.8-0.6,3.9c17.6,14.3,40,22.9,64.3,22.9l0,0c24.6,0,47.3-8.8,64.9-23.4c1.1-0.9,0.9-2.6-0.3-3.2l-3-1.6
	c-0.9-0.5-1.9-0.4-2.7,0.2C183.9,230,163.4,237.7,141.1,237.7"/>
<g id="location">
	<path d="M808.9,168.9c0,3.8,3.5,5.6,10.5,5.6v13.2h-49.7v-13.2c7,0,10.5-1.9,10.5-5.6v-26.4c0-3.8-3.5-5.8-10.5-5.8v-12.9h39.2
		V168.9z M780.5,104.3c0-2,0.4-3.9,1.1-5.6c0.8-1.8,1.8-3.3,3.1-4.6c1.3-1.3,2.9-2.4,4.6-3.1c1.8-0.8,3.6-1.1,5.6-1.1
		c2,0,3.9,0.4,5.6,1.1c1.8,0.8,3.3,1.8,4.6,3.1c1.3,1.3,2.4,2.9,3.1,4.6c0.8,1.8,1.1,3.6,1.1,5.6c0,2-0.4,3.9-1.1,5.6
		c-0.8,1.8-1.8,3.3-3.1,4.6c-1.3,1.3-2.9,2.4-4.6,3.1c-1.8,0.8-3.6,1.1-5.6,1.1c-2,0-3.9-0.4-5.6-1.1s-3.3-1.8-4.6-3.1
		c-1.3-1.3-2.4-2.9-3.1-4.6S780.5,106.3,780.5,104.3z"/>
	<path d="M883.9,144.7l-12.9,0.8c-0.6-2-1.5-3.7-2.8-5.1c-1.3-1.4-2.7-2.5-4.3-3.3c-1.6-0.8-3.4-1.4-5.4-1.7c-2-0.3-4-0.5-6-0.5
		c-5.2,0-7.8,1.3-7.8,4c0,1.5,0.8,2.7,2.3,3.5c1.6,0.8,3.6,1.6,6.2,2.2c2.6,0.6,5.6,1.2,9,1.8c3.4,0.6,6.9,1.4,10.6,2.5
		c5.3,1.6,9.2,3.8,11.7,6.7c2.5,2.8,3.8,6.8,3.8,11.8c0,3.7-0.8,6.8-2.3,9.5c-1.5,2.6-3.4,4.8-5.7,6.5c-2.3,1.7-4.9,2.9-7.7,3.8
		c-2.8,0.8-5.6,1.3-8.4,1.3c-4.5,0-8.2-0.2-11-0.6c-2.8-0.4-5.1-0.9-6.8-1.3c-1.8-0.5-3.2-0.9-4.3-1.3c-1.1-0.4-2.2-0.6-3.3-0.6
		c-0.8,0-1.4,0.2-1.8,0.7c-0.5,0.5-0.9,1.3-1.3,2.4h-12.8v-21.5l12.8-0.5c0.5,1.8,1.5,3.3,3.1,4.5c1.6,1.3,3.5,2.3,5.7,3.1
		c2.2,0.8,4.6,1.5,7.2,1.9c2.6,0.4,5,0.6,7.5,0.6c4.6,0,6.9-1.5,6.9-4.6c0-1.5-0.6-2.7-1.9-3.5c-1.3-0.8-3.1-1.4-5.3-1.9
		c-2.2-0.5-4.8-0.9-7.8-1.3c-3-0.4-6.2-1-9.5-1.9c-3.7-0.9-6.7-2-9.1-3.3c-2.4-1.3-4.3-2.8-5.7-4.5c-1.4-1.7-2.4-3.6-3-5.6
		c-0.6-2.1-0.9-4.4-0.9-6.9c0-5.9,2-10.6,6-14.3c4-3.7,9.6-5.5,16.8-5.5c3.3,0,6.1,0.2,8.5,0.7c2.4,0.5,4.5,0.9,6.2,1.4
		c1.7,0.5,3.2,1,4.4,1.4c1.2,0.5,2.3,0.7,3.2,0.7c1.4,0,2.8-1,4.3-3h11.7V144.7z"/>
	<path d="M727.1,168.9v-12.6c0-10.4-2.3-15.6-7-15.6c-5.6,0-9.3,4.8-11.2,14.3v14c0,3.8,1.9,5.6,5.6,5.6v13.2h-44.8v-13.2
		c7,0,10.5-1.9,10.5-5.6v-59.3c0-3.8-3.5-5.6-10.4-5.6V91h39v45.6c5.5-9.4,14.3-14.1,26.5-14.1c13.6,0,20.3,6.2,20.3,18.7v27.7
		c0,3.8,3.6,5.6,10.7,5.6v13.2h-45.1v-13.2C725.1,174.5,727.1,172.6,727.1,168.9z"/>
	<path d="M579.7,204.4c7.1,0,10.7-1.9,10.7-5.6v-56.2c0-3.8-3.6-5.6-10.7-5.6v-13.2l35,0.1l0.9,10.5c1-2,2.3-3.8,4-5.4
		c1.7-1.6,3.6-3,5.7-4.1s4.4-2,6.8-2.6c2.4-0.6,4.8-0.9,7.3-0.9c3.9,0,7.5,0.6,10.9,1.9c3.3,1.3,6.1,3.3,8.5,6.1
		c2.4,2.8,4.2,6.4,5.6,10.8c1.3,4.4,2,9.7,2,15.9c0,6.2-0.7,11.4-2.2,15.7c-1.5,4.3-3.5,7.8-6.1,10.4c-2.6,2.6-5.8,4.5-9.5,5.7
		c-3.7,1.2-7.8,1.8-12.4,1.8c-3.3,0-6.4-0.3-9.5-0.9c-3.1-0.6-5.6-1.9-7.7-3.7v13.7c0,3.8,4.4,5.6,13.3,5.6v12.9h-52.6V204.4z
		 M626.9,138.7c-1.9,0-3.5,0.3-4.8,0.9c-1.3,0.6-2.3,1.6-3.1,3.1c-0.8,1.5-1.4,3.4-1.7,5.8c-0.3,2.4-0.5,5.3-0.5,8.8
		c0,3.5,0.2,6.5,0.5,8.8c0.3,2.4,0.9,4.3,1.7,5.8c0.8,1.5,1.8,2.5,3.1,3.1c1.3,0.6,2.8,0.9,4.8,0.9c1.8,0,3.5-0.3,4.8-0.9
		c1.4-0.6,2.5-1.6,3.4-3.1c0.9-1.5,1.5-3.4,1.9-5.8c0.4-2.4,0.6-5.3,0.6-8.8c0-3.5-0.2-6.5-0.6-8.8c-0.4-2.4-1.1-4.3-1.9-5.8
		c-0.9-1.5-2-2.5-3.4-3.1C630.4,139,628.8,138.7,626.9,138.7z"/>
	<path d="M541.7,168.9v-12c0-10.4-2.1-15.6-6.4-15.6c-5,0-8.4,4.8-10.2,14.3v13.4c0,1.9,0.5,3.3,1.6,4.3c1,0.9,2.3,1.4,3.7,1.4v13.2
		h-39v-13.2c3.5,0,5.3-1.9,5.3-5.6v-12c0-10.4-2.1-15.6-6.4-15.6c-5,0-8.4,4.8-10.2,14.3v13.4c0,3.8,1.8,5.6,5.3,5.6v13.2h-43.3
		v-13.2c6.4,0,9.5-1.9,9.5-5.6v-26.5c0-3.8-3.1-5.6-9.4-5.6v-12.9h37.9v12.8c5.1-9.4,13.1-14.1,24.1-14.1c2.6,0,5.1,0.3,7.5,0.9
		c2.4,0.6,4.5,1.5,6.3,2.7c1.8,1.2,3.4,2.7,4.6,4.5c1.2,1.8,2,3.8,2.3,6.1c2.9-5.4,6.4-9.1,10.4-11.1c4-2,8.7-3.1,13.9-3.1
		c3.1,0,5.9,0.4,8.5,1.2c2.6,0.8,4.7,2,6.6,3.5c1.8,1.5,3.3,3.5,4.3,5.8c1,2.3,1.6,5.1,1.6,8.1v27.7c0,3.8,3.2,5.6,9.7,5.6v13.2
		h-43.4v-13.2C540,174.5,541.7,172.6,541.7,168.9z"/>
	<path d="M396.3,157c0.3,6.8,1.3,11.6,3.3,14.5c1.9,2.9,5,4.3,9.3,4.3c3.2,0,6.1-0.9,8.9-2.8c2.8-1.9,4.6-4.6,5.4-8.1l13.3,0.9
		c-0.5,3-1.5,6-3,8.8c-1.5,2.9-3.5,5.4-6,7.7c-2.5,2.2-5.5,4-9.1,5.4c-3.6,1.4-7.6,2.1-12.2,2.1c-5.3,0-10.2-0.6-14.9-1.7
		c-4.6-1.1-8.7-3-12.2-5.6c-3.5-2.6-6.2-6.1-8.2-10.5c-2-4.4-2.9-9.8-2.9-16.3c0-11,3.1-19.4,9.3-25.4c6.2-6,15.2-9,27-9
		c5.9,0,11.1,0.6,15.4,1.9c4.3,1.3,7.9,3.4,10.7,6.2c2.8,2.8,4.9,6.5,6.3,11.1c1.3,4.6,2,10.1,2,16.5H396.3z M415.7,146.3
		c0-1.5-0.1-3.1-0.4-4.8c-0.3-1.7-0.8-3.3-1.6-4.7c-0.8-1.5-1.8-2.7-3-3.6c-1.3-1-2.8-1.4-4.6-1.4c-5.6,0-8.8,4.9-9.5,14.6H415.7z"
		/>
	<path d="M278.8,187.7l-19.2-73v54.1c0,3.8,3.7,5.8,11.2,5.8v13.2h-38.3v-13.2c7.4,0,11.2-1.9,11.2-5.8v-55.3
		c0-3.8-3.7-5.8-11.2-5.8V94.4h53.8l13.2,56.8l13.2-56.8H364v13.2c-7.5,0-11.3,1.9-11.3,5.8v55.3c0,3.8,3.8,5.8,11.3,5.8v13.2h-52.6
		v-13.2c7.4,0,11.2-1.9,11.2-5.8v-54.1l-19.2,73H278.8z"/>
</g>
<g id="conference-year">
	<path d="M386.2,105.1c0.1,0.4,0.7,0.6,1.6,0.6v1.7h-8.1v-1.7h1.6c0.4,0,0.6-0.1,0.6-0.4c0-0.1,0-0.1-0.1-0.2l-0.6-1.6h-5.4
		l-0.5,1.5c0,0.1-0.1,0.2-0.1,0.3c0,0.3,0.3,0.5,0.9,0.5h1.1v1.7h-5.7l0-1.7c0.6,0,1-0.1,1.3-0.2s0.4-0.2,0.5-0.4l4.5-12.7h4.1
		L386.2,105.1z M376.4,101.7h4.3l-2.1-6.6L376.4,101.7z"/>
	<path d="M402.4,104.8c0,0.6,0.6,0.9,1.7,0.9v1.7h-6.6v-1.7c0.8,0,1.1-0.3,1.1-0.9v-3.2c0-0.8-0.1-1.5-0.3-1.8
		c-0.2-0.4-0.6-0.6-1-0.6c-0.6,0-1.1,0.2-1.6,0.7s-0.8,1-1.1,1.8v3.1c0,0.6,0.4,0.9,1.1,0.9v1.7h-6.5v-1.7c1.1,0,1.7-0.3,1.7-0.9
		v-5.2c0-0.6-0.6-0.9-1.7-0.9v-1.6h5.4l0,2.1c0.5-0.7,1.1-1.3,1.8-1.7c0.7-0.4,1.6-0.6,2.6-0.6c1,0,1.8,0.2,2.4,0.7
		c0.6,0.5,0.8,1.2,0.8,2.3V104.8z"/>
	<path d="M418.7,104.8c0,0.6,0.6,0.9,1.7,0.9v1.7h-6.6v-1.7c0.8,0,1.1-0.3,1.1-0.9v-3.2c0-0.8-0.1-1.5-0.3-1.8
		c-0.2-0.4-0.6-0.6-1-0.6c-0.6,0-1.1,0.2-1.6,0.7s-0.8,1-1.1,1.8v3.1c0,0.6,0.4,0.9,1.1,0.9v1.7h-6.5v-1.7c1.1,0,1.7-0.3,1.7-0.9
		v-5.2c0-0.6-0.6-0.9-1.7-0.9v-1.6h5.4l0,2.1c0.5-0.7,1.1-1.3,1.8-1.7c0.7-0.4,1.6-0.6,2.6-0.6c1,0,1.8,0.2,2.4,0.7
		c0.6,0.5,0.8,1.2,0.8,2.3V104.8z"/>
	<path d="M434.6,104.8c0,0.6,0.5,0.9,1.6,0.9v1.6h-5.3v-2.1c-0.4,0.7-0.9,1.2-1.6,1.6c-0.7,0.4-1.5,0.6-2.5,0.6
		c-1.1,0-1.9-0.2-2.4-0.7c-0.5-0.5-0.8-1.2-0.8-2.3v-4.9c0-0.6-0.6-0.9-1.7-0.9v-1.6h5.3v5.8c0,0.8,0.1,1.5,0.3,1.9
		c0.2,0.4,0.5,0.6,1,0.6c0.6,0,1-0.2,1.4-0.7s0.7-1,0.9-1.8v-3.2c0-0.3-0.1-0.5-0.4-0.7c-0.2-0.2-0.6-0.2-1.1-0.2v-1.6h5.1V104.8z"
		/>
	<path d="M448.5,105.1c0,0.6,0.2,0.8,0.6,0.8c0.2,0,0.3-0.1,0.4-0.3c0.1-0.2,0.1-0.4,0.1-0.6v-1h1.2v0.6c0,0.6-0.1,1-0.3,1.4
		s-0.4,0.6-0.7,0.9s-0.6,0.4-0.9,0.4s-0.7,0.1-1,0.1c-0.8,0-1.4-0.2-1.8-0.6c-0.4-0.4-0.7-0.9-0.8-1.5c-0.1,0.3-0.3,0.6-0.5,0.8
		c-0.2,0.3-0.5,0.5-0.8,0.7c-0.3,0.2-0.7,0.4-1.2,0.5c-0.4,0.1-0.9,0.2-1.5,0.2c-1.2,0-2.2-0.3-2.7-0.8c-0.6-0.5-0.9-1.2-0.9-2.1
		c0-0.5,0.1-1,0.3-1.3c0.2-0.3,0.4-0.6,0.8-0.9c0.3-0.2,0.7-0.4,1.2-0.5c0.5-0.1,1-0.2,1.5-0.4c0.5-0.1,1.1-0.2,1.7-0.4
		c0.6-0.1,1.2-0.3,1.8-0.5v-0.6c0-0.3,0-0.6-0.1-0.8c-0.1-0.3-0.2-0.5-0.4-0.7s-0.4-0.4-0.7-0.5c-0.3-0.1-0.6-0.2-1-0.2
		c-0.6,0-1,0.1-1.4,0.2c-0.4,0.1-0.7,0.3-1,0.5c0.3,0,0.6,0.1,0.8,0.3s0.4,0.4,0.4,0.8c0,0.4-0.1,0.7-0.4,1
		c-0.3,0.2-0.7,0.4-1.2,0.4c-1.1,0-1.6-0.5-1.6-1.6c0-0.4,0.1-0.7,0.3-1.1c0.2-0.3,0.5-0.7,1-0.9c0.4-0.3,0.9-0.5,1.6-0.6
		s1.3-0.2,2.1-0.2c0.6,0,1.2,0.1,1.9,0.2c0.6,0.1,1.2,0.3,1.7,0.6c0.5,0.3,0.9,0.7,1.2,1.1c0.3,0.5,0.5,1.1,0.5,1.8V105.1z
		 M445.1,101.8c-0.6,0.3-1.2,0.5-1.7,0.7c-0.5,0.2-0.9,0.3-1.2,0.5c-0.3,0.2-0.6,0.4-0.8,0.6c-0.2,0.2-0.3,0.5-0.3,0.9
		c0,0.3,0.1,0.6,0.4,0.9c0.2,0.2,0.6,0.3,1.1,0.3c0.6,0,1.1-0.1,1.5-0.4s0.7-0.7,1-1.1V101.8z"/>
	<path d="M457.6,104.8c0,0.6,0.6,0.9,1.7,0.9v1.7h-7.1v-1.7c1.1,0,1.7-0.3,1.7-0.9V94.4c0-0.6-0.6-0.9-1.7-0.9v-1.6h5.4V104.8z"/>
	<path d="M482,97.3l-2,0.2c-0.2-1-0.6-1.9-1.2-2.4c-0.6-0.6-1.4-0.9-2.5-0.9c-1.5,0-2.6,0.5-3.2,1.5c-0.6,1-1,2.4-1,4.2
		c0,1,0.1,1.8,0.3,2.5c0.2,0.7,0.5,1.2,0.8,1.7c0.3,0.4,0.7,0.8,1.2,1c0.5,0.2,1,0.3,1.5,0.3c1.3,0,2.2-0.3,2.9-0.8
		c0.7-0.5,1.2-1.3,1.6-2.4l1.8,0.5c-0.2,0.7-0.4,1.3-0.7,1.9c-0.3,0.6-0.7,1.1-1.3,1.6c-0.5,0.5-1.2,0.8-1.9,1.1
		c-0.8,0.3-1.7,0.4-2.7,0.4c-1.1,0-2.1-0.2-3-0.5c-0.9-0.3-1.7-0.8-2.4-1.4c-0.7-0.6-1.2-1.4-1.6-2.4c-0.4-1-0.6-2.1-0.6-3.4
		c0-1.4,0.2-2.5,0.6-3.5c0.4-1,0.9-1.8,1.6-2.5c0.7-0.7,1.4-1.1,2.3-1.5c0.9-0.3,1.8-0.5,2.8-0.5c1,0,1.9,0.1,2.6,0.4
		s1.3,0.6,1.8,0.9l0.5-1h2V97.3z"/>
	<path d="M495.2,102.2c0,1.8-0.5,3.2-1.5,4.1c-1,0.9-2.4,1.4-4.3,1.4c-0.8,0-1.5-0.1-2.1-0.2c-0.7-0.2-1.3-0.4-1.8-0.8
		c-0.5-0.4-0.9-0.9-1.2-1.6c-0.3-0.7-0.5-1.5-0.5-2.6c0-3.8,1.9-5.7,5.8-5.7c0.8,0,1.5,0.1,2.2,0.3c0.7,0.2,1.3,0.5,1.8,0.9
		c0.5,0.4,0.9,1,1.2,1.7C495,100.2,495.2,101.1,495.2,102.2z M489.5,98.5c-0.7,0-1.3,0.3-1.6,0.8c-0.3,0.5-0.5,1.4-0.5,2.6
		c0,0.8,0,1.5,0.1,2c0.1,0.5,0.2,0.9,0.4,1.2s0.4,0.5,0.6,0.6c0.2,0.1,0.5,0.2,0.9,0.2c0.8,0,1.3-0.3,1.6-0.8
		c0.3-0.6,0.5-1.5,0.5-2.8c0-0.8,0-1.4-0.1-1.9c-0.1-0.5-0.2-0.9-0.4-1.2s-0.4-0.5-0.6-0.6C490.1,98.5,489.8,98.5,489.5,98.5z"/>
	<path d="M509.7,104.8c0,0.6,0.6,0.9,1.7,0.9v1.7h-6.6v-1.7c0.8,0,1.1-0.3,1.1-0.9v-3.2c0-0.8-0.1-1.5-0.3-1.8
		c-0.2-0.4-0.6-0.6-1-0.6c-0.6,0-1.1,0.2-1.6,0.7s-0.8,1-1.1,1.8v3.1c0,0.6,0.4,0.9,1.1,0.9v1.7h-6.5v-1.7c1.1,0,1.7-0.3,1.7-0.9
		v-5.2c0-0.6-0.6-0.9-1.7-0.9v-1.6h5.4l0,2.1c0.5-0.7,1.1-1.3,1.8-1.7c0.7-0.4,1.6-0.6,2.6-0.6c1,0,1.8,0.2,2.4,0.7
		c0.6,0.5,0.8,1.2,0.8,2.3V104.8z"/>
	<path d="M521.4,98.8c-0.8-0.1-1.5-0.1-2-0.2s-0.9-0.1-1.1-0.1v6.2c0,0.6,0.9,0.9,2.6,0.9v1.6h-8v-1.6c1.1,0,1.7-0.3,1.7-0.9v-6.2
		H513v-1.2c0.2-0.1,0.5-0.1,0.8-0.2c0.3,0,0.6-0.1,0.9-0.1v-1.6c0-1.4,0.4-2.4,1.1-3c0.7-0.6,1.9-0.9,3.3-0.9c1.2,0,2.2,0.2,2.9,0.6
		c0.7,0.4,1.1,1.1,1.1,2.1c0,0.5-0.2,0.9-0.5,1.2c-0.3,0.3-0.7,0.5-1.3,0.5c-0.5,0-0.9-0.1-1.1-0.4s-0.4-0.5-0.4-0.9
		c0-0.3,0.1-0.6,0.4-0.8c0.2-0.2,0.6-0.4,0.9-0.4c-0.3-0.4-0.7-0.6-1.4-0.6c-1,0-1.4,0.5-1.4,1.6v2.5h3.2L521.4,98.8z"/>
	<path d="M526.6,102.3c0,1.2,0.2,2.1,0.6,2.8c0.4,0.6,1,0.9,1.9,0.9c0.6,0,1.2-0.2,1.7-0.5c0.5-0.3,0.9-0.9,1-1.6l1.7,0.2
		c-0.1,0.5-0.3,0.9-0.5,1.4c-0.2,0.4-0.5,0.8-0.9,1.2c-0.4,0.3-0.9,0.6-1.4,0.8c-0.6,0.2-1.2,0.3-1.9,0.3c-0.8,0-1.5-0.1-2.2-0.3
		s-1.3-0.5-1.9-0.9c-0.5-0.4-1-1-1.3-1.7s-0.5-1.6-0.5-2.6c0-0.8,0.1-1.6,0.4-2.3c0.2-0.7,0.6-1.3,1.1-1.7c0.5-0.5,1.1-0.9,1.8-1.1
		c0.7-0.3,1.5-0.4,2.4-0.4c1.8,0,3.1,0.4,4,1.3c0.9,0.9,1.3,2.3,1.3,4.2H526.6z M530.8,100.9c0-0.3,0-0.7-0.1-1
		c-0.1-0.3-0.2-0.6-0.4-0.9s-0.4-0.5-0.6-0.6c-0.3-0.2-0.6-0.2-0.9-0.2c-0.6,0-1.1,0.2-1.5,0.7s-0.6,1.1-0.7,2.1H530.8z"/>
	<path d="M540.9,99c0.3-0.8,0.8-1.3,1.3-1.7c0.5-0.3,1.1-0.5,1.8-0.5c0.3,0,0.7,0.1,1,0.2s0.6,0.3,0.9,0.5c0.3,0.2,0.5,0.5,0.6,0.8
		c0.2,0.3,0.3,0.7,0.3,1.1c0,0.6-0.2,1.2-0.5,1.6c-0.3,0.4-0.8,0.6-1.3,0.6c-0.5,0-0.9-0.1-1.2-0.4c-0.3-0.3-0.4-0.6-0.4-1
		c0-0.3,0.1-0.6,0.3-0.9c0.2-0.3,0.5-0.4,1-0.4c-0.1-0.2-0.3-0.3-0.5-0.4c-0.2-0.1-0.4-0.1-0.6-0.1c-0.3,0-0.5,0.1-0.8,0.2
		c-0.3,0.2-0.5,0.4-0.8,0.6c-0.2,0.3-0.5,0.6-0.7,1c-0.2,0.4-0.3,0.8-0.5,1.2v3.5c0,0.3,0.2,0.5,0.5,0.7s0.8,0.2,1.4,0.2v1.7h-7.3
		v-1.7c1.1,0,1.7-0.3,1.7-0.9v-5.2c0-0.6-0.6-0.9-1.7-0.9v-1.6h5.4V99z"/>
	<path d="M552.1,102.3c0,1.2,0.2,2.1,0.6,2.8c0.4,0.6,1,0.9,1.9,0.9c0.6,0,1.2-0.2,1.7-0.5c0.5-0.3,0.9-0.9,1-1.6l1.7,0.2
		c-0.1,0.5-0.3,0.9-0.5,1.4c-0.2,0.4-0.5,0.8-0.9,1.2c-0.4,0.3-0.9,0.6-1.4,0.8c-0.6,0.2-1.2,0.3-1.9,0.3c-0.8,0-1.5-0.1-2.2-0.3
		s-1.3-0.5-1.9-0.9c-0.5-0.4-1-1-1.3-1.7s-0.5-1.6-0.5-2.6c0-0.8,0.1-1.6,0.4-2.3c0.2-0.7,0.6-1.3,1.1-1.7c0.5-0.5,1.1-0.9,1.8-1.1
		c0.7-0.3,1.5-0.4,2.4-0.4c1.8,0,3.1,0.4,4,1.3c0.9,0.9,1.3,2.3,1.3,4.2H552.1z M556.3,100.9c0-0.3,0-0.7-0.1-1
		c-0.1-0.3-0.2-0.6-0.4-0.9s-0.4-0.5-0.6-0.6c-0.3-0.2-0.6-0.2-0.9-0.2c-0.6,0-1.1,0.2-1.5,0.7s-0.6,1.1-0.7,2.1H556.3z"/>
	<path d="M574,104.8c0,0.6,0.6,0.9,1.7,0.9v1.7h-6.6v-1.7c0.8,0,1.1-0.3,1.1-0.9v-3.2c0-0.8-0.1-1.5-0.3-1.8c-0.2-0.4-0.6-0.6-1-0.6
		c-0.6,0-1.1,0.2-1.6,0.7s-0.8,1-1.1,1.8v3.1c0,0.6,0.4,0.9,1.1,0.9v1.7h-6.5v-1.7c1.1,0,1.7-0.3,1.7-0.9v-5.2
		c0-0.6-0.6-0.9-1.7-0.9v-1.6h5.4l0,2.1c0.5-0.7,1.1-1.3,1.8-1.7c0.7-0.4,1.6-0.6,2.6-0.6c1,0,1.8,0.2,2.4,0.7
		c0.6,0.5,0.8,1.2,0.8,2.3V104.8z"/>
	<path d="M587.9,103.8c-0.1,0.5-0.2,0.9-0.4,1.4s-0.5,0.9-0.9,1.2c-0.4,0.4-0.8,0.7-1.4,0.9s-1.2,0.3-1.9,0.3
		c-0.9,0-1.7-0.1-2.4-0.3c-0.7-0.2-1.4-0.5-1.9-1c-0.5-0.4-0.9-1-1.2-1.7c-0.3-0.7-0.4-1.5-0.4-2.4c0-0.8,0.1-1.6,0.4-2.3
		c0.2-0.7,0.6-1.3,1.1-1.8c0.5-0.5,1.1-0.9,1.8-1.2c0.7-0.3,1.5-0.4,2.5-0.4c0.7,0,1.3,0.1,1.9,0.2c0.6,0.1,1.1,0.3,1.5,0.6
		c0.4,0.3,0.8,0.6,1,1s0.4,0.9,0.4,1.4c0,0.5-0.1,0.9-0.4,1.2s-0.7,0.5-1.2,0.5c-0.5,0-0.9-0.1-1.2-0.4s-0.4-0.6-0.4-1
		c0-0.3,0.1-0.6,0.4-0.9c0.2-0.3,0.5-0.4,0.9-0.4c-0.4-0.5-1.1-0.7-2-0.7c-0.8,0-1.5,0.3-2.1,1c-0.5,0.6-0.8,1.6-0.8,2.8
		c0,1.4,0.2,2.5,0.7,3.1c0.5,0.6,1.1,0.9,2,0.9c0.6,0,1.2-0.2,1.6-0.5c0.5-0.3,0.8-0.9,0.9-1.7L587.9,103.8z"/>
	<path d="M593.2,102.3c0,1.2,0.2,2.1,0.6,2.8c0.4,0.6,1,0.9,1.9,0.9c0.6,0,1.2-0.2,1.7-0.5c0.5-0.3,0.9-0.9,1-1.6l1.7,0.2
		c-0.1,0.5-0.3,0.9-0.5,1.4c-0.2,0.4-0.5,0.8-0.9,1.2c-0.4,0.3-0.9,0.6-1.4,0.8c-0.6,0.2-1.2,0.3-1.9,0.3c-0.8,0-1.5-0.1-2.2-0.3
		s-1.3-0.5-1.9-0.9c-0.5-0.4-1-1-1.3-1.7s-0.5-1.6-0.5-2.6c0-0.8,0.1-1.6,0.4-2.3c0.2-0.7,0.6-1.3,1.1-1.7c0.5-0.5,1.1-0.9,1.8-1.1
		c0.7-0.3,1.5-0.4,2.4-0.4c1.8,0,3.1,0.4,4,1.3c0.9,0.9,1.3,2.3,1.3,4.2H593.2z M597.4,100.9c0-0.3,0-0.7-0.1-1
		c-0.1-0.3-0.2-0.6-0.4-0.9s-0.4-0.5-0.6-0.6c-0.3-0.2-0.6-0.2-0.9-0.2c-0.6,0-1.1,0.2-1.5,0.7s-0.6,1.1-0.7,2.1H597.4z"/>
	<path d="M620.7,103.7c0,0.2,0,0.4,0.1,0.6c0,0.2,0,0.4,0,0.6c0,0.4,0,0.7-0.1,1c-0.1,0.3-0.2,0.6-0.5,0.8s-0.5,0.4-0.8,0.6
		c-0.3,0.1-0.7,0.2-1.2,0.2c-0.7,0-1.3-0.1-1.8-0.2c-0.5-0.1-0.9-0.3-1.2-0.4c-0.4-0.2-0.7-0.3-1.1-0.4c-0.4-0.1-0.8-0.2-1.4-0.2
		c-0.5,0-0.9,0.1-1.2,0.3s-0.5,0.4-0.7,0.8h-1.5c0.2-1.1,0.5-2.1,0.9-2.8c0.4-0.7,0.9-1.3,1.4-1.8c0.5-0.5,1-0.9,1.6-1.2
		c0.5-0.3,1-0.7,1.5-1c0.4-0.3,0.8-0.7,1.1-1.2s0.4-1,0.4-1.8c0-0.7-0.2-1.3-0.6-1.7c-0.4-0.4-1-0.6-1.7-0.6c-0.7,0-1.2,0.1-1.5,0.3
		s-0.6,0.5-0.7,0.7c0.3,0,0.5,0.2,0.8,0.4c0.2,0.3,0.4,0.6,0.4,1c0,0.5-0.1,0.9-0.4,1.2s-0.7,0.5-1.2,0.5c-0.5,0-0.9-0.2-1.2-0.5
		s-0.4-0.7-0.4-1.3c0-0.4,0.1-0.9,0.3-1.3s0.5-0.9,0.9-1.3s1-0.7,1.6-1c0.7-0.3,1.4-0.4,2.4-0.4c0.7,0,1.4,0.1,2,0.2
		c0.7,0.1,1.2,0.4,1.8,0.7c0.5,0.3,0.9,0.8,1.2,1.3c0.3,0.5,0.5,1.2,0.5,2c0,0.9-0.2,1.7-0.6,2.3c-0.4,0.6-0.9,1.1-1.5,1.4
		c-0.6,0.4-1.2,0.7-2,0.9c-0.7,0.2-1.4,0.5-2,0.7s-1.2,0.5-1.7,0.8c-0.5,0.3-0.8,0.7-0.9,1.2c0.4-0.3,0.8-0.6,1.2-0.7
		c0.4-0.1,0.9-0.2,1.5-0.2c0.5,0,0.9,0,1.2,0.1c0.3,0.1,0.6,0.2,0.9,0.3c0.3,0.1,0.6,0.2,0.8,0.3c0.3,0.1,0.6,0.1,0.9,0.1
		c0.4,0,0.7-0.1,0.9-0.2c0.2-0.2,0.4-0.5,0.5-0.9H620.7z"/>
	<path d="M629.3,93.6c1,0,1.9,0.1,2.7,0.3s1.4,0.6,2,1.2c0.5,0.6,0.9,1.3,1.2,2.2c0.3,0.9,0.4,2.1,0.4,3.5c0,1.4-0.1,2.5-0.4,3.4
		c-0.3,0.9-0.7,1.6-1.2,2.1c-0.5,0.5-1.2,0.9-2,1.1c-0.8,0.2-1.7,0.3-2.7,0.3c-1,0-2-0.1-2.7-0.3c-0.8-0.2-1.4-0.6-2-1.1
		c-0.5-0.5-0.9-1.2-1.2-2.1c-0.3-0.9-0.4-2-0.4-3.4c0-1.4,0.1-2.5,0.4-3.5s0.7-1.7,1.2-2.2c0.5-0.6,1.2-0.9,2-1.2
		C627.3,93.7,628.2,93.6,629.3,93.6z M629.3,95.5c-0.5,0-0.8,0.1-1.1,0.3c-0.3,0.2-0.5,0.6-0.7,1c-0.2,0.4-0.3,1-0.4,1.7
		s-0.1,1.4-0.1,2.3c0,1,0,1.9,0.1,2.5c0.1,0.7,0.2,1.2,0.4,1.5c0.2,0.4,0.4,0.6,0.7,0.7c0.3,0.1,0.7,0.2,1.1,0.2
		c0.5,0,0.8-0.1,1.1-0.2c0.3-0.1,0.5-0.4,0.7-0.7c0.2-0.4,0.3-0.9,0.4-1.5c0.1-0.7,0.1-1.5,0.1-2.5c0-0.9,0-1.7-0.1-2.3
		s-0.2-1.2-0.4-1.7c-0.2-0.4-0.4-0.8-0.7-1C630.1,95.6,629.7,95.5,629.3,95.5z"/>
	<path d="M644.4,104.8c0,0.6,0.7,0.9,2.1,0.9v1.7H638v-1.7c1.7,0,2.5-0.3,2.5-0.9v-7.4h-2.7l-0.1-1.6c1.9,0,3.2-0.8,3.9-2.4l2.9,0.2
		c0,0.4-0.1,0.7-0.1,0.9c0,0.3,0,0.5,0,0.7V104.8z"/>
	<path d="M652.4,100.7c0.3-0.5,0.8-1,1.5-1.3c0.7-0.3,1.4-0.5,2.2-0.5c0.6,0,1.2,0.1,1.7,0.3c0.5,0.2,0.9,0.5,1.3,0.9
		c0.4,0.4,0.6,0.8,0.8,1.4c0.2,0.5,0.3,1.1,0.3,1.7c0,0.6-0.1,1.2-0.3,1.8s-0.5,1-1,1.4s-1,0.7-1.8,1s-1.7,0.4-2.8,0.4
		c-0.9,0-1.7-0.1-2.4-0.4c-0.7-0.2-1.3-0.6-1.8-1.2c-0.5-0.6-0.9-1.3-1.1-2.2c-0.3-0.9-0.4-2-0.4-3.3c0-0.9,0.1-1.8,0.3-2.7
		s0.6-1.6,1.1-2.2c0.5-0.6,1.1-1.2,1.9-1.6c0.8-0.4,1.8-0.6,2.9-0.6c0.6,0,1.2,0.1,1.8,0.2s1.2,0.3,1.6,0.6c0.5,0.3,0.9,0.6,1.2,1
		c0.3,0.4,0.5,0.9,0.5,1.5c0,0.5-0.1,0.9-0.4,1.2c-0.3,0.3-0.7,0.4-1.2,0.4c-0.5,0-0.9-0.1-1.2-0.4c-0.3-0.3-0.4-0.7-0.4-1.1
		c0-0.4,0.1-0.7,0.3-0.9s0.5-0.3,0.7-0.4c-0.2-0.3-0.6-0.4-1-0.6c-0.4-0.1-0.9-0.2-1.4-0.2c-0.5,0-1,0.1-1.4,0.2
		c-0.4,0.2-0.7,0.4-1,0.8s-0.5,1-0.6,1.7C652.5,98.6,652.4,99.5,652.4,100.7z M654.7,100.7c-0.6,0-1.1,0.2-1.4,0.6
		c-0.4,0.4-0.5,1.1-0.5,2c0,0.6,0,1.1,0.1,1.4c0.1,0.4,0.2,0.7,0.4,0.9s0.4,0.4,0.6,0.5c0.2,0.1,0.5,0.1,0.8,0.1
		c0.6,0,1.1-0.2,1.5-0.6c0.3-0.4,0.5-1.1,0.5-2.2c0-0.5,0-1-0.1-1.3c-0.1-0.4-0.2-0.6-0.4-0.9s-0.4-0.4-0.6-0.5
		C655.2,100.8,655,100.7,654.7,100.7z"/>
</g>
</svg>
