<?xml version="1.0" encoding="utf-8"?>
<!-- Generator: Adobe Illustrator 19.2.1, SVG Export Plug-In . SVG Version: 6.00 Build 0)  -->
<svg version="1.1" id="Layer_1" xmlns:sketch="http://www.bohemiancoding.com/sketch/ns"
	 xmlns="http://www.w3.org/2000/svg" xmlns:xlink="http://www.w3.org/1999/xlink" x="0px" y="0px" viewBox="0 0 394 395"
	 style="enable-background:new 0 0 394 395;" xml:space="preserve">
<style type="text/css">
	.st0{fill:#FFFFFF;}
</style>
<title>record-level</title>
<desc>Created with Sketch.</desc>
<g id="Sponsors" sketch:type="MSPage">
	<g id="Desktop" transform="translate(0.000000, -2594.000000)" sketch:type="MSArtboardGroup">
		<g id="platinum-marker" transform="translate(0.000000, 2611.000000)" sketch:type="MSLayerGroup">
			<g id="record-level" sketch:type="MSShapeGroup">
				<g transform="translate(-27.000000, -46.000000)">
					<path id="Shape" class="st0" d="M222.6,30.3c126.1,5.5,197.6,101.5,197.1,193.1c-0.3,55.8-20.1,103.6-61,142.1
						s-89.3,55.9-145,52.9c-50.9-2.8-94.3-23.1-129.2-60C46.7,318.2,28.6,270.1,31.5,215c2.8-52.9,23.6-97.8,62.9-133.7
						C133.5,45.7,179.7,29.4,222.6,30.3L222.6,30.3z M366.6,113v0.2V113L366.6,113L366.6,113z M370.8,118.9v-0.1V118.9l0.1,0
						L370.8,118.9z M102,100.7L102,100.7L102,100.7l0.1,0.1L102,100.7L102,100.7z M371.5,120.1L371.5,120.1L371.5,120.1l0.6,0.1
						l-0.1,0.6l0.7,0.4v-0.2l-0.7-0.1v-0.6L371.5,120.1z M369.9,117L369.9,117h0.1v0.1L369.9,117z M80.8,96.8L80.7,97L80.8,96.8
						l0.2,0l-0.1-0.2L80.8,96.8z M109.8,87.4h-0.1l0.1-0.2L109.8,87.4L109.8,87.4L109.8,87.4z M362.8,335.2L362.8,335.2L362.8,335.2
						L362.8,335.2L362.8,335.2z M91.9,116L91.9,116L91.9,116L91.9,116L91.9,116z M375.5,125.4l-0.2-0.3l-0.1,0.1L375.5,125.4
						l0.1,0.1c0,0,0-0.1,0-0.1L375.5,125.4z M94.1,101.3L94.1,101.3L94.1,101.3L94.1,101.3z M89.5,106.3L89.5,106.3L90,106l1.3-1.3
						h0.5l-0.2-0.2h0.2c0,0.1-0.1,0.1-0.2,0.2h-0.5l-1.3,1.3L89.5,106.3z M94.3,366.3v0.2V366.3L94.3,366.3v-0.2
						C94.3,366.2,94.3,366.2,94.3,366.3L94.3,366.3z M92.9,365.6L92.9,365.6L92.9,365.6L92.9,365.6L92.9,365.6z M157.9,58.5
						L157.9,58.5L157.9,58.5L157.9,58.5z M314.3,371.6L314.3,371.6L314.3,371.6L314.3,371.6z M126.7,365.7L126.7,365.7h-0.1V365l0,0
						L126.7,365.7z M166.7,44v0.1l0,0h0.1L166.7,44z M318.6,54.9L318.6,54.9h0.1l0,0l0,0H318.6z M115.8,68.4L115.8,68.4L115.8,68.4
						L115.8,68.4L115.8,68.4z M71.6,341.9l0.4,0.3l0.1,0.3l-0.2-0.2L71.6,341.9l-0.3-0.3l0,0h0.1L71.6,341.9z M353.9,85.1
						L353.9,85.1L353.9,85.1l-0.2-0.6h-0.5l-0.5-0.7l-0.9-1.4l-0.5,0.5l1.4,0.9l0.4,0.7l0.4,0.1L353.9,85.1z M332,358.8L332,358.8
						L332,358.8L332,358.8L332,358.8z M146.8,72h-0.1l0.1-0.1h-0.1L146.8,72z M109,71.5L109,71.5L109,71.5v0.2V71.5z M72.8,343.4
						L72.8,343.4L72.8,343.4L72.8,343.4z M87.1,348l0.2,0.4l0.4,1.2l0.6-0.6l-0.8-0.7L87.1,348l-0.2-0.5c-2.4-2.8-4.9-5.5-7.2-8.4
						c-12.6-16-22.5-34-29.3-53.3c-7.3-20.6-10.8-42.3-10.3-64.1c0.3-10.1,1.3-20.1,3-30.1c3-18.1,8.9-35.5,17.5-51.7
						c2.5-4.9,5.3-9.8,8.1-14.8c-3,2.8-6.9,5-8.8,8.2c-11.4,20-18.9,42.1-22,64.9c-2.3,14.5-2.6,29.2-0.9,43.8
						c1.4,11.3,3.4,22.5,6.1,33.5c4.6,17.6,12,34.3,21.9,49.5c3,4.6,6.3,9.1,9.9,13.3c0.9,1.1,2.9,1.1,4.1,2
						c1.3,1.1,2.5,2.4,3.6,3.7c1.3,1.3,2.7,2.5,4.1,3.7L87.1,348z M173,38.8l0.2-0.3h-0.1C173.1,38.6,173.1,38.7,173,38.8L173,38.8
						L173,38.8z M92.7,103.5v-0.2C308.1,25.1,92.7,103.4,92.7,103.5L92.7,103.5L92.7,103.5z M153.1,68.4l0.7-0.2l0.6-0.1l-0.1-0.2
						l-0.5,0.3L153.1,68.4L153.1,68.4L153.1,68.4z M152.4,69.2l-1-0.2c-0.1,0.1-0.1,0.2-0.2,0.3c0,0,0.1,0.1,0.1,0.1l0.1-0.4
						L152.4,69.2L152.4,69.2L152.4,69.2z M346.5,84l0.2,0.4l2.6,2.4l0.4-0.6l-3-1.8l-0.3-0.4h-0.1L346.5,84z M386.4,125.5l-0.5-0.2
						l-2.4-3.7l-0.2-0.7h-0.1l0.4,0.7l2.4,3.7L386.4,125.5l-0.1,0.9l0,0C386.3,126.1,386.4,125.8,386.4,125.5L386.4,125.5z
						 M75,104.3v-0.9L76,103v-0.3v0.3c-0.3,0.1-0.6,0.3-0.9,0.4L75,104.3l-0.1-0.1L75,104.3z M156.8,67l-0.7,0.1l0,0
						c-0.4,0.4-0.2,0.2,0,0L156.8,67L156.8,67L156.8,67z M317.5,54.6L317.5,54.6l-0.7-0.3l-1.1-0.2l0,0c-0.3-0.4-0.1-0.2,0,0
						l1.1,0.2L317.5,54.6z M85.4,111.3c0,0,0.1,0,0.1,0c0,0,0-0.1,0-0.1L85.4,111.3L85.4,111.3L85.4,111.3z M314,53.2
						c0.1,0,0.2,0,0.3,0c0.1,0,0.2-0.1,0.2-0.1L314,53.2l-0.5-0.5l-0.6-0.5h-0.9l-2.1-1.6l-0.3,0.4l2.4,1.1l0.9,0.1l0.6,0.5
						L314,53.2z M338.2,84.4L338.2,84.4L338.2,84.4l-0.1,0.2h0.2L338.2,84.4z M152.7,45.5l0.5-0.4h0.1h-0.1L152.7,45.5l-0.6,0.3
						l-6.3,2.9h0h0.1l6.4-2.9L152.7,45.5z M88.4,108.1l0.2-0.1l-0.1-0.1L88.4,108.1l-0.3,0.4l-0.5,0.3h0.1l0.4-0.4L88.4,108.1z
						 M342.1,88.3l-0.1-0.5l-0.3-0.5l-0.2,0.2l0.5,0.2v0.6h1l0.2,1l0,0h-0.1l-0.2-0.9h-1L342.1,88.3z M99,352.3l0.2,0.6l1.5,1
						l0.3,0.6l0.4,0.9v-0.1h0.1h-0.1l-0.4-0.8l-0.2-0.6l-1.5-1L99,352.3h-0.1v-0.1L99,352.3z M117.3,384.9L117.3,384.9L117.3,384.9
						l0.8,0.2l1.7,1.5l0.2,0.3l0.1-0.1l-0.4-0.2c-0.6-0.5-1.1-1-1.7-1.5L117.3,384.9z M164.1,404.5L164.1,404.5L164.1,404.5l0.1,0.1
						L164.1,404.5z M89.8,119v-0.8l0.7-0.7h0.1l0,0c-0.2,0.3-0.5,0.5-0.7,0.8c-0.2,0.3,0,0.5,0,0.8l-0.5,0.2l-1.4,1.7v0.8
						c-1.5,1.2-3,2.4-4.6,3.5c-0.7,0.3-1.4,0.5-2.1,0.7l-0.9-1.2c-3.8,6.6-7.6,13.1-11.3,19.8c-9.1,17-15,35.5-17.4,54.6
						c-1.3,11.1-1.8,22.3-1.5,33.5c0.4,20,4.7,39.8,12.6,58.2c8.2,19.5,18.2,37.9,34.7,52c1.5,1.2,3.1,2.3,4.8,3.3
						c-3.5-4.9-7.3-9-10.5-13.6c-7-10.3-13.6-20.8-20.3-31.3c0-0.4,0.1-0.7,0.3-1c1.2,2.2,2.3,4.4,3.5,6.6
						c11.2,20.5,26.5,38.4,44.9,52.7c50.2,39.2,118.2,47.1,176,20.5c14.6-6.7,28.3-15.4,40.5-25.8c0.1-0.3,0.1-0.7,0-1l0,0
						c2.4-1.6,4.7-3.3,6.9-5.2c11.4-11.2,21.4-23.8,29.5-37.5c11.5-19.5,18.9-41.2,21.9-63.7c1.7-13.3,1.9-26.8,0.4-40.1
						c-2.1-19.7-7.6-38.8-16.2-56.7c-8.7-17.8-20.4-33.9-34.6-47.7c-13.5-13.2-29.2-24.1-46.3-32.1c-18.3-8.8-38.2-14.2-58.5-15.7
						C229.1,53.8,218,54,207,55c-9.1,0.7-18,2.3-26.8,4.9c-13.3,4.1-26.8,7.8-38.3,16.3c-6.9,5.1-14.7,8.9-21.7,13.9
						C105.6,101,93,114.3,83.1,129.5c-16.5,24.3-26.3,52.6-28.2,81.9c-0.6,10.5-0.4,21,0.5,31.5c1.8,20,7.3,39.5,16.5,57.4
						c-0.5-0.3-1-0.7-1.4-1.2c-6.6-13.6-11.4-28.1-14-43c-3.8-20.6-3.9-41.7-0.1-62.3c3.1-17.6,9-34.5,17.5-50.1
						c4.2-7.6,9.4-14.6,14.2-21.9v-0.9l1.3-1.7L89.8,119z M382.9,137h-0.3H382.9l-0.2,1l0.4,0.6c0.3,1.7,0.5,3.4,0.9,5
						c0.6,3,1.4,5.9,2.3,8.8c2.9,8.4,6.4,16.6,8.9,25c5.6,18.5,7.7,37.8,6.1,57c-1.3,12.9-3.5,25.8-6.6,38.4
						c-3,13.9-9.1,26.8-16.4,39.1c-4.4,7.6-9.5,14.8-14,21.9l1.1-0.3l-0.4,1.9c1.1-0.5,2.6-0.6,3-1.4c5.3-7.9,10.7-15.8,15.5-24
						c8.5-14.5,14.4-30.2,17.6-46.7c2.2-11.2,3.6-22.5,4-33.9c0.3-11-0.4-22-1.9-32.9c-2.6-17.7-8-34.9-16-51
						c-1.2-2.4-2.8-4.7-4.2-7.1l-0.4-0.5C382.9,137.7,382.9,137.4,382.9,137L382.9,137z M307.1,384.2l-0.4,0.4l-0.9,0.6l-0.6,0.2
						l0.1,0.2l0.5-0.5l0.9-0.6h0.5L307.1,384.2c0.1,0,0.1,0,0.2,0c0,0,0,0.1,0,0.1L307.1,384.2z M272.3,403.5l-0.1,0.4
						c0,0,0.1,0,0.1,0C272.3,403.8,272.3,403.7,272.3,403.5L272.3,403.5L272.3,403.5L272.3,403.5z M128.8,391.9l0.2,0.2L128.8,391.9
						l-0.5-0.3v0.1L128.8,391.9z M367.1,114.4l0.5,0.3l1.2,1.9l0.4-0.3l-1.6-1.5L367.1,114.4l0.1-0.5h-0.1
						C367.1,114.1,367.1,114.3,367.1,114.4L367.1,114.4z M110.5,85.9l0.6,0.1c-86.4-60.9,0-0.1,0-0.1L110.5,85.9l0,0.4L110.5,85.9z
						 M281.4,395.6l-0.7,0.2h-1l-0.8,0.3l-0.4,0.2l0.2,0.1l0.1-0.3l0.9-0.2h1L281.4,395.6L281.4,395.6L281.4,395.6z M94.8,112.2h0.4
						H94.8v0.4V112.2z M80.7,353.1L80.7,353.1l0.3,0.6v-0.2l0.2,0.2H81L80.7,353.1z M312.7,372l-0.3,0.9l-1.5,0.2l-0.3,1l-0.5-0.2
						v0.1l0.5,0.1l0.2-1.1l1.5-0.2L312.7,372h0.2H312.7z M138.5,388.6v-0.2h-0.2L138.5,388.6L138.5,388.6L138.5,388.6L138.5,388.6z
						 M335.5,82.5l-0.8-0.1c-0.2-0.5-0.4-0.9-0.7-1.4l0,0l0.6,1.4L335.5,82.5l0.9,0.5l0.6,0.8l0,0h-0.1l-0.6-0.8L335.5,82.5z
						 M305.4,380.9l0.9-0.7l0,0v0.1L305.4,380.9l-0.4,0L305.4,380.9z M140.8,51.1L140.8,51.1C141.1,50.6,140.9,50.9,140.8,51.1
						L140.8,51.1L140.8,51.1L140.8,51.1z M114.4,74.4l0.5-0.3l-0.2-0.3L114.4,74.4l-0.2,0C114.3,74.5,114.3,74.5,114.4,74.4
						C114.4,74.5,114.4,74.5,114.4,74.4L114.4,74.4z M358.1,90.3L358.1,90.3L358.1,90.3C358.6,90.6,358.3,90.5,358.1,90.3
						L358.1,90.3z M174.4,396.8l-0.2,0.1v-0.1L174.4,396.8l0.4,0.5l0.2-0.1L174.4,396.8z M373.3,122.3l-0.1-0.3L373.3,122.3l0.3,0.4
						l0.2-0.1L373.3,122.3z M174.4,403.2L174.4,403.2l-1.1-0.4l-2.1-1l-0.2,0.4l2.3,0.6L174.4,403.2z M100.2,96l-0.9,0.8l0,0v0.1
						L100.2,96L100.2,96L100.2,96z M377,127.9L377,127.9L377,127.9L377,127.9C376.3,127.6,376.7,127.8,377,127.9L377,127.9z
						 M188.6,39.7L188.6,39.7C189,39.4,188.8,39.5,188.6,39.7l-1.3-0.2l-1.4,0.6l0.1,0.2l1.3-0.7L188.6,39.7z M140.7,59.5l1.6-0.2
						l-0.1-0.2v0.2L140.7,59.5L140.7,59.5L140.7,59.5z M387.8,128.6v-0.2V128.6L387.8,128.6C388.3,128.8,388.1,128.6,387.8,128.6
						L387.8,128.6z M402.7,147l-0.1-0.3l-0.2,0.2L402.7,147l0.6,1.3v0.1h0.1L402.7,147z M389.8,131.6v-0.2V131.6l-0.5-1.3l-0.4,0.2
						L389.8,131.6z M88.1,89L88.1,89C87.6,89.4,87.9,89.2,88.1,89L88.1,89L88.1,89z M168.1,43.7l1.3-0.7l0.2,0.1l-0.2-0.2
						L168.1,43.7L168.1,43.7L168.1,43.7z M243.4,45.7h-0.2H243.4C244,45.6,243.7,45.7,243.4,45.7L243.4,45.7z M166.2,405.6l0.1-0.2
						l0.1,0.2H166.2l-0.9-0.8l-0.2,0.3L166.2,405.6z M267.5,413.2h-0.1C266.8,413.5,267.1,413.4,267.5,413.2l1.5-0.1v-0.3
						L267.5,413.2z M83.3,114.9l1.3-1.8l0,0l0,0L83.3,114.9h-0.4H83.3z M318.8,64.5c0,0,0,0.1,0,0.1l-0.1-0.2l-1.6-1.4l-0.3,0.5
						L318.8,64.5z M132.1,394.1L132.1,394.1L132.1,394.1l-1.3-1.2l-0.3,0.3L132.1,394.1z M209.2,49l-3.5,0.3l0,0v-0.1L209.2,49
						L209.2,49L209.2,49z M59.5,124.6l3-3.1l-0.5-0.5L59.5,124.6L59.5,124.6v0.3V124.6z M82.9,93.6l4.1-3.1l-0.4-0.5L82.9,93.6
						l0,0.6h0.2L82.9,93.6z M174.5,38.2l5.6-1l-0.2-0.7L174.5,38.2l-0.5,0v0.1L174.5,38.2z M375.8,141.3l-0.4-1.6l-0.5,0.2
						L375.8,141.3c4.1,9.3,8.7,18.4,12.2,27.8c6.9,18.7,10,38.5,9.2,58.3c-0.7,12.7-2.3,25.3-4.9,37.7c-3,15.5-9.3,29.9-17.2,43.6
						c-3.9,6.7-7.9,13.4-11.9,20.1c-1,1.8-4.5,3-0.7,6.1c4.3-6.4,8.7-12.8,12.8-19.3c10.3-15.9,17.5-33.6,21.2-52.1
						c2.4-12.9,3.8-26,4.3-39.1c0.6-17.4-2-34.8-7.7-51.2c-3.2-8.9-6.9-17.7-11.1-26.2C380.9,144.6,377.9,143.1,375.8,141.3
						L375.8,141.3z M405.9,166.6c0.3,0.4,0.6,0.9,0.8,1.4c2,8.2,4.3,16.4,5.8,24.7c6.3,37.3,1.4,75.6-14.1,110.1
						c-7.9,17.5-18.4,33.7-31.2,48c2.1-1.1,4.1-2.4,6-3.8c1.5-1.3,2.4-3.2,3.8-4.6c2.1-2.2,4.7-4,6.6-6.4c2.4-3.1,4.6-6.4,6.6-9.8
						c8.8-14.5,15.8-30.1,20.8-46.4c5.4-18,8.1-36.7,8.1-55.5c0-20.4-3.3-40.7-9.8-60.1c-1-3,0-7.9-5.1-8.9c-0.3-0.3-0.4-0.6-0.6-1
						c-1.8-2.6-3.5-5.1-5.2-7.7v-0.2v0.2c1.1,2.6,2.4,5.1,3.3,7.7c1.5,4.1,2.8,8.3,4.2,12.4h0.1L405.9,166.6z M396.6,143.7
						L396.6,143.7L396.6,143.7l-0.9,1.3l-1.5-2.1l-8.3-11.4v-0.4h-0.1l0.2,0.3c0.1,0.2,0.1,0.5,0.2,0.7
						c5.5,12.7,11.7,25.1,16.3,38.1c5.6,15.5,8.3,31.9,8.1,48.3c0,13.4-1.1,26.9-3.4,40.1c-2.5,13-6.3,25.7-11.4,37.9
						c-4.3,10.7-10.7,20.6-16.4,30.8c-2.5,4-5.2,7.9-8.1,11.6h1.4c0,0.8-0.1,1.6-0.1,2.4v1.4c0.2-0.1,0.4-0.2,0.6-0.4
						c5.5-8.1,11.4-16.1,16.4-24.5c12.1-20.1,19.8-42.5,22.8-65.7c1.4-11.9,2-23.8,1.8-35.8c-0.5-20.5-4.6-40.7-12.2-59.7
						C400.2,152.4,398.3,148,396.6,143.7L396.6,143.7z M78.8,126.7c-2.6,1.6-5.5,2.8-7.6,4.9c-2.1,2.1-2.8,4.8-4.2,7.3
						c-11.9,21.5-19,45.3-21,69.7c-0.8,8.9-0.9,17.8-0.2,26.7c0.9,11.4,2.6,22.7,5.1,33.9c4.9,20.6,13.7,40.1,26.1,57.4
						c3.8,5.4,6.8,11.9,14.1,14c-0.1-0.3-0.2-0.7-0.4-1c-2.3-3.2-4.6-6.5-6.9-9.6c-15-20.1-25.5-43.2-30.8-67.7
						c-4.9-22.7-5.3-46-1.3-68.9c2.3-13.8,6.5-27.3,12.3-40.1c3.5-7.6,7.9-14.9,11.8-22.3H76h-0.1L78.8,126.7L78.8,126.7L78.8,126.7
						z M127.8,68.9c-0.3,0-0.6,0-0.9,0.1c-4.4,3-8.9,5.9-13.3,9c-11.7,8.2-21.4,18.6-30.4,29.4c-7.7,9.5-14.5,19.6-20.5,30.2
						c-11.8,20.6-18.3,43.1-20.8,66.6c-0.9,9.5-1.2,19.1-0.8,28.7c0.9,25.9,7.5,51.4,19.4,74.5c20.5,40.5,55.1,72,97.3,88.7
						c22.9,9.1,47.5,13.4,72.2,12.7c32.7-0.8,64.6-10.4,92.3-27.7c12.3-7.5,23.7-16.4,33.9-26.6c16.1-16,29.1-35,38.2-55.8
						c8.3-18.5,13.4-38.3,14.9-58.6c0.7-10.6,0.7-21.1,0-31.7c-1.6-21.8-7.4-43.1-17-62.8c-19.1-40-51.9-71.9-92.5-89.9
						c-19.2-8.7-39.9-13.8-61-15.1c-13.1-0.5-26.2,0-39.3,1.4c-18.4,1.8-35.7,8.1-52.5,15.5c-5.5,2.4-10.7,5.6-16,8.4
						c6.8-1.5,13.4-3.6,19.8-6.2c15.3-6.8,31.4-11.5,47.9-14c5.5-0.8,11.1-1.2,16.7-1.8l0,0c4.6-0.5,9.3-0.7,14-0.6
						c6.9,0.4,13.7,1.4,20.5,2.3c17.6,2.4,34.8,6.6,50.8,14.6c7.5,3.8,15,7.8,22.2,12.2c16.7,10.5,31.6,23.9,43.8,39.4
						c12.5,15.5,22.3,33,29,51.7c8,21.7,11.5,44.7,10.4,67.8c-0.7,11.6-2.3,23.1-4.7,34.4c-4.2,20.6-12.9,39.4-24.2,57
						c-10.5,16.3-23.6,30.7-38.8,42.6c-16.3,13-34.8,23.1-54.5,29.9c-19.4,6.7-39.9,10-60.5,9.8c-13.6,0-27.1-1.7-40.3-4.9
						c-21.5-5.1-41.8-14.2-59.9-26.7c-15.2-10.4-28.7-23-40-37.5c-9.1-11.7-16.8-24.4-22.9-37.9c-6.9-15.3-11.6-31.4-13.9-48
						c-2.4-17.4-2.3-35,0.3-52.3c2-13.7,5.6-27.1,10.7-40c13.6-34.4,37.5-63.7,68.4-84c3.8-2.5,7.6-4.9,11.4-7.3
						c-2.8,1-5.5,2.3-8.1,3.7c-1.2,0.6-2.4,1.1-3.7,1.7L127.8,68.9L127.8,68.9z M51.2,142l-0.8-0.6c-2,4.9-4.2,9.7-6.1,14.6
						c-8.1,21.4-12.4,44.1-12.5,67c-0.4,17,1.6,33.9,6.2,50.2c6.3,22.2,14.1,43.8,29.7,61.7c1.4,1.6,2.7,3.4,4.2,5
						c0.3,0.2,0.7,0.3,1.1,0.4c0.1-0.3,0.1-0.6,0-0.9c-1.4-2.5-2.7-5.1-4.3-7.5c-10.6-15.6-18.8-32.6-24.5-50.6
						c-5.2-15.7-8-32.1-8.3-48.7c0-12.1,0.7-24.1,2.1-36.1c1.8-16.4,6.8-32.1,13.3-47.2c2.6-6.1,5.9-11.9,8.8-17.8
						c0.2-0.6,0.3-1.2,0.3-1.8c-0.5,0.3-0.9,0.7-1.2,1.1c-2.2,3.5-4.3,7-6.5,10.4C52.1,141.5,51.7,141.8,51.2,142L51.2,142z
						 M262.6,48.5l-0.1,0.3l8.5,2l0.1-0.4L262.6,48.5z M248.2,40.4l-0.1,0.5l4.8,0.6v-0.4L248.2,40.4z M208.1,39.8v0.4l5.9-0.5v-0.4
						L208.1,39.8z M211.3,53v0.4l4.7-0.7v-0.4L211.3,53z M268.4,36.4V36l-3.9-0.8v0.3L268.4,36.4z M241.8,40v0.3l3.8,0.3h1.1
						c-1.4-0.4-2.8-0.5-4.2-0.6C242.3,40,242.1,40,241.8,40L241.8,40z M239.4,404v-0.3l-2.9,0.3v0.3L239.4,404z M195.6,47.1v0.3
						l2.7-0.4v-0.3L195.6,47.1z M206.9,53.6v0.3l3.3-0.4v-0.4L206.9,53.6z M220.6,39.1v0.3h2.9v-0.1L220.6,39.1z M215,39.4v0.4
						l2-0.2v-0.2L215,39.4z M224.5,409.7c0,0.1,0,0.2,0,0.4l1.3,0v-0.3L224.5,409.7z M96,368.4l0.3-0.4l-1.3-1l-0.2,0.3L96,368.4z
						 M287.1,41.2l-0.1,0.4l1.8,0.5l0.1-0.3L287.1,41.2z M231.6,404.4v-0.3l-2.2,0.1v0.4L231.6,404.4z M162.4,61.3l-0.1-0.3
						l-1.4,0.4l0.1,0.3L162.4,61.3z M221.3,409.7v0.2l2.1,0.2v-0.2L221.3,409.7z M177.1,389.8v-0.2l-1.3-0.5l-0.1,0.2L177.1,389.8z
						 M199.2,401.7v-0.4h-1.1v0.4L199.2,401.7L199.2,401.7z M226.5,39.4v-0.1l-1.8-0.1v0.2L226.5,39.4z M209.7,409.4V409H208v0.2
						L209.7,409.4z M106.9,377.7l0.3-0.3l-1-0.7l-0.2,0.2L106.9,377.7z M261.5,48.5v-0.2l-1.5-0.1v0.2L261.5,48.5z M299.6,54.9
						l0.2-0.3l-1.4-0.7l-0.2,0.3L299.6,54.9z M114.9,67.2l0.3-0.1l-0.4-0.9l-0.2,0.2L114.9,67.2z M104.2,351.2l-0.2,0.2l0.7,0.5
						l0.2-0.2L104.2,351.2z M193.8,47.6v-0.2l-0.8,0.2v0.2L193.8,47.6z M190.6,414.4v0.3h1.1v-0.2L190.6,414.4z M116.4,384.4
						l0.2-0.2l-0.8-0.6l-0.2,0.2L116.4,384.4z M333.8,357.7l0.2,0.3l0.9-0.6l-0.2-0.3L333.8,357.7z M366.6,336.4l-0.2-0.2l-0.6,0.6
						l0.1,0.2L366.6,336.4z M233.9,404.4c-0.1-0.1-0.3-0.3-0.4-0.3c-0.1,0-0.3,0.1-0.4,0.2c0,0.1,0,0.2,0.1,0.3
						C233.5,404.4,233.7,404.4,233.9,404.4L233.9,404.4z M107.3,81.1l0.5-0.3l-0.2-0.3c-0.1,0.1-0.2,0.2-0.3,0.3
						C107.3,80.9,107.3,81,107.3,81.1L107.3,81.1z M248.9,38.1v0.2h0.9v-0.2L248.9,38.1z M142.8,50l-0.2-0.2l-0.6,0.5l0.1,0.2
						L142.8,50z M251.2,50.3c-0.2-0.1-0.4-0.2-0.6-0.3c-0.1,0-0.2,0.1-0.3,0.2c0.1,0.1,0.2,0.2,0.4,0.2
						C250.8,50.4,251,50.4,251.2,50.3L251.2,50.3z M227.4,410.1v-0.3l-1.3,0.2L227.4,410.1z M179.3,398.4c0.1,0.1,0.2,0.2,0.4,0.3
						c0.1,0,0.2,0,0.4,0c-0.1-0.1-0.1-0.3-0.2-0.4C179.7,398.3,179.5,398.3,179.3,398.4L179.3,398.4z M390.1,132.1l-0.2,0.1l0.4,0.7
						l0.2-0.1L390.1,132.1z M317.7,59.9l-0.2,0.1c0,0.1,0.1,0.2,0.2,0.2c0.1,0,0.2,0,0.3,0L317.7,59.9z M269.9,36.5v-0.2H269v0.1
						L269.9,36.5z M163.5,60.9h0.2c-0.1-0.1-0.1-0.2-0.2-0.2c-0.1,0-0.2,0-0.4,0L163.5,60.9z M334,374.8c-0.1-0.1-0.2-0.1-0.3-0.1
						c-0.1,0-0.2,0.1-0.2,0.2c0,0.1,0.1,0.1,0.1,0.2L334,374.8z M253.9,41.5c0.1,0.1,0.3,0.2,0.4,0.2c0.1,0,0.2-0.1,0.3-0.2
						L253.9,41.5z M176.6,403.5c0-0.1,0-0.2-0.1-0.3c-0.1,0-0.2,0-0.3,0c0,0.1,0.1,0.2,0.1,0.2C176.5,403.5,176.5,403.6,176.6,403.5
						L176.6,403.5z M219.1,39.3c-0.2-0.1-0.4-0.1-0.5-0.1c-0.1,0-0.2,0.1-0.3,0.2c0.1,0.1,0.2,0.1,0.4,0.2
						C218.8,39.5,219,39.4,219.1,39.3L219.1,39.3z M253.4,415.9c-0.1-0.1-0.2-0.2-0.4-0.2c-0.1,0-0.2,0.1-0.3,0.2
						c0.1,0.1,0.2,0.2,0.3,0.2C253.1,416.1,253.3,416,253.4,415.9L253.4,415.9z M207,40.1c0,0.1,0.1,0.1,0.1,0.2c0.1,0,0.2,0,0.2,0
						c0-0.1-0.1-0.2-0.2-0.3C207.1,40,207.1,40,207,40.1L207,40.1z M360.1,333.5c-0.1-0.1-0.2-0.2-0.3-0.3c-0.1,0.1-0.2,0.2-0.3,0.3
						c0,0.1,0.1,0.2,0.2,0.2C359.9,333.7,360,333.6,360.1,333.5L360.1,333.5z M243.3,32.1c-0.1,0-0.1-0.1-0.2-0.1c0,0-0.1,0-0.1,0
						c0,0.1,0,0.1,0.1,0.2C243.1,32.2,243.2,32.2,243.3,32.1L243.3,32.1z M251.4,38.3c0,0.1,0,0.1,0,0.2c0,0,0.1,0,0.1,0
						c0.1,0,0.1-0.1,0.2-0.1L251.4,38.3z M214.9,409.7l0.3-0.1c0,0,0-0.1-0.1-0.1h-0.3L214.9,409.7z M262.4,414.5
						c0-0.1,0.1-0.2,0.1-0.3c-0.1-0.1-0.2-0.1-0.2-0.1c-0.1,0-0.2,0.1-0.3,0.2L262.4,414.5z M95.9,111.5l-0.1-0.3l-0.3,0.2
						c0,0.1,0.1,0.1,0.1,0.2C95.7,111.5,95.8,111.5,95.9,111.5L95.9,111.5z M316,386.1c-0.1-0.1-0.1-0.1-0.2-0.1s-0.2,0-0.2,0.1
						c0.1,0.1,0.1,0.1,0.2,0.1C315.9,386.2,316,386.2,316,386.1L316,386.1z M100.7,368.5l-0.4-0.2c0,0.1,0,0.2,0,0.2
						c0.1,0.1,0.2,0.2,0.3,0.2L100.7,368.5z M178.8,390c-0.1-0.1-0.3-0.1-0.5-0.2c-0.1,0.1-0.1,0.1-0.2,0.2c0.1,0,0.2,0.1,0.2,0.1
						C178.5,390.1,178.6,390,178.8,390L178.8,390z M127,390.9h-0.1c0,0.1,0.1,0.1,0.1,0.2h0.1L127,390.9z M249,49.7l-0.2,0.1
						c0.1,0.1,0.1,0.1,0.2,0.1c0.1,0,0.2,0,0.2,0L249,49.7z M259.4,42.5h-0.2c0,0,0,0.1,0,0.1L259.4,42.5
						C259.4,42.6,259.4,42.5,259.4,42.5L259.4,42.5z M374.8,124.1l-0.2,0.1l0.1,0.2l0.3-0.1L374.8,124.1z M206,53.8l-0.2,0.2
						c0.1,0.1,0.2,0.1,0.3,0.1c0.1-0.1,0.1-0.1,0.1-0.2L206,53.8z M257.1,415.3c-0.1-0.1-0.2-0.1-0.3-0.2c-0.1,0.1-0.1,0.1-0.2,0.2
						c0.1,0,0.2,0,0.3,0C257,415.4,257,415.3,257.1,415.3L257.1,415.3z M316.9,59.6c0-0.1-0.1-0.1-0.1-0.2c0,0-0.1,0-0.1,0
						c0,0.1,0,0.1,0,0.2H316.9L316.9,59.6z M217.1,52.2l-0.2-0.2c0,0.1-0.1,0.1-0.1,0.2c0,0,0,0.1,0.1,0.1
						C217,52.3,217,52.2,217.1,52.2L217.1,52.2z M186.8,49c0,0,0-0.1,0-0.1h-0.3c0,0,0,0.1,0,0.1H186.8z M192.9,414.9
						c0,0-0.1-0.1-0.1-0.1h-0.3c0,0,0.1,0.1,0.1,0.1C192.7,414.9,192.8,414.9,192.9,414.9L192.9,414.9z M193.9,415v0.1h0.2
						c0,0,0-0.1,0-0.1C194,415,194,415,193.9,415L193.9,415z M382,135.6l-0.3-0.2c-0.1,0.1-0.1,0.1-0.1,0.2c0.1,0.1,0.1,0.2,0.2,0.3
						L382,135.6z M282.2,395h-0.1v0.2c0,0,0.1,0,0.1,0C282.3,395.1,282.3,395,282.2,395L282.2,395z M321.1,56.5H321c0,0,0,0.1,0,0.1
						L321.1,56.5C321.1,56.5,321.1,56.5,321.1,56.5L321.1,56.5z M173.6,407.2c-0.1,0-0.1,0.1-0.2,0.2c0,0.1,0,0.2,0.1,0.2l0.3-0.2
						L173.6,407.2z M377.8,128.8c0-0.1,0-0.2-0.1-0.2c-0.1,0-0.2,0-0.2,0c0,0.1,0.1,0.2,0.1,0.2
						C377.7,128.8,377.8,128.8,377.8,128.8L377.8,128.8z M288.9,61.2v-0.1h-0.1c0,0,0,0.1,0,0.1C288.8,61.2,288.9,61.2,288.9,61.2
						L288.9,61.2z M178.6,404l-0.3-0.1c0,0.1,0,0.1,0,0.2c0,0,0.1,0,0.1,0L178.6,404z M108.7,88c0-0.1,0-0.1-0.1-0.2
						c-0.1,0-0.2,0-0.2,0l0.1,0.3L108.7,88z M206.6,40.4c0-0.1-0.1-0.2-0.2-0.2c-0.1,0-0.3,0-0.4,0c0,0.1,0.1,0.1,0.1,0.2
						C206.3,40.4,206.5,40.4,206.6,40.4L206.6,40.4z M96.9,98.7L96.9,98.7L96.9,98.7L96.9,98.7L96.9,98.7z M149.8,70.2h-0.1v0.1
						L149.8,70.2z M259.3,414.8L259.3,414.8L259.3,414.8L259.3,414.8L259.3,414.8z M257.8,415L257.8,415L257.8,415L257.8,415
						L257.8,415z M185.7,410.2l-0.3-0.1c0,0.1,0,0.1,0,0.2c0,0,0.1,0,0.1,0C185.6,410.2,185.6,410.2,185.7,410.2L185.7,410.2z
						 M222.1,417.9L222.1,417.9L222.1,417.9L222.1,417.9L222.1,417.9z M263.2,414.2h-0.2C263.1,414.3,263.1,414.3,263.2,414.2
						C263.2,414.3,263.2,414.3,263.2,414.2L263.2,414.2z M132.8,394.3L132.8,394.3L132.8,394.3L132.8,394.3z M382.2,136.4
						L382.2,136.4L382.2,136.4L382.2,136.4z M144.4,376.2c0,0,0-0.1,0-0.1h-0.1c0,0,0,0.1,0,0.1L144.4,376.2L144.4,376.2z
						 M196.4,415.8c0,0,0-0.1,0-0.1c0,0-0.1,0-0.1,0v0.2L196.4,415.8z M122.2,387.9l-0.1-0.2c-0.1,0.1-0.1,0.1-0.1,0.2
						c0,0,0,0.1,0,0.1L122.2,387.9z M401.1,143.8v0.1V143.8L401.1,143.8L401.1,143.8z M254,415.7c0.1,0.1,0.1,0.1,0.2,0.2
						c0.1,0,0.2,0,0.2,0c-0.1-0.1-0.1-0.1-0.2-0.2C254.1,415.6,254,415.6,254,415.7L254,415.7z M326.9,372.9L326.9,372.9l-0.1,0.1
						C326.8,373,326.8,373,326.9,372.9C326.9,372.9,326.9,372.9,326.9,372.9L326.9,372.9z M167.7,405.8L167.7,405.8L167.7,405.8
						L167.7,405.8z M269.4,412.7L269.4,412.7l0.1-0.1L269.4,412.7z M235,404.3l0.2-0.1c0-0.1-0.1-0.1-0.2-0.2
						c-0.1,0-0.2,0.1-0.2,0.2L235,404.3z M197.4,401.4v-0.1C197.4,401.3,197.4,401.3,197.4,401.4L197.4,401.4z M216,409.7h-0.1v0.2
						h0.1C216.1,409.8,216.1,409.7,216,409.7L216,409.7z M203.3,49.7h0.1H203.3L203.3,49.7z M200.7,49.8L200.7,49.8l-0.1,0.1
						L200.7,49.8z M366.8,126.8h0.1v-0.1L366.8,126.8z M388.8,129.9l0.2-0.1l-0.2-0.1c0,0-0.1,0.1-0.1,0.1L388.8,129.9z M93.5,102
						C93.5,102.1,93.5,102.1,93.5,102l0.1,0.1V102L93.5,102z M376.1,126.2c0,0,0-0.1,0-0.1H376c0,0,0,0.1,0,0.1L376.1,126.2
						L376.1,126.2z M313.9,61.6h-0.1c0,0,0,0.1,0,0.1C313.8,61.7,313.8,61.7,313.9,61.6L313.9,61.6z M382.5,125.9v0.1h0.2
						c0,0,0-0.1,0-0.1C382.5,125.9,382.5,125.9,382.5,125.9L382.5,125.9z M205,54.2h-0.2v0.1L205,54.2z M201.4,54.5
						c0,0-0.1-0.1-0.1-0.1l-0.2,0.1c0,0,0.1,0.1,0.1,0.1C201.3,54.6,201.4,54.6,201.4,54.5L201.4,54.5z M125.5,67.3h-0.2
						c0,0.1,0,0.1,0,0.2c0,0,0.1,0,0.1,0C125.4,67.4,125.5,67.3,125.5,67.3L125.5,67.3z M242,45.5h0.1c0,0,0-0.1,0-0.1L242,45.5
						C242,45.5,242,45.5,242,45.5L242,45.5z M197.6,33.4c0,0,0-0.1,0-0.1c0,0-0.1,0-0.1,0L197.6,33.4L197.6,33.4z M183.5,40.3v0.1
						h0.1L183.5,40.3z M229.2,39.4c0,0,0,0.1,0,0.1c0,0,0.1,0,0.1,0v-0.1L229.2,39.4z M304.5,48.1C304.5,48.1,304.5,48.1,304.5,48.1
						l-0.1-0.1v0.2L304.5,48.1z M228.2,45.3c0,0-0.1,0-0.1,0c0,0,0,0.1,0,0.1C228.2,45.4,228.2,45.4,228.2,45.3
						C228.2,45.4,228.2,45.4,228.2,45.3L228.2,45.3z M221.3,45.2L221.3,45.2L221.3,45.2L221.3,45.2L221.3,45.2z M301.7,55.8
						L301.7,55.8L301.7,55.8L301.7,55.8z M192.3,47.9L192.3,47.9L192.3,47.9L192.3,47.9L192.3,47.9z M154,44.9L154,44.9L154,44.9
						L154,44.9z M175,388.8c0,0,0-0.1,0-0.1c0,0,0-0.1-0.1-0.1s-0.1,0-0.1,0.1c0,0,0,0.1,0,0.1C174.9,388.8,174.9,388.8,175,388.8
						L175,388.8z M240.5,403.6L240.5,403.6L240.5,403.6L240.5,403.6z M181.6,40.9L181.6,40.9L181.6,40.9L181.6,40.9L181.6,40.9z
						 M177.3,403.7L177.3,403.7C177.4,403.7,177.4,403.6,177.3,403.7C177.3,403.6,177.3,403.7,177.3,403.7L177.3,403.7z M256.6,42.1
						L256.6,42.1L256.6,42.1L256.6,42.1z M289,65.1L289,65.1l-0.1-0.1L289,65.1z M286.2,63.9L286.2,63.9l-0.1,0.1L286.2,63.9z
						 M284.6,63.4L284.6,63.4L284.6,63.4L284.6,63.4L284.6,63.4z M185.9,49.2L185.9,49.2L185.9,49.2L185.9,49.2z M199.8,49.9
						L199.8,49.9L199.8,49.9L199.8,49.9z M205.2,49.5L205.2,49.5C205.3,49.5,205.3,49.5,205.2,49.5
						C205.2,49.5,205.2,49.5,205.2,49.5L205.2,49.5z M101.2,369.3L101.2,369.3L101.2,369.3L101.2,369.3L101.2,369.3z M93.6,114.3
						L93.6,114.3C93.6,114.2,93.5,114.3,93.6,114.3C93.5,114.3,93.6,114.4,93.6,114.3L93.6,114.3z M82.5,115.3c0,0,0-0.1,0-0.1
						c0,0,0-0.1-0.1-0.1s-0.1,0-0.1,0.1s0,0.1,0,0.1C82.4,115.3,82.4,115.3,82.5,115.3L82.5,115.3z M373.4,136.9L373.4,136.9
						L373.4,136.9L373.4,136.9L373.4,136.9z M106.6,82.4L106.6,82.4L106.6,82.4L106.6,82.4z M358,103.3L358,103.3L358,103.3
						L358,103.3z"/>
					<path id="Shape_1_" class="st0" d="M363.7,384c0,0,0.1,0.1,0.1,0.1c0,0,0.1,0,0.1-0.1H363.7L363.7,384L363.7,384z"/>
					<path id="Shape_2_" class="st0" d="M217.8,391.9C119.6,385,58.4,307,58.1,226.1c-0.1-48,17.1-89.2,51.9-122.3
						c32.5-31,71.7-46.2,116.7-46c21.9,0,43.6,3.2,63.2,12.4c65.2,30.8,101.3,82,102.4,154.9c0.7,49.4-19,91.1-55.6,124.2
						C303.3,379.5,262.9,392.2,217.8,391.9L217.8,391.9z M126.9,90.3l0.7,0.2l0.7-0.3l0.6-0.7l0.1-0.1c0.5-0.5,0.2-0.2-0.1,0.1
						l-0.6,0.7l-0.7,0.3h-0.7v0.1v0.1L126.9,90.3z M332.5,340.2l0.3-0.3l0.7-0.6l3.2-3l0.5-0.5l-0.4-0.2l-0.1,0.7l-3.2,3l-0.7,0.6
						L332.5,340.2l-0.2,0.1C332.4,340.2,332.4,340.2,332.5,340.2C332.5,340.2,332.5,340.2,332.5,340.2L332.5,340.2z M145.5,83.2
						l-0.1,0.2L145.5,83.2l0.3-0.4h0.4v-0.2l-0.4,0.3L145.5,83.2z M120.5,103.2L120.5,103.2L120.5,103.2L120.5,103.2L120.5,103.2z
						 M114.4,108.7l-0.2-0.1h0.2v-0.1L114.4,108.7L114.4,108.7z M365,151.4l0.5,0.4c0.7,1.7,1.3,3.5,2.1,5.2
						c10.8,22.6,16.1,47.5,15.2,72.6c-0.4,14.1-2.7,28.1-6.9,41.6c-5.6,17.8-14.3,34.6-25.6,49.4c-2.7,3.6-4.4,7.8-6.9,11.6
						c-1.8,2.7-3.9,5.2-6,7.8c17.1-15.8,30.3-35.3,38.7-57c8.5-21.5,12.1-44.7,10.6-67.8c-1.1-23.3-7.9-45.9-19.6-66l-1.1,1.8
						l-0.2-0.3l0.1,0.5l0.5,1l0,0l-1-0.3L365,151.4L365,151.4L365,151.4z M293.1,367L293.1,367H293H293.1z M294.3,366.5L294.3,366.5
						L294.3,366.5L294.3,366.5L294.3,366.5L294.3,366.5z M287.6,75.7L287.6,75.7L287.6,75.7l-0.2-0.1L287.6,75.7z M356.3,137.3
						l0.5,0.2l1.3,1.6l1.6,2.8l1.7,2.1l-0.1,1.1v0.1c0.5,0.4,0.2,0.2-0.1-0.1l0.1-1.1l-1.7-2.1c-0.5-0.9-1.1-1.9-1.6-2.8l-1.3-1.6
						L356.3,137.3l-0.1-0.9l-0.3-0.3l-0.2-0.5l-0.1,0.1l0.4,0.4l0.4,0.3C356.3,136.7,356.3,137,356.3,137.3L356.3,137.3z
						 M136.9,358.5v-0.4V358.5l0.2-0.2c0,0,0.1,0.1,0.1,0.1c0,0.1-0.1,0.2-0.2,0.3C137,358.7,136.9,358.6,136.9,358.5L136.9,358.5z
						 M152.1,373.6L152.1,373.6L152.1,373.6l0.2,0.4h0.1L152.1,373.6z M127.5,96.6l0.7-0.6l1.8-0.8l-0.2-0.4l-1.5,1.2L127.5,96.6
						L127.5,96.6L127.5,96.6L127.5,96.6z M159.8,377h-0.2H159.8l0.7,0.5c0.1,0.1,0.2,0.3,0.4,0.4c0.1,0,0.2-0.1,0.2-0.1l-0.6-0.2
						L159.8,377z M239,59.3l0.5-0.2l-0.3-0.3L239,59.3L239,59.3L239,59.3z M250,60.6L250,60.6l-0.1-0.1l-1.2-0.4v0.2L250,60.6z
						 M158.7,371.7l0.4-0.1L158.7,371.7L158.7,371.7C158,371.3,158.4,371.5,158.7,371.7L158.7,371.7z M255.4,384.1L255.4,384.1
						C256,383.8,255.8,383.9,255.4,384.1l-0.2-0.2L255.4,384.1z M137.4,365.4h-0.1H137.4l-1.6-1l-1.7-0.6l0,0l0,0l1.7,0.6
						L137.4,365.4z M358.9,129.5h0.2H358.9l0-0.2C358.5,129,358.7,129.3,358.9,129.5L358.9,129.5z M105,122.8l-1.8,0.7l0.9,0.9
						L105,122.8l0.5,0l-0.1-0.3L105,122.8z M336,340.7l-1.5,1.1l0.3,0.3L336,340.7L336,340.7L336,340.7z M184.5,72.9l2-0.7l-0.3-0.5
						L184.5,72.9l-0.4-0.2L184.5,72.9z M133.6,86.2l-3.2,1.8l0.4,0.5L133.6,86.2l0.1-0.3L133.6,86.2z M343.4,341.2
						c0.4-0.3,0.9-0.6,1.2-0.9c11.8-12.1,21.6-25.9,29.3-41c8.2-15.9,13.7-33.1,16.1-50.8c1.4-8.5,1.9-17.2,1.5-25.8
						c-1-13-2.6-26-4.9-38.8c-1.2-7-4.1-13.7-6.1-20.5h-0.1l0,0.1l-8-17c1.2,5.5,2.7,10.8,4.1,16.1c1.3,4.9,2.9,9.7,3.9,14.6
						c2.5,12.4,5.3,24.8,6.7,37.4c1.8,15.5,0,31.1-3.5,46.2c-3.6,16.6-10,32.4-19.1,46.7c-5.5,8.6-11.1,17.1-17.2,25.2
						C345.4,335.5,342.6,337.4,343.4,341.2l-7.9,6.3l0.9,1L343.4,341.2z M222.3,68.2c-5.6,0.5-15,1.1-24.2,2.4
						c-13.8,2.2-27.2,6.4-39.8,12.6c-26.8,12.8-48.6,31.5-64.4,56.7c-5.2,8.4-9.8,17.2-13.7,26.3c-8.7,20-12,41.1-11.4,62.8
						c0.4,21.9,5.6,43.4,15.3,63c10.8,21.7,24.4,41.1,45,54.8c3.6,2.4,7,5.1,10.4,7.8c11.2,9,24.3,14.3,37.7,18.7s27.3,7.3,41.6,7
						c4.8-0.1,9.5,0.5,14.3,0.3c51.5-2.3,98.4-29.9,125.5-73.7c13-20.5,20.9-43.8,22.9-68c0.7-11,0.6-22.1-0.5-33.1
						c-1.4-15.7-6.1-30.7-12.5-45.1c-7.7-16.9-18.2-32.5-31.1-45.9c-16.3-17.2-36.5-28.4-58.1-37.1C262.2,71,244.3,68.2,222.3,68.2
						L222.3,68.2z M94.7,135.1l-1.5-0.9c-3.8,5.4-8.2,10.5-11.2,16.3c-11.8,22.3-18,47.2-18.1,72.5c-0.2,15.8,1.9,31.6,6.4,46.8
						c6.5,22.6,18,43.4,33.6,61c5.5,6.2,10.2,13.8,19.8,14.1c-2.1-1.9-4.3-3.9-6.4-6c-20-18.6-34.6-42.2-42.6-68.3
						c-7.3-23.7-8.8-48.7-4.6-73c2.8-16.7,8.4-32.7,16.6-47.5C89.4,145.1,92,140.1,94.7,135.1L94.7,135.1z M111.9,341.9
						c-2.1-2.6-4.7-5.5-7-8.6c-6.4-8.5-13.6-16.6-19-25.7c-13.2-21.8-21.1-45.5-22.2-71.1c-0.7-12.3-0.2-24.6,1.6-36.8
						c2.4-12.8,5.9-25.4,10.4-37.6c3.5-9.9,8.8-19.1,13.3-28.6c1.1-2.3,2.3-4.6,3.4-6.9l-1.1-0.6c-0.3,0.3-0.6,0.6-0.8,0.9
						c-4,6.5-8.4,12.7-12,19.4c-10.1,18.5-16.4,38.8-18.6,59.7c-2.3,20-0.9,40.3,4.1,59.8c5.5,21.7,15.5,42,29.3,59.7
						c3.2,4.1,7.3,7.4,10.9,11.2c2,2.1,3.9,4.3,5.4,5.8L111.9,341.9z M342.9,329.4l0.4,0.4l1.5-1.9l-0.4-0.3L342.9,329.4z
						 M193.6,379.1l0.1-0.4l-2.4-0.6l-0.1,0.3L193.6,379.1z M214.1,382.2v0.3l2.6,0.2v-0.2L214.1,382.2z M162,75.3l-0.2-0.3
						l-1.5,0.6l0.2,0.3L162,75.3z M238.1,386.8v-0.4h-1.5v0.3L238.1,386.8z M234,386.5v0.4l2.6-0.2L234,386.5z M308.3,80.9l0.2-0.3
						c-0.1-0.1-0.3-0.2-0.4-0.2c-0.1,0-0.2,0.1-0.3,0.2L308.3,80.9z M217.9,382.7v0.2l1.1,0.1v-0.3H217.9z M325.1,346.9l0.2,0.1
						l0.6-0.7l-0.3-0.2L325.1,346.9z M274.4,383.4v-0.2l-1.1,0.2l0.1,0.3L274.4,383.4z M228.1,390.3l-0.3,0.2
						c0.1,0.1,0.3,0.1,0.4,0.2c0.1,0,0.2,0,0.3-0.1L228.1,390.3z M151.1,373C151.1,373,151.1,373,151.1,373c-0.1,0-0.1,0.1-0.1,0.1
						L151.1,373L151.1,373z M236.7,385.4c-0.1-0.1-0.1-0.1-0.2-0.2c-0.1,0.1-0.2,0.1-0.2,0.2c0.1,0,0.2,0.1,0.3,0.1
						C236.6,385.5,236.7,385.4,236.7,385.4L236.7,385.4z M187.7,71.6l-0.2,0.1c0.1,0.1,0.1,0.1,0.2,0.1c0.1,0,0.2-0.1,0.2-0.1
						L187.7,71.6z M138.2,365.9c0,0-0.1,0-0.1,0c0,0,0,0.1,0,0.1h0.1C138.2,366,138.2,366,138.2,365.9L138.2,365.9z M185.4,385.9
						c0,0,0.1,0.1,0.1,0.1l0.2-0.1c-0.1,0-0.1-0.1-0.2-0.1C185.5,385.9,185.5,385.9,185.4,385.9L185.4,385.9z M196.6,379.3l0.2,0.1
						c0,0,0.1-0.1,0.1-0.1l-0.2-0.1C196.7,379.2,196.7,379.3,196.6,379.3L196.6,379.3z M210.7,382h0.1c0,0,0-0.1,0-0.1
						C210.8,381.9,210.8,381.9,210.7,382L210.7,382z M291.5,77.5C291.5,77.5,291.5,77.6,291.5,77.5l0.1,0.1v-0.2L291.5,77.5z
						 M251.6,60.5h0.1v-0.1L251.6,60.5z M188.9,71.4h-0.1H188.9L188.9,71.4L188.9,71.4z M320.8,88.7L320.8,88.7L320.8,88.7
						L320.8,88.7z M115.7,107.2v-0.1h-0.1c0,0,0,0.1,0,0.1L115.7,107.2z M312.7,83.3L312.7,83.3L312.7,83.3L312.7,83.3z
						 M203.8,384.2l-0.1-0.1v0.2C203.7,384.3,203.8,384.3,203.8,384.2C203.8,384.3,203.8,384.2,203.8,384.2L203.8,384.2z
						 M187.3,386.6L187.3,386.6L187.3,386.6L187.3,386.6z M116.3,106.4L116.3,106.4l0.2,0.1c0,0,0-0.1,0-0.1L116.3,106.4
						L116.3,106.4z M121.2,106.6L121.2,106.6L121.2,106.6L121.2,106.6z"/>
					<path id="Shape_3_" class="st0" d="M68.8,358.5H68l0.2-1l0,0L68.8,358.5z"/>
					<path id="Shape_4_" class="st0" d="M373.6,189.3c1.1,6.2,3,12.3,3.3,18.5c0.6,12.4,0.5,24.8-0.4,37.1
						c-1.5,16.7-6.9,32.7-14.5,47.7c-7.8,15.5-18.1,29.6-30.6,41.7c-17.3,16.8-38.4,29.2-61.6,36c-19.6,5.8-39.6,8.4-59.9,5.6
						c-12.2-1.9-24.2-4.5-36.1-8c-19.3-5.4-35.4-16.9-50.3-29.9c-11.9-10.5-22.1-22.9-30-36.6C84.4,286,78.2,269,75.1,251.4
						c-2.7-15.1-3.6-30.4-1.1-45.5c2.3-12.2,5.3-24.3,9.1-36.1c2.1-6.8,6.4-12.9,8.8-19.6c3-8.9,8.6-16,14.5-22.9
						c3.6-4.5,7.6-8.7,12-12.4c10.7-8.4,20.9-17.4,33.1-23.9c20.6-11.1,43.4-17.5,66.8-18.6c16.9-0.8,33.8,1.2,50,5.9
						c16.1,4.6,31.4,12,45.1,21.7c13,9.2,24.5,20.3,34.1,33c3.7,4.6,7,9.4,9.9,14.5c7.2,12.8,12.6,26.6,16.2,40.8
						C373.6,188.6,373.6,188.9,373.6,189.3l-0.6,0.3c-3.5-10-6.8-20-10.7-29.9c-1.7-4.4-4-8.5-6.9-12.2c-2.5-3.2-5.9-5.7-9-8.5
						c-0.4-0.4-0.8-0.7-1.3-1.1l-1.2-1.7l-0.5-0.8l0,0c-0.6-0.3-0.2-0.1,0.1,0l0.5,0.8l1.2,1.7c0.1,0.4,0.3,0.8,0.5,1.1
						c7.2,10.3,13.2,21.5,17.6,33.3c6.9,17.7,10.2,36.6,9.5,55.5c-0.5,11.2-2,22.2-4.6,33.1c-4.6,19.8-13.7,38.3-26.5,54.1
						c-5.5,6.9-11.8,13.1-17.8,19.6l-0.3,0.4l-0.4,0.2l-0.2,0.1c0,0,0.1,0,0.1,0c0,0,0-0.1,0-0.1l0.4-0.2l0.3-0.4
						c2-0.5,3.9-1.2,5.8-2.1c2.3-1.3,5-2.7,6.6-4.7c8-10.7,16.6-21.2,23.1-32.7c11.6-20.6,17-43.1,17.5-66.8c0.3-13-1.1-26-4.1-38.7
						L373.6,189.3z M329,126.1l-0.2-0.2L329,126.1l0.2,0.1L329,126.1z M124.1,123.8l0.4-0.3l0.2-0.1l-0.1-0.2l-0.2,0.2L124.1,123.8
						l-0.3,0.3l-0.8,0.3l-0.2,0.7h-0.6l-0.6,1v0.1V126c0.2-0.3,0.4-0.6,0.6-0.9h0.6l0.2-0.7l0.8-0.3L124.1,123.8z M120.2,127.9
						l0.4-0.6l0.2-0.2l-0.2,0.2l-0.3,0.5l0,0H120.2z M284.2,360.3L284.2,360.3l0,0.1v-0.2L284.2,360.3z M170.9,87.1l0.3,0.1V87
						L170.9,87.1L170.9,87.1L170.9,87.1z M346.5,133.1L346.5,133.1h0.1v0.2C346.6,133.3,346.5,133.2,346.5,133.1L346.5,133.1z
						 M194.6,84.8l-0.8,0.6l0,0l0,0L194.6,84.8l0.4,0.2L194.6,84.8z M117.8,130.5L117.8,130.5C117.8,130.2,117.8,130.4,117.8,130.5
						l-0.5,0.3l-1,1.3l-0.7,0.9l-1.5,1.4c-1.3,1.4-2.5,2.9-3.9,4.3s-2.1,4-4.6,1.5c-0.3,0.2-0.6,0.4-0.8,0.7
						c-3.8,6.4-7.9,12.5-11.2,19.1c-11.3,22.3-16.4,47.2-15,72.2c1.7,36,16.8,70.1,42.3,95.6c4.3,4.4,9.3,8.1,13.9,12.2l0.2,0.1
						l-0.2-0.1c-0.7-0.9-1.5-1.8-2.2-2.7c-0.4-0.5-0.8-1.1-1.1-1.7c0.6,0.1,1.3,0.3,1.8,0.6c3,2.3,5.9,4.7,9.4,7.6
						c-0.5-1.5-1.3-2.9-2.2-4.3c-8.5-8.2-17.6-15.9-25.5-24.7c-12.8-14.2-21.1-31-26.5-49.2c-6.1-20.6-7.5-42.3-4.1-63.5
						c2.5-16.6,8.1-32.7,16.5-47.3c4.1-7,9-13.6,13.5-20.3l1.3-1.6l0.7-0.9l1-1.2L117.8,130.5z M228.1,367.3H228
						C227.5,367.6,227.8,367.5,228.1,367.3l0.2,0.1v-0.2L228.1,367.3z M118.8,129.2l0.1-0.1C119.1,128.8,118.9,129,118.8,129.2
						l0,0.3L118.8,129.2z M320.5,117.7v0.3l0.2-0.1L320.5,117.7L320.5,117.7L320.5,117.7L320.5,117.7z M143.5,107.4l-0.3,0.1
						l0.3-0.2h0.1V107.4z M264.6,78.4L264.6,78.4c-0.2-0.2-0.3-0.3-0.5-0.4c-0.1,0-0.1,0.1-0.2,0.2L264.6,78.4z M191.2,85.6
						L191.2,85.6C191,86.1,191.1,85.8,191.2,85.6L191.2,85.6L191.2,85.6z M278.9,88L278.9,88L278.9,88L278.9,88
						C279.7,88.3,279.3,88.2,278.9,88L278.9,88z M314.3,339.5l1.2-1.5v-0.1v0.1L314.3,339.5c-0.2-0.1-0.5-0.2-0.7-0.2
						c-0.1,0.1-0.1,0.1-0.2,0.2L314.3,339.5z M163.8,353.8l-0.2-0.3l-0.1,0.1L163.8,353.8l2.6,1.5l0.3-0.5L163.8,353.8z
						 M343.6,137.4h-0.3v0.1L343.6,137.4l2.8,5.3l0.6-0.3L343.6,137.4z M249.4,74.8L249.4,74.8l7.3,2l0.1-0.6L249.4,74.8z M320,333
						c0.9-0.9,1.9-1.7,2.8-2.6c0.7-0.7,1.5-1.4,2.3-1.8c1.7-0.7,4.3-0.5,5.3-1.6c5.9-6.6,11.5-13.5,16.8-20.6
						c7.7-11.1,13.7-23.3,17.8-36.1c10.5-32.1,9.7-66.8-2.5-98.3c-2.9-7.6-6-15.1-11.9-21l0,0l0,0c0.2,2.2,0.5,4.4,1.1,6.6
						c0.9,2.3,2,4.6,3.2,6.8c15.9,34,17.8,72.9,5.2,108.3c-7.7,21.1-20.1,40.1-36.3,55.6C322.4,329.8,321.1,331.4,320,333L320,333
						L320,333z M103.7,140.5c-1.8,1.1-3.5,2.4-5,3.9c-2.5,3.2-4.8,6.6-7,10.1c-1.7,2.7-3.3,5.4-4.7,8.3
						c-10.1,20.5-13.9,42.4-13.5,65.1c0.7,38.7,16.4,75.6,43.7,103.1c3.5,3.5,7.2,7,10.8,10.4l0.2-0.2v0.1H128
						c-0.5-0.8-0.9-1.6-1.3-2.4c-0.1-0.5-0.1-1-0.1-1.5c0.4,0.2,0.8,0.4,1.2,0.6c3.6,2.6,7.2,5.2,10.8,7.8c-0.1-0.8-0.4-1.6-1.1-2.2
						c-0.4-0.4-0.9-0.8-1.3-1.2c-8.2-7.9-17-15.4-24.6-23.9c-12-13.5-20.3-29.1-26.1-46.1c-6.2-18.1-8.8-37.2-7.6-56.2
						c0.4-6.1,1.3-12,2.2-18c2.2-13.6,6.6-26.8,12.9-39C96.3,152.8,100.1,146.7,103.7,140.5L103.7,140.5L103.7,140.5z M348.2,296.1
						H348H348.2c4-9,8.8-17.8,12-27c5.4-15.9,7.8-32.6,7.1-49.3c-0.5-16.5-4-32.7-10.1-47.9c-10.8-27.4-30-50.6-54.9-66.3
						c-23.5-15.2-51-23.1-79-22.7c-24,0.2-46.1,6.8-67,18.2c-5,2.8-9.9,5.9-14.6,9.3c-15.5,11-28.5,25.1-38.1,41.4
						c-11.9,19.6-18.7,41.8-19.9,64.7c-1,14.4,0.3,28.8,4,42.8c2.6,9.3,5.9,18.4,9.9,27.1c7.4,16.3,18.2,31,31.7,42.9
						c16.7,15.5,37.1,26.7,59.2,32.5c16,4.3,32.6,5.8,49.1,4.4c20.6-1.6,40.6-7.9,58.5-18.3c13-7.6,24.9-16.5,34.6-28.1
						C336.8,312.1,342.3,304,348.2,296.1L348.2,296.1z M248.6,365.5v0.4l11-2.2l-0.1-0.4L248.6,365.5z M223.9,81.6V82l2.2-0.1v-0.4
						L223.9,81.6z M224.3,367.2v0.4h1.5v-0.3L224.3,367.2z M219.5,367.1v0.2l1.4,0.1v-0.2L219.5,367.1z M267.4,365.1v-0.3
						c-0.1,0-0.3,0-0.4,0c-0.1,0.1-0.2,0.3-0.2,0.4L267.4,365.1z M342.5,136.1c-0.1,0-0.1,0.1-0.2,0.2c0,0.1,0.1,0.2,0.2,0.2
						c0.1,0,0.2,0,0.2,0L342.5,136.1z M198.4,84.4h-0.3v0.1L198.4,84.4C198.4,84.5,198.4,84.5,198.4,84.4L198.4,84.4z M269.5,369.4
						v-0.2c0,0-0.1,0.1-0.1,0.1c0,0.1,0,0.2,0,0.3L269.5,369.4z M259.4,77.4l0.2-0.3c-0.1-0.1-0.2-0.2-0.4-0.2
						c-0.1,0.1-0.2,0.2-0.3,0.3L259.4,77.4z M225.2,73.1c-0.1-0.1-0.2-0.1-0.3-0.1c-0.1,0-0.2,0-0.3,0c0.1,0.1,0.2,0.1,0.3,0.2
						C225,73.2,225.1,73.2,225.2,73.1L225.2,73.1z M229.8,367.4c-0.1-0.1-0.2-0.2-0.3-0.2c-0.1,0-0.3,0.1-0.4,0.1
						c0.1,0.1,0.1,0.1,0.2,0.2C229.5,367.5,229.7,367.4,229.8,367.4L229.8,367.4z M175.8,365.7h-0.1c0,0.1,0,0.2,0,0.3h0.1
						C175.8,365.9,175.8,365.8,175.8,365.7L175.8,365.7z M239.2,372.2c-0.1-0.1-0.1-0.1-0.2-0.2c-0.1,0-0.2,0.1-0.2,0.1
						c0.1,0.1,0.1,0.1,0.2,0.2C239,372.3,239.1,372.3,239.2,372.2L239.2,372.2z M185.4,370.9l0.2-0.1c0-0.1-0.1-0.1-0.2-0.2
						c-0.1,0-0.2,0.1-0.3,0.2L185.4,370.9z M267,79h0.1v0L267,79L267,79z M268.5,364.8l0.3-0.1c-0.1-0.1-0.2-0.2-0.3-0.2
						c-0.1,0-0.2,0.1-0.3,0.1L268.5,364.8z M257.8,76.6c0,0.1,0.1,0.2,0.2,0.3c0.1,0,0.3,0,0.4,0c0-0.1-0.1-0.2-0.1-0.2
						C258.2,76.6,258,76.6,257.8,76.6L257.8,76.6z M169.4,87.8c-0.1-0.1-0.2-0.1-0.3-0.1c-0.1,0-0.1,0.1-0.2,0.2
						c0.1,0,0.2,0.1,0.3,0.1C169.3,88,169.4,87.9,169.4,87.8L169.4,87.8z M261.9,77.7c0,0.1,0.1,0.2,0.2,0.2c0.1,0,0.2-0.1,0.2-0.2
						c-0.1-0.1-0.1-0.1-0.2-0.2C262,77.6,261.9,77.6,261.9,77.7L261.9,77.7z M243.4,367.3l-0.2-0.1c0,0.1,0,0.2,0,0.2
						c0,0,0.1,0,0.1,0C243.3,367.4,243.4,367.4,243.4,367.3L243.4,367.3z M244.9,372.4L244.9,372.4L244.9,372.4L244.9,372.4z
						 M153.4,350l0.2-0.1c0,0-0.1-0.1-0.1-0.1l-0.2,0.1L153.4,350z M243.5,74.1v0.3c0,0,0.1-0.1,0.1-0.1
						C243.6,74.2,243.6,74.2,243.5,74.1L243.5,74.1z M145.2,106.4c0,0,0-0.1,0-0.1c0,0-0.1,0-0.1,0v0.2L145.2,106.4z M173,91.3
						c0,0,0.1,0,0.1,0c0,0,0-0.1,0-0.1L173,91.3L173,91.3z M268.6,79.4L268.6,79.4L268.6,79.4L268.6,79.4L268.6,79.4z M220.8,81.9
						c0,0,0.1,0.1,0.1,0.1c0.1,0,0.2,0,0.3,0c0,0-0.1-0.1-0.1-0.1C221,81.9,220.9,81.9,220.8,81.9L220.8,81.9z M196,84.9
						c0,0,0-0.1-0.1-0.1c0,0-0.1,0-0.1,0L196,84.9L196,84.9z M196.9,84.7v-0.1h-0.1c0,0,0,0.1,0,0.1L196.9,84.7L196.9,84.7z
						 M216.3,77.4L216.3,77.4L216.3,77.4L216.3,77.4z M253.3,373.9L253.3,373.9l-0.1,0.1L253.3,373.9z M186.7,371.2h0.1
						C186.8,371.1,186.8,371.1,186.7,371.2C186.7,371.1,186.7,371.1,186.7,371.2L186.7,371.2z M260.9,77.3h-0.1v0.1L260.9,77.3z
						 M188.3,86.6L188.3,86.6L188.3,86.6L188.3,86.6z M260.9,82.8L260.9,82.8L260.9,82.8L260.9,82.8z M173.1,82.3H173
						C173,82.3,173.1,82.4,173.1,82.3C173.1,82.4,173.2,82.3,173.1,82.3L173.1,82.3z M272,85.6L272,85.6L272,85.6L272,85.6z
						 M92.6,153.1L92.6,153.1L92.6,153.1L92.6,153.1z M105,138.8L105,138.8L105,138.8L105,138.8L105,138.8z"/>
					<path id="Shape_5_" class="st0" d="M386.4,141.6c0,0-0.1,0.1-0.1,0.1c0,0,0,0.1,0,0.1v-0.2l0,0L386.4,141.6z"/>
					<path id="Shape_6_" class="st0" d="M363.8,220.4c-3.2,52-20.4,85.7-52.2,111.7c-23.6,19.7-53.3,30.4-84,30.3
						c-43.8,0.2-80.4-16.3-108.6-50.1c-22.5-27.1-33-58.6-31.5-93.6c2-44.9,22-81.4,58.1-107.3c27.7-19.9,60.4-28.1,94.9-23.9
						C324.8,98.1,367.2,170.6,363.8,220.4L363.8,220.4z M148.4,121.5h0.1H148.4l0.1,0.2L148.4,121.5z M146.2,113l0.5-0.2h0.1v0.1
						l-0.6,0.2l0,0V113L146.2,113z M145.2,114.1l0.1-0.1v0.1H145.2L145.2,114.1L145.2,114.1z M159.1,110.7l0.3-0.3l1.1-0.5l0.3-0.4
						l0.5-0.8l0,0v-0.1l-0.5,0.9l-0.3,0.4l-1.1,0.4L159.1,110.7l-0.4,0.5l0,0L159.1,110.7z M158.5,105.7l-1-0.1v0.2v-0.3
						L158.5,105.7l0.1-0.5l0.5-0.2l-0.1-0.1l-0.3,0.3L158.5,105.7z M291.4,341l-1.1-0.2c0,0,0.1,0,0.1,0s0,0.1,0,0.1h-0.3l0.2-0.1
						L291.4,341L291.4,341l0,0.1L291.4,341z M286.6,343.6l-0.1-0.1L286.6,343.6l0.2-0.9l1.1-0.2l0.8-0.2l0,0v0.1h-0.9l-1,0.4
						L286.6,343.6z M301.4,330.6l-0.2-0.1v0.2L301.4,330.6l0.3-0.4c1.3-0.2,3,0.2,3.8-0.6c8.2-8,16.4-16,24.4-24.2
						c2.3-2.6,4.4-5.4,6.4-8.3c-0.3,1-0.7,1.9-1.2,2.7c-4.2,5.3-8.5,10.5-12.7,15.7l0,0h0.1c-5.2,5.4-10.5,10.9-15.7,16.2
						c-1,0.9-2,1.7-3,2.4c2.1-0.6,4.7-0.8,6.5-2.1c4.4-3.4,8.5-7,12.4-11c11-11.1,20.1-23.9,26.8-38c6.3-13.5,10.9-27.5,12.1-42.3
						c0.8-11.1,0.7-22.3-0.1-33.5c-1.2-13.8-5-27.2-11.2-39.6c-2.2-4.5-6.2-8-9.3-12c-1.5-1.9-2.6-4.1-4-6.1
						c-0.3-0.3-0.7-0.6-1.1-0.9c0,0.5,0.1,0.9,0.3,1.4c3,5.3,6.5,10.5,9.1,16c11.7,24.1,15.8,51.1,11.9,77.6
						c-2.5,16.8-8.1,33.1-16.6,47.8c-1.2,1.9-2.6,3.7-4,5.4c3.6-7,7.5-13.8,10.7-20.9c5.7-12.8,9.2-26.6,10.1-40.6
						c0.3-4,0.5-8,0.8-12l0,0v0.1c-0.1-0.3-0.2-0.7-0.3-1.1c-0.8-7.2-0.8-14.8-2.4-21.9c-4.6-19.8-9.1-39.6-25.8-53.6
						c-2.6-2.4-5.1-4.9-7.4-7.6c2.3,3.7,4.8,7.2,7.5,10.7c8.8,12.2,15.3,25.8,19.2,40.3l0,0v-0.1c0.1,0.2,0.2,0.4,0.3,0.6
						c4.8,18.4,5.6,37.5,2.3,56.2c-3.4,19.7-10.7,37.8-23.1,53.5c-6.4,8.1-14.1,15.2-21.2,22.8v-0.1h-0.1c0.1,0.7,0.1,1.4-0.1,2.1
						c-1.7,1.7-3.6,3.3-5.4,4.9L301.4,330.6z M161.5,104.1c-0.1-0.1-0.1-0.1-0.2-0.2c0,0,0-0.1,0.1-0.1l0.4,0.1L161.5,104.1
						l-1.1-0.2l0,0c-0.3,0.5-0.1,0.2,0,0L161.5,104.1z M315.6,126.5l0.1,0.6l1.2,0.5l0,0h0.1l-1.3-0.5L315.6,126.5l-0.4-0.5
						c0,0.1-0.1,0.2-0.1,0.3C315.3,126.3,315.5,126.4,315.6,126.5L315.6,126.5z M126.5,129.6l-0.2,0.6h0.1L126.5,129.6L126.5,129.6
						L126.5,129.6z M128.4,127.6L128.4,127.6C128.4,128.2,128.4,127.9,128.4,127.6l0.6-0.2l1.3-0.9l-0.4-0.3l-0.9,1.3L128.4,127.6z
						 M298.7,329.9l-0.7,1.2l-3,0.9l0.3,0.6c0.9-0.5,1.9-1,2.8-1.5L298.7,329.9l0.7-0.2l-0.1-0.2L298.7,329.9z M168.9,99.6
						L168.9,99.6C169.6,99.5,169.3,99.6,168.9,99.6L168.9,99.6L168.9,99.6z M272.9,349.5h0.2H272.9l-0.1,0.2L272.9,349.5z
						 M162.6,102.8h0.2H162.6l-0.2,0.2l0.2,0.1L162.6,102.8z M199.7,90.4l-1.9-0.3l-1.5,0.7l0.3,0.4l1.2-1.1l1.9,0.2l0.1-0.2h-0.1
						L199.7,90.4z M151.1,335.3l-0.5-0.5l-0.1,0.2L151.1,335.3L151.1,335.3L151.1,335.3L151.1,335.3z M132.8,135.3l2-1.5v-0.1v0.1
						L132.8,135.3l0,0.1L132.8,135.3z M338.4,147.5l-0.3-0.6l-0.3,0.2L338.4,147.5l1.5,2.9l0.5-0.3L338.4,147.5z M171.6,341.5
						L171.6,341.5L171.6,341.5l-4.2-2.8l-0.4,0.6C168.6,340.1,170.1,340.8,171.6,341.5L171.6,341.5z M125.6,305.1
						c-5.8-9.5-12.2-18.6-17.2-28.5c-8.9-18.2-12.7-38.4-11-58.5c0.9-10.9,2.9-21.7,5.8-32.3c3.3-12,8.8-23.3,16.3-33.3l0,0v0.1
						c-1.5,0.5-3.3,0.6-4.3,1.5c-2.2,1.8-4,4-5.5,6.4c-7.9,13.9-13.1,29.2-15.3,45c-2.4,16.6-1.6,33.6,2.3,49.9
						c6.2,26.5,20.6,50.3,41.2,68.2c5.2,4.6,11,8.7,16.5,13c-1.7-3.7-4-7.1-6.8-10C140.5,319.3,133,312.3,125.6,305.1L125.6,305.1
						L125.6,305.1z M340.1,280.7L340.1,280.7L340.1,280.7c0-0.4,0-0.7,0.1-1.1c5.2-10.6,8.7-21.9,10.7-33.5
						c2.3-13.6,2.4-27.4,0.4-41c-2-13-6-25.7-12-37.5c-8.2-16.5-19.9-30.9-34.3-42.4c-13.4-10.8-28.9-18.8-45.5-23.3
						c-16.2-4.5-33.2-5.8-49.9-3.7c-13.6,1.7-26.3,6.3-38.7,12c-17,7.5-32,19-43.7,33.3C108,167.3,98,194.2,98,224.7
						c-0.1,15,2.6,29.8,7.8,43.9c9.5,26.3,27.6,48.6,51.3,63.5c26.3,16.7,55.2,22.7,86.1,18.7c19-2.5,36.3-9.7,52.3-19.9
						c12.9-8.3,24-19,32.8-31.5C332.5,293.4,336.2,286.9,340.1,280.7L340.1,280.7z M148.2,336.5c-0.5-1.8-0.4-3.5-1.2-4.3
						c-5.7-5.2-11.8-9.8-17.2-15.2c-13.4-13.5-23.6-29.8-29.8-47.7c-7.5-21-9.5-43.5-6-65.4c2-12.7,5.8-25.1,11.4-36.8
						c1.1-2.2,2.2-4.5,3-6.8c0.6-1.8,0.6-3.9,1.3-5.7c0.7-1.8,1.9-3.1,2.7-4.6c0.1-0.7,0-1.4-0.2-2c-0.4,0.2-0.7,0.5-1.1,0.9
						c-0.8,1-1.5,2.1-2.1,3.2c-10.8,17.2-17.5,36.6-19.8,56.8c-1.6,13.2-1.3,26.5,0.9,39.6c4.3,25.3,15.9,48.8,33.2,67.7
						c4.6,5.1,9.7,9.8,14.8,14.8l0.6-1.8c0.3,0.2,0.7,0.5,1,0.7L148.2,336.5z M159.8,334.8l-0.3,0.4c1.2,0.9,2.4,1.8,3.6,2.6
						c0.2-0.1,0.3-0.2,0.4-0.4l-3-2.1L159.8,334.8z M201.5,89.8v0.4l4.6-0.6v-0.5L201.5,89.8z M193.6,355.8v-0.4l-3.4-0.6l-0.1,0.5
						L193.6,355.8z M219.3,88.1v-0.3l-3.3,0.1v0.3L219.3,88.1z M207.5,88.9v0.4l2.3-0.5v-0.4L207.5,88.9z M197,356.6l0.2-0.4
						l-2.6-0.7l-0.1,0.3L197,356.6z M216.4,96.9v-0.1l-1.5-0.1v0.3L216.4,96.9z M271.3,353.7l-0.1-0.3l-1.1,0.5l0.1,0.3L271.3,353.7
						z M235.2,91.8c-0.2-0.1-0.5-0.3-0.8-0.3c-0.2,0-0.3,0-0.5,0.1c0.1,0.2,0.2,0.3,0.4,0.4C234.7,92,235,91.9,235.2,91.8
						L235.2,91.8z M206.3,358.1l-0.4,0.2c0.1,0.1,0.2,0.2,0.4,0.2c0.1,0,0.2,0,0.3,0L206.3,358.1z M257.1,349
						c-0.4,0-0.8,0.1-1.2,0.2c-0.1,0.1-0.1,0.3-0.2,0.4L257.1,349z M168.2,100.3c-0.1-0.1-0.2-0.1-0.3-0.1c-0.1,0-0.2,0.1-0.2,0.2
						c0,0.1,0,0.1,0.1,0.2L168.2,100.3z M172.2,106.6c-0.1-0.1-0.3-0.2-0.5-0.2c-0.2,0.1-0.3,0.2-0.4,0.3c0.1,0.1,0.2,0.2,0.3,0.2
						C171.9,106.9,172.1,106.8,172.2,106.6L172.2,106.6z M195.1,91.4c-0.1-0.1-0.3-0.2-0.4-0.2c-0.1,0-0.2,0.1-0.3,0.1
						c0,0.1,0.1,0.2,0.2,0.3C194.8,91.6,195,91.5,195.1,91.4L195.1,91.4z M169.2,349.2l-0.4,0.2c0.1,0.1,0.2,0.2,0.3,0.3
						c0.1,0,0.2-0.1,0.3-0.2L169.2,349.2z M149.6,334l-0.3-0.1c0,0.1,0,0.2,0,0.2c0,0,0.1,0,0.1,0C149.5,334.1,149.6,334,149.6,334
						L149.6,334z M336.9,144.5c-0.2-0.1-0.4-0.2-0.5-0.3c-0.1,0-0.2,0.1-0.2,0.2c0,0.1,0.1,0.2,0.1,0.2
						C336.5,144.7,336.7,144.6,336.9,144.5L336.9,144.5z M149.6,120.9l-0.1,0.2c0,0,0.1,0,0.1,0C149.6,121.1,149.6,121,149.6,120.9
						L149.6,120.9z M320.5,126.5l-0.2-0.3c-0.1,0-0.1,0.1-0.2,0.2c0,0,0,0.1,0,0.1C320.2,126.6,320.4,126.6,320.5,126.5L320.5,126.5
						z M199.4,356.8c-0.1-0.1-0.2-0.1-0.3-0.1c-0.1,0-0.2,0-0.2,0c-0.1,0.1-0.1,0.2,0,0.2c0.1,0.1,0.2,0.1,0.2,0
						C199.2,356.9,199.3,356.9,199.4,356.8L199.4,356.8z M221.5,87.8c-0.1-0.1-0.3-0.1-0.4-0.1c-0.1,0.1-0.1,0.1-0.2,0.2
						c0.1,0,0.3,0.1,0.4,0.1C221.4,87.9,221.5,87.8,221.5,87.8L221.5,87.8z M237.1,357.3v-0.1l-0.2,0.1c0,0,0,0.1,0,0.1L237.1,357.3
						z M314.4,125.4l0.1-0.1l-0.2-0.2c0,0-0.1,0.1-0.1,0.1L314.4,125.4z M131.9,137l-0.1-0.2h-0.1c0,0.1,0.1,0.2,0.1,0.2L131.9,137z
						 M278.5,347.1c0,0,0,0.1,0,0.1c0,0,0.1,0,0.1,0v-0.2L278.5,347.1z M210.6,88.8l0.3-0.1c0-0.1-0.1-0.1-0.1-0.2
						c-0.1,0-0.2,0-0.3,0L210.6,88.8z M193,91.5h-0.1c0,0,0,0.1,0,0.1L193,91.5L193,91.5L193,91.5z M238,357.2h0.1v-0.1L238,357.2z
						 M162.3,108.5L162.3,108.5L162.3,108.5L162.3,108.5L162.3,108.5z M211.6,88.3L211.6,88.3L211.6,88.3L211.6,88.3z"/>
					<path id="Shape_7_" class="st0" d="M347.6,202.8L347.6,202.8L347.6,202.8L347.6,202.8L347.6,202.8z"/>
					<path id="Shape_8_" class="st0" d="M338.1,220.7v-0.5V220.7z"/>
					<ellipse id="Oval" class="st0" cx="225.6" cy="224.9" rx="123.7" ry="123.5"/>
					<path id="Shape_9_" class="st0" d="M225.2,32.1c106.4,0,192.6,86.1,192.6,192.3s-86.2,192.3-192.6,192.3S32.6,330.6,32.6,224.4
						c0-51,20.3-99.9,56.4-136S174.1,32.1,225.2,32.1L225.2,32.1z M225.2,29c-93.1,0-173.3,65.5-191.8,156.6S63.2,368.2,149,404.4
						c99.6,42,214.4-4.5,256.5-103.9S401,86.4,301.4,44.4C277.3,34.2,251.3,29,225.2,29L225.2,29L225.2,29z"/>
				</g>
			</g>
		</g>
	</g>
</g>
</svg>
