<svg id="3bb8fb1e-2a1f-402c-b786-c2d2b153349d" data-name="highedweb logo" xmlns="http://www.w3.org/2000/svg" width="227.08" height="175.71" viewBox="0 0 227.08 175.71"><title>heweb-logo</title><path d="M148.47,11a17.62,17.62,0,0,0-6.17-4.13C133.88,3,119.87,0,111.16,0q-.86,0-1.64,0l-.17.07-.09.2a.32.32,0,0,0,0,.16,2.47,2.47,0,0,0,.33.39,108.09,108.09,0,0,1,8.16,8.46l.43.59.08.11h.13l.66,0h0c2.48-.15,4.93-.22,7.3-.22a149.61,149.61,0,0,1,15.43.83c2,.21,3.58.42,4.68.57s1.71.26,1.71.26l.65.11Z" style="fill:#4375a5"/><path d="M112.14,10.25a2.61,2.61,0,0,0-.32-.39c-.74-.8-2.74-2.78-4.75-4.68-1-1-2-1.88-2.84-2.64A20.81,20.81,0,0,0,102.32,1L102.2.88l0,0,0,0L102,.77a1.29,1.29,0,0,0-.64-.17h-.1A75.77,75.77,0,0,0,76,7c-.37.18-.54.24-.68.43l0,.07,0,.16a1.22,1.22,0,0,0,.07.31c.17.57,1,3.24,1.81,5.81l1.11,3.49.38,1.17.12.35.06.18.11.25.17.19a.52.52,0,0,0,.29.09,1.4,1.4,0,0,0,.53-.16l.74-.34a100.66,100.66,0,0,1,30.86-8.12l.44,0,.15-.06,0,0a.29.29,0,0,0,.14-.25A.41.41,0,0,0,112.14,10.25Zm-9.89-9h0ZM101.9.89Z" style="fill:#00528c"/><path d="M74.76,19.82,73.3,15.25c-.42-1.3-.83-2.6-1.17-3.63-.39-1.19-.61-1.83-.7-2.06l-.1-.24L71,9l-.07,0a.88.88,0,0,0-.45-.11,1.18,1.18,0,0,0-.58.21l-.75.4c-3.62,2-16,9.15-24,18.59l-.15.18a1,1,0,0,0-.15.35l0,.34,0,.27c0,.08,0,.27.12.6.44,2.14,2.11,9.88,2.21,10.33a3.77,3.77,0,0,0,.27.88.81.81,0,0,0,.73.5h.05a1,1,0,0,0,.6-.27L49,41A107.39,107.39,0,0,1,66,27.27c2-1.3,4-2.54,5.94-3.67l1.77-1,.33-.18.48-.27.12-.08.2-.14.21-.19.16-.45Z" style="fill:#00528c"/><path d="M44,44.75a1.35,1.35,0,0,0,0-.31c-.12-.53-2-8.84-2.25-9.83,0-.09,0-.18-.07-.27l-.09-.16a.33.33,0,0,0-.25-.11l-.16,0a1,1,0,0,0-.35.3c-12,16.54-13.64,31.34-13.69,31.83,0,.25,0,.48,0,.67a1.45,1.45,0,0,0,0,.32l.07.16a.31.31,0,0,0,.22.14h.15a.72.72,0,0,0,.66-.4,107.14,107.14,0,0,1,9.16-14c3-4,5.63-7,6.32-7.69l.06-.06h0l0,0,0,0v-.06l.07-.11A.6.6,0,0,0,44,44.75Zm-.2.29h0Zm-.06.32h0Zm0,0Zm.07-.21v0l0,.06Z" style="fill:#83a4c5"/><path d="M166.88,38.11a88.37,88.37,0,0,0-8.34-15.64,38.39,38.39,0,0,0-4.16-5.16A2.62,2.62,0,0,0,154,17a4.92,4.92,0,0,0-1.42-.5c-4.55-1.1-18-2.11-26-2.11-1.47,0-2.76,0-3.77.11l-.5,0-.2.05a.36.36,0,0,0-.21.21l0,.16a.65.65,0,0,0,.1.32l.24.41a116.23,116.23,0,0,1,6.23,12.42c.84,1.91,1.54,3.6,2.05,4.83l.61,1.49c.15.37.24.58.28.67a1.69,1.69,0,0,0,.13.24l.11.14.11.1.2,0,.45,0c.41,0,2.38-.15,5.41-.15a95.89,95.89,0,0,1,27.66,3.9c.42.13.69.24.88.31a1.42,1.42,0,0,0,.45.13.41.41,0,0,0,.29-.13.51.51,0,0,0,.13-.37A3.43,3.43,0,0,0,166.88,38.11Z" style="fill:#4375a5"/><path d="M187.68,51.13a14.81,14.81,0,0,0-.94-3.12c-2.85-5.49-8.8-20.42-24.8-29.94l-.57-.32-.2-.09-.2,0-.2.07-.09.21a.62.62,0,0,0,.1.29c.19.33.65.92,1.35,1.9A84.73,84.73,0,0,1,172.45,40c.44,1.16.44,1.24.67,1.89a.52.52,0,0,0,.19.24c.22.16.53.28,1.12.63a136,136,0,0,1,11.35,7.6l1,.77.33.23a.62.62,0,0,0,.31.12l.22-.1.07-.2Z" style="fill:#83a4c5"/><path d="M126.38,35c-4.58-12.2-9.27-18.61-9.71-19.15a2.38,2.38,0,0,0-.67-.68h0a1.65,1.65,0,0,0-.45-.05l-.31,0c-10.32,1.37-21.52,3.09-33.12,8.44l-.66.3-.21.14-.13.24v.09a.85.85,0,0,0,.12.37,3.24,3.24,0,0,1,.19.44l.38,1c1.55,3.95,7.42,18.71,7.61,19.24a6.17,6.17,0,0,0,.25.62.78.78,0,0,0,.26.31l.07,0,.16,0a1.83,1.83,0,0,0,.58-.2,97.36,97.36,0,0,1,9.55-3.72,149.36,149.36,0,0,1,24.56-6,5.89,5.89,0,0,0,1.57-.36l.17-.17,0-.21A2.63,2.63,0,0,0,126.38,35Z" style="fill:#00528c"/><path d="M85.43,47.21l-.09-.2s-.19-.43-1.37-3.32c-1.78-4.33-4.77-11.68-6.12-15L77.16,27a2,2,0,0,0-.72-1L76.3,26l-.23,0h0a1.47,1.47,0,0,0-.66.2l-.37.2-.31.17A104.55,104.55,0,0,0,57.2,38.82C55.4,40.37,53.63,42,52,43.58c-.63.6-1.13,1.1-1.48,1.45l-.42.42-.14.14a4.08,4.08,0,0,0-.58.54,1.19,1.19,0,0,0-.31.72v.07h0v0h0v0a2.31,2.31,0,0,0,.13.51l.09.26c.46,1.41,4.23,12.33,7.4,19.37.08.17.16.35.26.53l.18.26a1,1,0,0,0,.52.31l.13,0h0a1.13,1.13,0,0,0,.69-.31l.22-.2.17-.16c.12-.11,12.81-11.57,25.55-18a3.8,3.8,0,0,0,.77-.46l.21-.26.12-.25a1.42,1.42,0,0,0,.13-.59A1.85,1.85,0,0,0,85.43,47.21Z" style="fill:#00528c"/><path d="M53.85,71.26c-.07-.19-.17-.4-.27-.62-4.08-8.78-7.15-17.87-7.33-18.37-.09-.25-.18-.45-.26-.61l-.11-.2-.06-.08-.13-.09-.08.24.08-.24-.17,0-.21.06a3.7,3.7,0,0,0-.66.66,158.69,158.69,0,0,0-9.9,13c-1.52,2.18-2.86,4.17-3.84,5.65-.49.74-.89,1.36-1.18,1.82s-.46.74-.52.87-.1.21-.13.28a.9.9,0,0,0-.07.27V74c0,.2.06.38.1.73,0,.17.16.86.44,2a83.62,83.62,0,0,0,7.12,18.36c.12.22.2.42.27.59l.13.23a.38.38,0,0,0,.3.17.31.31,0,0,0,.21-.08l.14-.19c.11-.2.21-.48.33-.68.39-.71,8-15.08,15.39-22.45a3.57,3.57,0,0,0,.42-.46.66.66,0,0,0,.11-.4h0A1.54,1.54,0,0,0,53.85,71.26Z" style="fill:#83a4c5"/><path d="M33.42,98.47c-.33-.76-1.46-2.65-2.8-5.46a57.94,57.94,0,0,1-3.93-10.8c-.24-.94-1.1-3.8-1.26-4.53l-.14-.63-.32.56a6.71,6.71,0,0,0-.47,1.66h0s-1,8.67-1,14.46a22.3,22.3,0,0,0,.23,3.7,3.32,3.32,0,0,0,.41,1.24.63.63,0,0,0,.5.33h0s2.75.1,5.11.1c.91,0,1.76,0,2.4-.06A6.51,6.51,0,0,0,33,99a1.15,1.15,0,0,0,.26-.08l.12-.08a.31.31,0,0,0,.09-.21Z" style="fill:#83a4c5"/><path d="M69.66,97.68a.52.52,0,0,0-.34-.31h0a6.48,6.48,0,0,1-.9-1.1c-1.52-2.12-4.34-6.73-6.8-10.86-1.23-2.06-2.37-4-3.22-5.46l-1-1.77-.42-.74c-.25-.5-.4-.73-.4-.74l0-.06-.06,0a.31.31,0,0,0-.15,0l-.18.06a4.38,4.38,0,0,0-.54.5c-2.79,2.79-6,7.59-8.54,11.81s-4.49,7.85-4.71,8.27a8.62,8.62,0,0,1-.47.76l-.17.27a.6.6,0,0,0-.09.29.32.32,0,0,0,.14.26l.22.06,27.47,0h.19l.05-.18a2.63,2.63,0,0,0,.09-.62A1,1,0,0,0,69.66,97.68Z" style="fill:#83a4c5"/><path d="M100.58,82.08a8.07,8.07,0,0,0-.42-1l-.59-1.28c-1.23-2.71-4.15-9.2-6.79-15L89.29,57l-1.12-2.46-.32-.7-.09-.2,0-.1a1.14,1.14,0,0,0-.51-.44L87,53.07a1.31,1.31,0,0,0-.56.17A103.63,103.63,0,0,0,68.57,64.89c-2.33,1.86-4.25,3.53-5.64,4.77s-2.24,2.06-2.41,2.2-.23.2-.34.3l-.15.17a.46.46,0,0,0-.1.24h0v0a1.19,1.19,0,0,0,.16.52,2.6,2.6,0,0,0,.14.24c.13.24,7.76,14.3,15.12,24,.28.37.54.68.54.68l.08.09,1.54,0,.07-.08s.57-.6.9-.93S84,91.69,100,82.76a1.83,1.83,0,0,0,.45-.3l.08-.11h0l.11-.11Z" style="fill:#00528c"/><path d="M135.34,69.83c-2.28-10.64-5.49-23.1-6.78-27.86a3.15,3.15,0,0,0-.35-.88.54.54,0,0,0-.27-.25h0a2.19,2.19,0,0,0-.36,0,4.63,4.63,0,0,0-.75.11A137.15,137.15,0,0,0,93,50.34l-.58.24-.23.12a.47.47,0,0,0-.2.2l0,.18a1.29,1.29,0,0,0,.12.46c.07.17.16.37.28.61.34.68,3.39,7.38,6.37,13.93l4.08,9,1.36,3,.39.86.17.36a7.87,7.87,0,0,0,.53.92.35.35,0,0,0,.29.13,1.05,1.05,0,0,0,.34-.08l.37-.15a117.08,117.08,0,0,1,28.19-8.57,3.91,3.91,0,0,0,.72-.15l.21-.17.1-.19,0-.22A6.1,6.1,0,0,0,135.34,69.83Z" style="fill:#00528c"/><path d="M169.35,46.7a2,2,0,0,0-.19-.64l-.1-.12-.07-.11a2.21,2.21,0,0,0-1.16-.77c-10.88-4.49-25.17-4.92-30.69-4.92-1.32,0-2.15,0-2.28,0a4.45,4.45,0,0,0-.92.06.85.85,0,0,0-.59.4l0,0v.15a2.74,2.74,0,0,0,.19.85c1.9,5.54,6.45,26.86,6.57,27.54a4.16,4.16,0,0,0,.27,1l0,.07.06,0a.71.71,0,0,0,.37.08c.35,0,.83-.11,1.07-.13s1.09-.13,2.63-.25,3.66-.24,6.21-.24a75.86,75.86,0,0,1,18.78,2.28,6.83,6.83,0,0,0,1.39.24.83.83,0,0,0,.3,0,.39.39,0,0,0,.19-.18,2.07,2.07,0,0,0,.17-.76c0-.28,0-.56,0-.7,0-.39.07-1.38.07-2.94A110.14,110.14,0,0,0,169.35,46.7Z" style="fill:#4375a5"/><path d="M194.44,85.08A125,125,0,0,0,192,62.15a2.83,2.83,0,0,0-.25-.73c-.09-.17-.19-.28-.32-.5a3.38,3.38,0,0,0-.48-.64,1.13,1.13,0,0,1-.22-.26l-.07-.1c-.17-.18-.73-.7-1.61-1.45a94.19,94.19,0,0,0-12.71-9.3c-.2-.11-.4-.26-.59-.38a1.24,1.24,0,0,0-.61-.25.43.43,0,0,0-.31.13l-.09.09,0,.12s.1.76.25,1.71A124.37,124.37,0,0,1,176.35,68c0,1.69,0,3.38-.17,5,0,.17,0,.34,0,.51a1.07,1.07,0,0,0,.21.71,1.31,1.31,0,0,0,.53.38l.61.23a33.39,33.39,0,0,1,5.14,2.5,43.65,43.65,0,0,1,10.07,8.22,6.06,6.06,0,0,1,.61.82,2,2,0,0,0,.22.3.5.5,0,0,0,.36.17.49.49,0,0,0,.25-.07.5.5,0,0,0,.2-.27,3.58,3.58,0,0,0,.1-1C194.44,85.37,194.44,85.2,194.44,85.08Z" style="fill:#83a4c5"/><path d="M193.65,95l-.05-.08a1.06,1.06,0,0,0-.14-.46c-.09-.15-.19-.27-.31-.45a41.25,41.25,0,0,0-15.43-14,3.65,3.65,0,0,0-1.4-.48.42.42,0,0,0-.31.11l-.06.06v.09s-.09.87-.12,1.25c-.31,3.4-.95,7.24-1.52,10.3s-1.1,5.35-1.18,5.61c-.16.58-.46,1.49-.46,1.49l-.11.33,20.33-.3,0-.19.58-2.5.11-.47,0-.1V95Z" style="fill:#83a4c5"/><path d="M171.14,78v-.05l-.14-.24a1.08,1.08,0,0,0-.37-.22l-.66-.27a34.56,34.56,0,0,0-5.61-1.54,66.54,66.54,0,0,0-13.22-1.27,75.46,75.46,0,0,0-7.93.42,14,14,0,0,0-1.61.3l-.21.13-.07.24a9.85,9.85,0,0,0,.17,1c.73,4.07,1.3,9.17,1.71,13.31.2,2.07.36,3.89.47,5.23.06.67.1,1.21.13,1.6s.05.62.06.7c.06.37.1.67.13.87s0,.31,0,.31l0,.23,23.52.17v-.17a5.54,5.54,0,0,0,.41-1.1c.33-1.08,2.22-6.66,3.18-18.34,0-.25,0-.47,0-.66C171.17,78.23,171.14,78,171.14,78Z" style="fill:#4375a5"/><path d="M139.2,97.14c-.14-1.25-.74-6.18-1.32-10.82l-.77-6.24c-.1-.84-.19-1.53-.25-2,0-.24-.05-.44-.07-.57l0-.15v0h0a5,5,0,0,0-.22-1.1l0-.13-.13,0a1.9,1.9,0,0,0-.5-.07,5.55,5.55,0,0,0-1,.14A145.74,145.74,0,0,0,109,83.77a8.5,8.5,0,0,0-.93.46,1.55,1.55,0,0,0-.66.59l0,.09,0,.09a12.52,12.52,0,0,0,.6,1.45l5.58,11.12a2.41,2.41,0,0,1,.18.65c0,.11,0,.21,0,.27v.34l24.93-.08.07-.13s.09-.17.18-.39a2.27,2.27,0,0,0,.19-.77C139.23,97.39,139.22,97.31,139.2,97.14Z" style="fill:#00528c"/><path d="M108.15,97.66c-.21-.37-1.31-2.6-2.35-4.77s-2.07-4.31-2.17-4.54a7.88,7.88,0,0,0-.44-.88.83.83,0,0,0-.49-.43h-.07a1.17,1.17,0,0,0-.4.11,11.15,11.15,0,0,0-1.16.6c-4.88,2.93-8.54,5.2-11,6.8-1.25.8-2.21,1.43-2.88,1.89a11.88,11.88,0,0,0-1.21.89,1.25,1.25,0,0,0-.45.83v0l0,.21h.21s13.34.18,19.31.18h2l.58,0h.24l.05,0a.24.24,0,0,0,.13-.12l.06-.06a.42.42,0,0,0,.14-.31A.74.74,0,0,0,108.15,97.66Z" style="fill:#00528c"/><path id="d7506d2b-9764-4827-9b66-656163d14cfd" data-name="lines" d="M227.08,156.09H.24v-3.3H227.08Zm-.24-58H0v3.3H226.84Z" style="fill:#231f20"/><g id="a2f0c320-159b-4738-a0ad-a13b22b11f64" data-name="association"><path id="e017e6aa-7fca-4911-9e1b-85f00eb6b70b" data-name="a" d="M4.37,172.75l-.51,3H.52l3.18-15H7.89l2.74,15H7.29l-.49-3Zm2.16-2.65-.38-2.85c-.11-.85-.31-2.47-.44-3.41h0c-.16.94-.38,2.6-.51,3.41l-.45,2.85Z" style="fill:#00528c"/><path id="a0e33dd5-b0e4-470f-8725-3521166dc891" data-name="s" d="M24.29,172.28a6.05,6.05,0,0,0,2.6.58c1.29,0,1.87-.58,1.87-1.34,0-.93-.62-1.36-1.94-2.14-2.43-1.45-2.83-3.09-2.83-4.21,0-2.47,1.6-4.61,5.08-4.61a5.59,5.59,0,0,1,2.47.53l-.49,3a3.75,3.75,0,0,0-2-.51c-1.16,0-1.71.6-1.71,1.29s.31,1.07,2,2a4.75,4.75,0,0,1,2.76,4.27c0,2.83-2.12,4.7-5.28,4.7a7.31,7.31,0,0,1-3-.58Z" style="fill:#00528c"/><path id="3ba04502-2794-4498-b235-ac15a5f17df2" data-name="s" d="M45.86,172.28a6.05,6.05,0,0,0,2.6.58c1.29,0,1.87-.58,1.87-1.34,0-.93-.62-1.36-1.94-2.14-2.43-1.45-2.83-3.09-2.83-4.21,0-2.47,1.6-4.61,5.08-4.61a5.59,5.59,0,0,1,2.47.53l-.49,3a3.75,3.75,0,0,0-2-.51c-1.16,0-1.71.6-1.71,1.29s.31,1.07,2,2a4.75,4.75,0,0,1,2.76,4.27c0,2.83-2.12,4.7-5.28,4.7a7.31,7.31,0,0,1-3-.58Z" style="fill:#00528c"/><path id="23dedc96-548e-493f-b2f0-5aa91cdde552" data-name="o" d="M72,175.89c-3.78,0-5-4-5-7.72s1.56-7.64,5.19-7.64c4.07,0,4.88,4.5,4.88,7.35,0,5.68-2,8-5.05,8Zm.11-3c.94,0,1.38-1.78,1.38-4.85,0-2.58-.36-4.54-1.4-4.54s-1.51,2-1.49,4.61c0,3,.49,4.79,1.49,4.79Z" style="fill:#00528c"/><path id="2b2c4511-9474-473d-95d5-19b065d88033" data-name="c" d="M98.73,175.51a6.45,6.45,0,0,1-2.29.33c-4.23,0-5.94-3.5-5.94-7.39,0-5.54,3.23-7.88,6.37-7.88A4.51,4.51,0,0,1,99,161l-.53,2.89a2.83,2.83,0,0,0-1.29-.29c-1.69,0-3,1.38-3,4.72,0,3.14,1.22,4.5,3,4.5a6.25,6.25,0,0,0,1.34-.18Z" style="fill:#00528c"/><path id="d82f0cac-ec2b-4ff8-ad9d-1c86f72bec9a" data-name="i" d="M116.17,160.7v15h-3.45v-15Z" style="fill:#00528c"/><path id="e354b387-f74e-4e16-9f43-386caf5e4ee8" data-name="a" d="M133.8,172.75l-.51,3H130l3.18-15h4.19l2.74,15h-3.34l-.49-3ZM136,170.1l-.38-2.85c-.11-.85-.31-2.47-.45-3.41h0c-.16.94-.38,2.6-.51,3.41l-.45,2.85Z" style="fill:#00528c"/><path id="5e96c453-feaf-4f2d-ae26-a8d57f4dd7a4" data-name="t" d="M154.61,163.91H152V160.7h8.68v3.21h-2.63v11.8h-3.45Z" style="fill:#00528c"/><path id="82877aea-16cf-43a2-ac36-f6a9502bd5cc" data-name="i" d="M178.1,160.7v15h-3.45v-15Z" style="fill:#00528c"/><path id="4c9ca53b-3067-405e-a450-d6a8c33f6600" data-name="0" d="M197.31,175.89c-3.78,0-5-4-5-7.72s1.56-7.64,5.19-7.64c4.07,0,4.87,4.5,4.87,7.35,0,5.68-2,8-5.05,8Zm.11-3c.94,0,1.38-1.78,1.38-4.85,0-2.58-.36-4.54-1.4-4.54s-1.51,2-1.49,4.61c0,3,.49,4.79,1.49,4.79Z" style="fill:#00528c"/><path id="985783f9-467e-4997-9f8e-c30e924d46e3" data-name="n" d="M216.6,175.71v-15h3.14l2.12,5.39c.38,1,1.09,2.85,1.47,4h0c-.09-1.22-.33-4.14-.33-7V160.7h3v15H222.9l-2-5.05a38.33,38.33,0,0,1-1.42-4.25h0c.07,1.29.2,3.78.2,6.72v2.58Z" style="fill:#00528c"/></g><g id="403993d3-baf4-4bdd-b29e-4b9c334039fe" data-name="highedweb"><path id="d14b1c28-62c7-4a11-b8b4-1fb2e9a85171" data-name="h" d="M9.6,106.72v15.86h6.9V106.72h9.38v40.81H16.5V131.3H9.6v16.23H.21V106.72Z" style="fill:#231f20"/><path id="87bf0ce6-a19d-401c-b009-4390055a479e" data-name="i" d="M38.82,113.53v34H31v-34Z" style="fill:#231f20"/><path id="46bb9416-738f-433c-9c33-4f35896b1ace" data-name="g" d="M63.33,146.62a25.86,25.86,0,0,1-7.47,1.21c-4.29,0-7.31-1.21-9.53-3.38-3.13-3-4.64-8.12-4.54-13.82.2-12,7.37-17.4,15.13-17.4a14.26,14.26,0,0,1,5.85,1.06L61.52,121a8.73,8.73,0,0,0-3.88-.76c-4.59,0-7.72,3-7.72,11.1,0,7.16,2.83,9.94,5.45,9.94a2.34,2.34,0,0,0,.86-.1v-6.91H53.75V127.9h9.58Z" style="fill:#231f20"/><path id="115440f5-8a6f-49ee-be21-a8b855e23598" data-name="h" d="M77,113.53v13.22h5.75V113.53h7.82v34H82.76V134H77v13.52H69.19v-34Z" style="fill:#231f20"/><path id="433f0c5f-8b1d-4a31-8ffd-3a72c06e6ec9" data-name="e" d="M114.18,130.21h-8.9v9.2h10v8.11H95.9V106.72h18.71v8.11h-9.32v7.63h8.9Z" style="fill:#00528c"/><path id="098668c3-1dbb-44da-ae4e-a51a2f0dcaef" data-name="d" d="M119.06,114a39.26,39.26,0,0,1,7.36-.66c4.59,0,7.77,1.06,10.09,3.23,3,2.77,4.34,7.31,4.34,13.67,0,6.51-1.71,11.65-5,14.43-2.37,2.07-5.75,3.13-10.85,3.13a54.2,54.2,0,0,1-6-.4Zm7.77,27.34a3.45,3.45,0,0,0,1.06.1c2.72,0,4.89-3.13,4.89-11.55,0-6.31-1.46-10.34-4.84-10.34a2.7,2.7,0,0,0-1.11.15Z" style="fill:#00528c"/><path id="5e25b328-8090-408a-a5ad-1872fa9ae37a" data-name="w" d="M148.16,147.53l-6.6-40.81h9.75l1.33,14.77c.42,4.48.67,9.2,1.15,14.17h.12c.61-5,1.45-9.45,2.24-14.17l2.54-14.77h7.51l2.24,14.77c.67,4.48,1.27,9,1.76,14.17h.12c.42-5.09.85-9.45,1.27-14.17L173,106.72h9.14l-6.84,40.81h-9.81L163.72,137c-.61-3.57-1.15-8.23-1.7-13.44h-.12c-.79,5.09-1.45,9.69-2.24,13.44l-2.18,10.54Z" style="fill:#231f20"/><path id="3c3fdfb5-ab7d-4a31-a0fe-4f2e876914ae" data-name="e" d="M199.62,133.1h-7.42v7.67h8.32v6.76H184.39v-34H200v6.76h-7.77v6.36h7.42Z" style="fill:#231f20"/><path id="c701124b-4e05-4795-b3de-eff1890c7b4f" data-name="b" d="M205.17,114a43.46,43.46,0,0,1,8.32-.66c3.18,0,6.51.3,9.08,2.42a8.35,8.35,0,0,1-2.07,13.72v.2a8,8,0,0,1,5.9,7.87,9.13,9.13,0,0,1-2.52,6.66c-2.07,2.22-5.65,3.58-12.11,3.58a48.25,48.25,0,0,1-6.61-.4Zm7.77,13.27h1.26c2.07,0,3.48-1.82,3.48-4.24,0-2.22-1.06-3.93-3.13-3.93a4.85,4.85,0,0,0-1.62.2Zm0,14.48a5.09,5.09,0,0,0,1.26.1,4,4,0,0,0,4.14-4.39,4.07,4.07,0,0,0-4.09-4.44h-1.31Z" style="fill:#231f20"/></g></svg>