<?xml version="1.0" encoding="UTF-8"?>
<svg width="22px" height="16px" viewBox="0 0 22 16" version="1.1" xmlns="http://www.w3.org/2000/svg" xmlns:xlink="http://www.w3.org/1999/xlink">
    <!-- Generator: Sketch 43.1 (39012) - http://www.bohemiancoding.com/sketch -->
    <title>arrows-24px-outline-1_cloud-download-95</title>
    <desc>Created with Sketch.</desc>
    <defs></defs>
    <g id="Sponsors" stroke="none" stroke-width="1" fill="none" fill-rule="evenodd">
        <g id="Home-Desktop-HD" transform="translate(-1405.000000, -635.000000)" fill-rule="nonzero" fill="#FFFFFF">
            <g id="jump-menu" transform="translate(249.000000, 617.000000)">
                <g id="download" transform="translate(941.000000, 0.000000)">
                    <g id="arrows-24px-outline-1_cloud-download-95" transform="translate(215.000000, 18.000000)">
                        <polygon id="Shape" points="9.625 7.12325 9.625 14.12325 11.625 14.12325 11.625 7.12325"></polygon>
                        <polygon id="Shape" points="8 10.0840364 6.58578644 11.49825 10.625 15.5374636 14.6642136 11.49825 13.25 10.0840364 10.625 12.7090364"></polygon>
                        <path d="M10.1875,0.87325 C6.38283302,0.87325 3.22051123,3.69241155 2.7061082,7.38287997 C1.09341361,8.08253157 0,9.67799242 0,11.49825 C0,13.983589 2.01501916,16 4.5,16 L7.25,16 L7.25,14 L4.5,14 C3.11989792,14 2,12.8793285 2,11.49825 C2,10.3528109 2.78356737,9.36629869 3.88657819,9.08656342 L4.60385578,8.9046542 L4.63958374,8.16553199 C4.78256341,5.20764025 7.2196215,2.87325 10.1875,2.87325 C13.1188748,2.87325 15.5387086,5.15266612 15.7302793,8.06647908 L15.7921524,9.00757702 L16.7352581,9.00084956 C18.1270284,8.99092164 19.25,10.1150536 19.25,11.49825 C19.25,12.8793285 18.1301021,14 16.75,14 L14,14 L14,16 L16.75,16 C19.2349808,16 21.25,13.983589 21.25,11.49825 C21.25,9.31513421 19.6942052,7.48890656 17.6217774,7.08430194 C16.9826054,3.53775333 13.8847619,0.87325 10.1875,0.87325 Z" id="Shape"></path>
                    </g>
                </g>
            </g>
        </g>
    </g>
</svg>