<?xml version="1.0" encoding="UTF-8"?>
<svg width="44px" height="48px" viewBox="0 0 44 48" version="1.1" xmlns="http://www.w3.org/2000/svg" xmlns:xlink="http://www.w3.org/1999/xlink">
    <!-- Generator: Sketch 44 (41411) - http://www.bohemiancoding.com/sketch -->
    <title>food-48px-outline_mug</title>
    <desc>Created with Sketch.</desc>
    <defs></defs>
    <g id="Symbols" stroke="none" stroke-width="1" fill="none" fill-rule="evenodd">
        <g id="food-48px-outline_mug" fill-rule="nonzero" fill="#252526">
            <g id="Shape">
                <path d="M2.0952381,38.6086957 C2.0952381,42.6237029 5.39763164,45.9130435 9.42857143,45.9130435 L26.1904762,45.9130435 C30.221416,45.9130435 33.5238095,42.6237029 33.5238095,38.6086957 L33.5238095,14.6086957 L2.0952381,14.6086957 L2.0952381,38.6086957 Z M26.1904762,48 L9.42857143,48 C4.2404636,48 0,43.7762971 0,38.6086957 L0,13.5652174 C0,12.9889203 0.469035024,12.5217391 1.04761905,12.5217391 L34.5714286,12.5217391 C35.1500126,12.5217391 35.6190476,12.9889203 35.6190476,13.5652174 L35.6190476,38.6086957 C35.6190476,43.7762971 31.378584,48 26.1904762,48 Z"></path>
                <path d="M16.7619048,1.04347826 L16.7619048,5.2173913 C16.7619048,5.79368843 17.2309398,6.26086957 17.8095238,6.26086957 C18.3881078,6.26086957 18.8571429,5.79368843 18.8571429,5.2173913 L18.8571429,1.04347826 C18.8571429,0.467181131 18.3881078,0 17.8095238,0 C17.2309398,0 16.7619048,0.467181131 16.7619048,1.04347826 Z"></path>
                <path d="M6.28571429,3.13043478 L6.28571429,7.30434783 C6.28571429,7.88064496 6.75474931,8.34782609 7.33333333,8.34782609 C7.91191736,8.34782609 8.38095238,7.88064496 8.38095238,7.30434783 L8.38095238,3.13043478 C8.38095238,2.55413765 7.91191736,2.08695652 7.33333333,2.08695652 C6.75474931,2.08695652 6.28571429,2.55413765 6.28571429,3.13043478 Z"></path>
                <path d="M27.2380952,3.13043478 L27.2380952,7.30434783 C27.2380952,7.88064496 27.7071303,8.34782609 28.2857143,8.34782609 C28.8642983,8.34782609 29.3333333,7.88064496 29.3333333,7.30434783 L29.3333333,3.13043478 C29.3333333,2.55413765 28.8642983,2.08695652 28.2857143,2.08695652 C27.7071303,2.08695652 27.2380952,2.55413765 27.2380952,3.13043478 Z"></path>
                <path d="M41.9047619,14.6086957 L41.9047619,21.9130435 C41.9047619,23.6323985 40.4880826,25.0434783 38.7619048,25.0434783 L34.5714286,25.0434783 C33.9928445,25.0434783 33.5238095,25.5106594 33.5238095,26.0869565 C33.5238095,26.6632537 33.9928445,27.1304348 34.5714286,27.1304348 L38.7619048,27.1304348 C41.6452507,27.1304348 44,24.7849928 44,21.9130435 L44,13.5652174 C44,12.9889203 43.530965,12.5217391 42.952381,12.5217391 L34.5714286,12.5217391 C33.9928445,12.5217391 33.5238095,12.9889203 33.5238095,13.5652174 C33.5238095,14.1415145 33.9928445,14.6086957 34.5714286,14.6086957 L41.9047619,14.6086957 Z"></path>
            </g>
        </g>
    </g>
</svg>