<?xml version="1.0" encoding="UTF-8"?>
<svg width="35px" height="35px" viewBox="0 0 35 35" version="1.1" xmlns="http://www.w3.org/2000/svg" xmlns:xlink="http://www.w3.org/1999/xlink">
    <!-- Generator: Sketch 43.2 (39069) - http://www.bohemiancoding.com/sketch -->
    <title>business-48px-outline_badge</title>
    <desc>Created with Sketch.</desc>
    <defs></defs>
    <g id="Schedule" stroke="none" stroke-width="1" fill="none" fill-rule="evenodd">
        <g id="Home-Desktop-HD" transform="translate(-478.000000, -759.000000)" fill="#252526">
            <g id="Schedule" transform="translate(288.000000, 606.000000)">
                <g id="Meal" transform="translate(0.000000, 121.000000)">
                    <g id="food-48px-outline_cutlery-77" transform="translate(190.000000, 32.000000)">
                        <g id="Shape">
                            <path d="M27.4324324,22.0652174 L27.4324324,31.9565217 C27.4324324,33.6702167 29.0856766,35 31.2162162,35 C33.3467558,35 35,33.6702167 35,31.9565217 L35,22.0652174 C35,21.6450007 34.5764856,21.3043478 34.0540541,21.3043478 C33.5316225,21.3043478 33.1081081,21.6450007 33.1081081,22.0652174 L33.1081081,31.9565217 C33.1081081,32.8297833 32.3018928,33.4782609 31.2162162,33.4782609 C30.1305396,33.4782609 29.3243243,32.8297833 29.3243243,31.9565217 L29.3243243,22.0652174 C29.3243243,21.6450007 28.9008099,21.3043478 28.3783784,21.3043478 C27.8559469,21.3043478 27.4324324,21.6450007 27.4324324,22.0652174 Z" fill-rule="nonzero"></path>
                            <path d="M33.1081081,21.3043478 L33.1081081,1.56410176 C28.8681673,1.94598234 25.5405405,4.86205396 25.5405405,8.36956522 L25.5405405,21.3043478 L33.1081081,21.3043478 Z M34.0540541,22.826087 L24.5945946,22.826087 C24.0721631,22.826087 23.6486486,22.485434 23.6486486,22.0652174 L23.6486486,8.36956522 C23.6486486,3.76456595 28.3289198,0 34.0540541,0 C34.5764856,0 35,0.340652908 35,0.760869565 L35,22.0652174 C35,22.485434 34.5764856,22.826087 34.0540541,22.826087 Z" fill-rule="nonzero"></path>
                            <path d="M4.72972973,15.9782609 L4.72972973,31.9565217 C4.72972973,33.6702167 6.38297389,35 8.51351351,35 C10.6440531,35 12.2972973,33.6702167 12.2972973,31.9565217 L12.2972973,15.9782609 C12.2972973,15.5580442 11.8737829,15.2173913 11.3513514,15.2173913 C10.8289198,15.2173913 10.4054054,15.5580442 10.4054054,15.9782609 L10.4054054,31.9565217 C10.4054054,32.8297833 9.5991901,33.4782609 8.51351351,33.4782609 C7.42783693,33.4782609 6.62162162,32.8297833 6.62162162,31.9565217 L6.62162162,15.9782609 C6.62162162,15.5580442 6.1981072,15.2173913 5.67567568,15.2173913 C5.15324416,15.2173913 4.72972973,15.5580442 4.72972973,15.9782609 Z" fill-rule="nonzero"></path>
                            <path d="M15.1351351,0.760869565 L15.1351351,12.9347826 C15.1351351,14.188479 13.8559469,15.2173913 12.2972973,15.2173913 L4.72972973,15.2173913 C3.17108017,15.2173913 1.89189189,14.188479 1.89189189,12.9347826 L1.89189189,0.760869565 C1.89189189,0.340652908 1.46837747,0 0.945945946,0 C0.423514426,0 0,0.340652908 0,0.760869565 L0,12.9347826 C0,15.0289123 2.12621713,16.7391304 4.72972973,16.7391304 L12.2972973,16.7391304 C14.9008099,16.7391304 17.027027,15.0289123 17.027027,12.9347826 L17.027027,0.760869565 C17.027027,0.340652908 16.6035126,0 16.0810811,0 C15.5586496,0 15.1351351,0.340652908 15.1351351,0.760869565 Z" fill-rule="nonzero"></path>
                            <path d="M7.56756757,0.760869565 L7.56756757,8.36956522 C7.56756757,8.78978187 7.99108199,9.13043478 8.51351351,9.13043478 C9.03594503,9.13043478 9.45945946,8.78978187 9.45945946,8.36956522 L9.45945946,0.760869565 C9.45945946,0.340652908 9.03594503,0 8.51351351,0 C7.99108199,0 7.56756757,0.340652908 7.56756757,0.760869565 Z" fill-rule="nonzero"></path>
                            <path d="M0.945945946,9.13043478 L16.0810811,9.13043478 C16.6035126,9.13043478 17.027027,8.78978187 17.027027,8.36956522 C17.027027,7.94934856 16.6035126,7.60869565 16.0810811,7.60869565 L0.945945946,7.60869565 C0.423514426,7.60869565 0,7.94934856 0,8.36956522 C0,8.78978187 0.423514426,9.13043478 0.945945946,9.13043478 Z" fill-rule="nonzero"></path>
                        </g>
                    </g>
                </g>
            </g>
        </g>
    </g>
</svg>