<?xml version="1.0" encoding="UTF-8"?>
<svg width="35px" height="36px" viewBox="0 0 35 36" version="1.1" xmlns="http://www.w3.org/2000/svg" xmlns:xlink="http://www.w3.org/1999/xlink">
    <!-- Generator: Sketch 43.2 (39069) - http://www.bohemiancoding.com/sketch -->
    <title>business-48px-outline_badge</title>
    <desc>Created with Sketch.</desc>
    <defs></defs>
    <g id="Schedule" stroke="none" stroke-width="1" fill="none" fill-rule="evenodd">
        <g id="Home-Desktop-HD" transform="translate(-480.000000, -1849.000000)" fill="#252526">
            <g id="Schedule" transform="translate(288.000000, 606.000000)">
                <g id="Event-Copy" transform="translate(0.000000, 1211.000000)">
                    <g id="business-32px-outline_connect" transform="translate(207.174216, 48.467109) rotate(-15.000000) translate(-207.174216, -48.467109) translate(189.674216, 31.967109)">
                        <g>
                            <path d="M21.1315804,15.3937372 L24.1649137,21.2865943 C24.4621782,21.8640899 25.1665825,22.0888033 25.7382449,21.7885055 C26.3099072,21.4882078 26.5323507,20.7766156 26.2350863,20.19912 L23.2017529,14.3062628 C22.9044885,13.7287672 22.2000842,13.5040539 21.6284218,13.8043516 C21.0567594,14.1046494 20.834316,14.8162415 21.1315804,15.3937372 Z" id="Shape" fill-rule="nonzero"></path>
                            <path d="M12.5656566,18.2584961 L15.59899,12.8370675 C15.9160383,12.270412 15.7183318,11.5514059 15.1574001,11.2311224 C14.5964685,10.9108388 13.884725,11.1105628 13.5676767,11.6772182 L10.5343434,17.0986468 C10.217295,17.6653023 10.4150015,18.3843084 10.9759332,18.7045919 C11.5368649,19.0248754 12.2486083,18.8251515 12.5656566,18.2584961 Z" id="Shape" fill-rule="nonzero"></path>
                            <path d="M18.6666667,24.75 L12.8333333,24.75 C12.1890011,24.75 11.6666667,25.2776644 11.6666667,25.9285714 C11.6666667,26.5794785 12.1890011,27.1071429 12.8333333,27.1071429 L18.6666667,27.1071429 C19.3109989,27.1071429 19.8333333,26.5794785 19.8333333,25.9285714 C19.8333333,25.2776644 19.3109989,24.75 18.6666667,24.75 Z" id="Shape" fill-rule="nonzero"></path>
                            <path d="M7,33 C3.13400675,33 0,29.8340136 0,25.9285714 C0,22.0231293 3.13400675,18.8571429 7,18.8571429 C10.8659932,18.8571429 14,22.0231293 14,25.9285714 C14,29.8340136 10.8659932,33 7,33 Z M7,30.6428571 C9.57732883,30.6428571 11.6666667,28.5321995 11.6666667,25.9285714 C11.6666667,23.3249433 9.57732883,21.2142857 7,21.2142857 C4.42267117,21.2142857 2.33333333,23.3249433 2.33333333,25.9285714 C2.33333333,28.5321995 4.42267117,30.6428571 7,30.6428571 Z" id="Oval" fill-rule="nonzero"></path>
                            <path d="M28,33 C24.1340068,33 21,29.8340136 21,25.9285714 C21,22.0231293 24.1340068,18.8571429 28,18.8571429 C31.8659932,18.8571429 35,22.0231293 35,25.9285714 C35,29.8340136 31.8659932,33 28,33 Z M28,30.6428571 C30.5773288,30.6428571 32.6666667,28.5321995 32.6666667,25.9285714 C32.6666667,23.3249433 30.5773288,21.2142857 28,21.2142857 C25.4226712,21.2142857 23.3333333,23.3249433 23.3333333,25.9285714 C23.3333333,28.5321995 25.4226712,30.6428571 28,30.6428571 Z" id="Oval" fill-rule="nonzero"></path>
                            <path d="M17.5,14.1428571 C13.6340068,14.1428571 10.5,10.9768707 10.5,7.07142857 C10.5,3.16598641 13.6340068,0 17.5,0 C21.3659932,0 24.5,3.16598641 24.5,7.07142857 C24.5,10.9768707 21.3659932,14.1428571 17.5,14.1428571 Z M17.5,11.7857143 C20.0773288,11.7857143 22.1666667,9.67505668 22.1666667,7.07142857 C22.1666667,4.46780047 20.0773288,2.35714286 17.5,2.35714286 C14.9226712,2.35714286 12.8333333,4.46780047 12.8333333,7.07142857 C12.8333333,9.67505668 14.9226712,11.7857143 17.5,11.7857143 Z" id="Oval" fill-rule="nonzero"></path>
                        </g>
                    </g>
                </g>
            </g>
        </g>
    </g>
</svg>