<?xml version="1.0" encoding="UTF-8"?>
<svg width="24px" height="24px" viewBox="0 0 24 24" version="1.1" xmlns="http://www.w3.org/2000/svg" xmlns:xlink="http://www.w3.org/1999/xlink">
    <!-- Generator: Sketch 43.1 (39012) - http://www.bohemiancoding.com/sketch -->
    <title>social-24px-glyph-3_square-facebook</title>
    <desc>Created with Sketch.</desc>
    <defs></defs>
    <g id="Home" stroke="none" stroke-width="1" fill="none" fill-rule="evenodd">
        <g id="Home-Desktop-HD" transform="translate(-18.000000, -798.000000)" fill-rule="nonzero" fill="#FFFFFF">
            <g id="leftheader">
                <g id="social" transform="translate(18.000000, 798.000000)">
                    <g id="social-24px-glyph-3_square-facebook">
                        <path d="M21,0 L3,0 C1.3,0 0,1.3 0,3 L0,21 C0,22.7 1.3,24 3,24 L21,24 C22.7,24 24,22.7 24,21 L24,3 C24,1.3 22.7,0 21,0 Z M15.1,8 L14,8 C13.1,8 12.9,8.4 12.9,9 L12.9,10.4 L15,10.4 L14.7,12.5 L12.9,12.5 L12.9,18 L10.7,18 L10.7,12.5 L8.9,12.5 L8.9,10.4 L10.7,10.4 L10.7,8.8 C10.7,7 11.8,6 13.5,6 C14.3,6 15,6.1 15.1,6.1 L15.1,8 Z" id="Shape"></path>
                    </g>
                </g>
            </g>
        </g>
    </g>
</svg>