<?xml version="1.0" encoding="UTF-8"?>
<svg width="25px" height="24px" viewBox="0 0 25 24" version="1.1" xmlns="http://www.w3.org/2000/svg" xmlns:xlink="http://www.w3.org/1999/xlink">
    <!-- Generator: Sketch 43.1 (39012) - http://www.bohemiancoding.com/sketch -->
    <title>social-24px-glyph-3_square-google-plus</title>
    <desc>Created with Sketch.</desc>
    <defs></defs>
    <g id="Home" stroke="none" stroke-width="1" fill="none" fill-rule="evenodd">
        <g id="Home-Desktop-HD" transform="translate(-176.000000, -798.000000)" fill-rule="nonzero" fill="#FFFFFF">
            <g id="leftheader">
                <g id="social" transform="translate(18.000000, 798.000000)">
                    <g id="social-24px-glyph-3_square-google-plus" transform="translate(158.333333, 0.000000)">
                        <path d="M21,0 L3,0 C1.3,0 0,1.3 0,3 L0,21 C0,22.7 1.3,24 3,24 L21,24 C22.7,24 24,22.7 24,21 L24,3 C24,1.3 22.7,0 21,0 Z M9.7,17.5 C6.6,17.5 4,15 4,11.8 C4,8.7 6.5,6.1 9.7,6.1 C11.2,6.1 12.5,6.7 13.5,7.6 L12,9.1 C11.6,8.7 10.8,8.2 9.7,8.2 C7.8,8.2 6.2,9.8 6.2,11.8 C6.2,13.8 7.8,15.4 9.7,15.4 C11.9,15.4 12.7,13.9 12.9,13 L10,13 L10,11 L15,11 C15.6,14.2 13.6,17.5 9.7,17.5 Z M20,12 L19,12 L19,13 L18,13 L18,12 L17,12 L17,11 L18,11 L18,10 L19,10 L19,11 L20,11 L20,12 Z" id="Shape"></path>
                    </g>
                </g>
            </g>
        </g>
    </g>
</svg>