<?xml version="1.0" encoding="UTF-8"?>
<svg width="24px" height="24px" viewBox="0 0 24 24" version="1.1" xmlns="http://www.w3.org/2000/svg" xmlns:xlink="http://www.w3.org/1999/xlink">
    <!-- Generator: Sketch 43.1 (39012) - http://www.bohemiancoding.com/sketch -->
    <title>social-24px-glyph-3_square-twitter</title>
    <desc>Created with Sketch.</desc>
    <defs></defs>
    <g id="Home" stroke="none" stroke-width="1" fill="none" fill-rule="evenodd">
        <g id="Home-Desktop-HD" transform="translate(-113.000000, -798.000000)" fill-rule="nonzero" fill="#FFFFFF">
            <g id="leftheader">
                <g id="social" transform="translate(18.000000, 798.000000)">
                    <g id="social-24px-glyph-3_square-twitter" transform="translate(95.000000, 0.000000)">
                        <path d="M21,0 L3,0 C1.3,0 0,1.3 0,3 L0,21 C0,22.7 1.3,24 3,24 L21,24 C22.7,24 24,22.7 24,21 L24,3 C24,1.3 22.7,0 21,0 Z M16.8,9.6 L16.8,9.9 C16.8,13.2 14.3,16.9 9.8,16.9 C8.4,16.9 7.1,16.5 6,15.8 L6.6,15.8 C7.8,15.8 8.8,15.4 9.7,14.7 C8.6,14.7 7.7,14 7.4,13 L7.9,13 C8.1,13 8.3,13 8.5,12.9 C7.4,12.7 6.5,11.7 6.5,10.5 L6.5,10.5 C6.8,10.7 7.2,10.8 7.6,10.8 C6.9,10.4 6.5,9.6 6.5,8.8 C6.5,8.3 6.6,7.9 6.8,7.6 C8,9.1 9.8,10.1 11.9,10.2 C11.9,10 11.8,9.8 11.8,9.6 C11.8,8.2 12.9,7.1 14.3,7.1 C15,7.1 15.6,7.4 16.1,7.9 C16.7,7.8 17.2,7.6 17.7,7.3 C17.5,7.9 17.1,8.4 16.6,8.7 C17.1,8.6 17.6,8.5 18,8.3 C17.7,8.8 17.3,9.2 16.8,9.6 Z" id="Shape"></path>
                    </g>
                </g>
            </g>
        </g>
    </g>
</svg>