<?xml version="1.0" encoding="UTF-8"?>
<svg width="24px" height="24px" viewBox="0 0 24 24" version="1.1" xmlns="http://www.w3.org/2000/svg" xmlns:xlink="http://www.w3.org/1999/xlink">
    <!-- Generator: Sketch 43.1 (39012) - http://www.bohemiancoding.com/sketch -->
    <title>social-24px-glyph-3_square-spotify</title>
    <desc>Created with Sketch.</desc>
    <defs></defs>
    <g id="Home" stroke="none" stroke-width="1" fill="none" fill-rule="evenodd">
        <g id="Home-Desktop-HD" transform="translate(-208.000000, -798.000000)" fill-rule="nonzero" fill="#FFFFFF">
            <g id="leftheader">
                <g id="social" transform="translate(18.000000, 798.000000)">
                    <g id="social-24px-glyph-3_square-spotify" transform="translate(190.000000, 0.000000)">
                        <g id="Group">
                            <path d="M15.4,12.4 C13.5,11.3 10.8,10.9 8.6,11.6 C8.4,11.7 8.2,11.9 8.3,12.2 C8.4,12.5 8.6,12.6 8.9,12.5 C10.8,11.9 13.2,12.2 14.9,13.2 C15.1,13.4 15.4,13.3 15.5,13 C15.6,12.8 15.5,12.5 15.4,12.4 Z" id="Shape"></path>
                            <path d="M14.6,14.2 C13,13.2 11.1,13 8.8,13.5 C8.6,13.6 8.5,13.7 8.5,14 C8.6,14.2 8.7,14.3 8.9,14.3 C11,13.8 12.8,14 14.2,14.9 C14.4,15 14.6,15 14.7,14.8 C14.8,14.5 14.8,14.2 14.6,14.2 Z" id="Shape"></path>
                            <path d="M8.2,9.6 C8,9.7 7.8,10 7.9,10.3 C8,10.6 8.3,10.8 8.6,10.7 C10.4,10.1 13.6,10.3 15.6,11.4 C15.9,11.6 16.2,11.5 16.4,11.3 C16.5,11 16.5,10.7 16.2,10.5 C13.9,9.1 10.4,9 8.2,9.6 Z" id="Shape"></path>
                            <path d="M21,0 L3,0 C1.3,0 0,1.3 0,3 L0,21 C0,22.7 1.3,24 3,24 L21,24 C22.7,24 24,22.7 24,21 L24,3 C24,1.3 22.7,0 21,0 Z M12,18 C8.7,18 6,15.3 6,12 C6,8.7 8.7,6 12,6 C15.3,6 18,8.7 18,12 C18,15.3 15.3,18 12,18 Z" id="Shape"></path>
                        </g>
                    </g>
                </g>
            </g>
        </g>
    </g>
</svg>