<?xml version="1.0" encoding="UTF-8"?>
<svg width="25px" height="24px" viewBox="0 0 25 24" version="1.1" xmlns="http://www.w3.org/2000/svg" xmlns:xlink="http://www.w3.org/1999/xlink">
    <!-- Generator: Sketch 43.1 (39012) - http://www.bohemiancoding.com/sketch -->
    <title>social-24px-glyph-3_square-instagram</title>
    <desc>Created with Sketch.</desc>
    <defs></defs>
    <g id="Home" stroke="none" stroke-width="1" fill="none" fill-rule="evenodd">
        <g id="Home-Desktop-HD" transform="translate(-144.000000, -798.000000)" fill-rule="nonzero" fill="#FFFFFF">
            <g id="leftheader">
                <g id="social" transform="translate(18.000000, 798.000000)">
                    <g id="social-24px-glyph-3_square-instagram" transform="translate(126.666667, 0.000000)">
                        <g id="Group">
                            <circle id="Oval" cx="12" cy="12" r="2"></circle>
                            <path d="M16.229,7.771 C15.741,7.283 15.108,7.147 14.425,7.116 C13.792,7.087 13.602,7.081 12,7.081 C10.398,7.081 10.208,7.087 9.576,7.116 C8.893,7.147 8.259,7.284 7.771,7.771 C7.283,8.258 7.147,8.893 7.116,9.576 C7.087,10.208 7.081,10.398 7.081,12 C7.081,13.602 7.087,13.792 7.116,14.424 C7.147,15.107 7.284,15.74 7.771,16.228 C8.258,16.716 8.892,16.852 9.575,16.883 C10.208,16.912 10.397,16.918 11.999,16.918 C13.601,16.918 13.791,16.912 14.423,16.883 C15.106,16.852 15.739,16.715 16.227,16.228 C16.715,15.741 16.851,15.107 16.882,14.424 C16.911,13.791 16.917,13.602 16.917,12 C16.917,10.398 16.911,10.208 16.882,9.575 C16.853,8.893 16.716,8.259 16.229,7.771 Z M12,15.081 C10.298,15.081 8.919,13.702 8.919,12 C8.919,10.298 10.298,8.919 12,8.919 C13.702,8.919 15.081,10.298 15.081,12 C15.081,13.702 13.702,15.081 12,15.081 Z M15.203,9.517 C14.805,9.517 14.483,9.195 14.483,8.797 C14.483,8.399 14.805,8.077 15.203,8.077 C15.601,8.077 15.923,8.399 15.923,8.797 C15.923,9.195 15.6,9.517 15.203,9.517 Z" id="Shape"></path>
                            <path d="M21,0 L3,0 C1.343,0 0,1.343 0,3 L0,21 C0,22.657 1.343,24 3,24 L21,24 C22.657,24 24,22.657 24,21 L24,3 C24,1.343 22.657,0 21,0 Z M17.964,14.474 C17.919,15.449 17.68,16.306 16.993,16.993 C16.305,17.681 15.449,17.919 14.474,17.964 C13.834,17.993 13.63,18 12,18 C10.37,18 10.166,17.993 9.526,17.964 C8.551,17.92 7.694,17.68 7.007,16.993 C6.319,16.305 6.081,15.449 6.036,14.474 C6.007,13.834 6,13.63 6,12 C6,10.37 6.007,10.166 6.036,9.526 C6.081,8.551 6.32,7.694 7.007,7.007 C7.695,6.319 8.551,6.081 9.526,6.036 C10.166,6.007 10.37,6 12,6 C13.63,6 13.834,6.007 14.474,6.036 C15.449,6.08 16.306,6.32 16.993,7.007 C17.681,7.695 17.919,8.551 17.964,9.526 C17.993,10.166 18,10.37 18,12 C18,13.63 17.993,13.834 17.964,14.474 Z" id="Shape"></path>
                        </g>
                    </g>
                </g>
            </g>
        </g>
    </g>
</svg>