<?xml version="1.0" encoding="UTF-8"?>
<svg width="25px" height="24px" viewBox="0 0 25 24" version="1.1" xmlns="http://www.w3.org/2000/svg" xmlns:xlink="http://www.w3.org/1999/xlink">
    <!-- Generator: Sketch 43.1 (39012) - http://www.bohemiancoding.com/sketch -->
    <title>social-24px-glyph-3_square-youtube</title>
    <desc>Created with Sketch.</desc>
    <defs></defs>
    <g id="Home" stroke="none" stroke-width="1" fill="none" fill-rule="evenodd">
        <g id="Home-Desktop-HD" transform="translate(-81.000000, -798.000000)" fill-rule="nonzero" fill="#FFFFFF">
            <g id="leftheader">
                <g id="social" transform="translate(18.000000, 798.000000)">
                    <g id="social-24px-glyph-3_square-youtube" transform="translate(63.333333, 0.000000)">
                        <g id="Group">
                            <path d="M21,0 L3,0 C1.3,0 0,1.3 0,3 L0,21 C0,22.7 1.3,24 3,24 L21,24 C22.7,24 24,22.7 24,21 L24,3 C24,1.3 22.7,0 21,0 Z M18,12.5 C18,13.5 17.9,14.4 17.9,14.4 C17.9,14.4 17.8,15.2 17.4,15.6 C16.9,16.1 16.4,16.1 16.2,16.1 C14.5,16.2 12,16.2 12,16.2 C12,16.2 8.9,16.2 7.9,16.1 C7.6,16 7,16.1 6.6,15.6 C6.2,15.2 6.1,14.4 6.1,14.4 C6.1,14.4 6,13.4 6,12.5 L6,11.6 C6,10.6 6.1,9.7 6.1,9.7 C6.1,9.7 6.2,8.9 6.6,8.5 C7.1,8 7.6,8 7.8,8 C9.5,7.8 12,7.8 12,7.8 L12,7.8 C12,7.8 14.5,7.8 16.2,7.9 C16.4,7.9 16.9,7.9 17.4,8.4 C17.8,8.8 17.9,9.6 17.9,9.6 C17.9,9.6 18,10.6 18,11.5 L18,12.5 Z" id="Shape"></path>
                            <polygon id="Shape" points="10.8 13.6 14 11.9 10.8 10.2"></polygon>
                        </g>
                    </g>
                </g>
            </g>
        </g>
    </g>
</svg>