<?xml version="1.0" encoding="UTF-8"?>
<svg width="25px" height="24px" viewBox="0 0 25 24" version="1.1" xmlns="http://www.w3.org/2000/svg" xmlns:xlink="http://www.w3.org/1999/xlink">
    <!-- Generator: Sketch 43.1 (39012) - http://www.bohemiancoding.com/sketch -->
    <title>social-24px-glyph-3_square-linkedin</title>
    <desc>Created with Sketch.</desc>
    <defs></defs>
    <g id="Home" stroke="none" stroke-width="1" fill="none" fill-rule="evenodd">
        <g id="Home-Desktop-HD" transform="translate(-49.000000, -798.000000)" fill-rule="nonzero" fill="#FFFFFF">
            <g id="leftheader">
                <g id="social" transform="translate(18.000000, 798.000000)">
                    <g id="social-24px-glyph-3_square-linkedin" transform="translate(31.666667, 0.000000)">
                        <path d="M21,0 L3,0 C1.3,0 0,1.3 0,3 L0,21 C0,22.7 1.3,24 3,24 L21,24 C22.7,24 24,22.7 24,21 L24,3 C24,1.3 22.7,0 21,0 Z M8.7,18 L6.2,18 L6.2,10 L8.7,10 L8.7,18 Z M7.4,8.9 C6.6,8.9 6,8.2 6,7.5 C6,6.7 6.6,6 7.4,6 C8.2,6 8.8,6.6 8.8,7.4 C8.9,8.2 8.2,8.9 7.4,8.9 Z M18,18 L15.5,18 L15.5,14.1 C15.5,13.2 15.5,12 14.2,12 C12.9,12 12.7,13 12.7,14.1 L12.7,18.1 L10.2,18.1 L10.2,10.1 L12.6,10.1 L12.6,11.2 L12.6,11.2 C12.9,10.6 13.7,9.9 15,9.9 C17.5,9.9 18,11.6 18,13.7 L18,18 Z" id="Shape"></path>
                    </g>
                </g>
            </g>
        </g>
    </g>
</svg>