<?xml version="1.0" encoding="UTF-8"?>
<svg width="23px" height="19px" viewBox="0 0 23 19" version="1.1" xmlns="http://www.w3.org/2000/svg" xmlns:xlink="http://www.w3.org/1999/xlink">
    <!-- Generator: Sketch 43.1 (39012) - http://www.bohemiancoding.com/sketch -->
    <title>Shape Copy</title>
    <desc>Created with Sketch.</desc>
    <defs></defs>
    <g id="Home" stroke="none" stroke-width="1" fill="none" fill-rule="evenodd">
        <g id="Home-Desktop-HD" transform="translate(-1181.000000, -1751.000000)" fill-rule="nonzero" fill="#FFFFFF">
            <g id="twitter" transform="translate(249.000000, 1702.000000)">
                <g id="FOLLOW-BUTTON" transform="translate(916.000000, 33.000000)">
                    <path d="M39.0515464,18.2091065 C38.1871134,18.593299 37.3226804,18.8814433 36.3621993,18.9774914 C37.3226804,18.4012027 38.0910653,17.4407216 38.4752577,16.3841924 C37.5147766,16.9604811 36.5542955,17.3446735 35.4977663,17.5367698 C34.6333333,16.5762887 33.3847079,16 32.0400344,16 C29.4467354,16 27.333677,18.1130584 27.333677,20.7063574 C27.333677,21.0905498 27.333677,21.4747423 27.4297251,21.7628866 C23.3957045,21.5707904 19.9379725,19.6498282 17.6328179,16.7683849 C17.1525773,17.5367698 16.9604811,18.3051546 16.9604811,19.1695876 C16.9604811,20.8024055 17.8249141,22.2431271 19.0735395,23.1075601 C18.3051546,23.1075601 17.5367698,22.9154639 16.9604811,22.5312715 C16.9604811,22.5312715 16.9604811,22.5312715 16.9604811,22.6273196 C16.9604811,24.9324742 18.593299,26.8534364 20.7063574,27.2376289 C20.3221649,27.333677 19.9379725,27.4297251 19.457732,27.4297251 C19.1695876,27.4297251 18.8814433,27.4297251 18.593299,27.333677 C19.1695876,29.2546392 20.8984536,30.5993127 23.011512,30.5993127 C21.3786942,31.8479381 19.3616838,32.616323 17.1525773,32.616323 C16.7683849,32.616323 16.3841924,32.616323 16,32.5202749 C18.1130584,33.8649485 20.6103093,34.6333333 23.2036082,34.6333333 C31.9439863,34.6333333 36.6503436,27.4297251 36.6503436,21.1865979 L36.6503436,20.6103093 C37.6108247,19.9379725 38.3792096,19.0735395 39.0515464,18.2091065 Z" id="Shape-Copy"></path>
                </g>
            </g>
        </g>
    </g>
</svg>