<svg id="2ac87e58-fa3e-433f-990b-cb890bf3d654" data-name="1962cbb1-891a-472e-ba71-30612a259e00" xmlns="http://www.w3.org/2000/svg" width="170.9" height="99.1" viewBox="0 0 170.9 99.1"><title>hew-colored</title><path d="M125,11a16.41,16.41,0,0,0-6.2-4.1C110.4,3,96.4,0,87.7,0H86.1l-.2.1-.1.2V.5c.1.1.2.3.3.4a109.69,109.69,0,0,1,8.2,8.5l.4.6.1.1h.8c2.5-.1,4.9-.2,7.3-.2,5.2,0,10.3.3,15.4.8,2,.2,3.6.4,4.7.6l1.7.3.6.1Z" style="fill:#4375a5;opacity:0.10000000298023224;isolation:isolate"/><path d="M88.6,10.2c-.1-.1-.2-.3-.3-.4C87.6,9,85.6,7,83.5,5.1c-1-1-2-1.9-2.8-2.6-.6-.5-1.2-1-1.9-1.5L78.7.9h0L78.5.8a1.42,1.42,0,0,0-.6-.2h-.1A76,76,0,0,0,52.5,7c-.4.2-.5.2-.7.4v.3a.37.37,0,0,0,.1.3c.2.6,1,3.2,1.8,5.8l1.1,3.5.4,1.2.1.4.1.2.1.2.2.2a.37.37,0,0,0,.3.1.76.76,0,0,0,.5-.2l.7-.3A100.09,100.09,0,0,1,88.1,11h.4l.2-.1h0c.1-.1.1-.1.1-.2A.59.59,0,0,0,88.6,10.2Zm-9.9-9Z" style="fill:#00528c;opacity:0.10000000298023224;isolation:isolate"/><path d="M51.3,19.8l-1.5-4.6c-.4-1.3-.8-2.6-1.2-3.6l-.7-2.1-.1-.2L47.5,9h-.1a.6.6,0,0,0-.4-.1,1.42,1.42,0,0,0-.6.2l-.8.4c-3.6,2-16,9.1-24,18.6l-.1.2c-.1.1-.1.2-.2.4v.6a1.76,1.76,0,0,0,.1.6c.4,2.1,2.1,9.9,2.2,10.3a3.18,3.18,0,0,0,.3.9.75.75,0,0,0,.7.5h0a.86.86,0,0,0,.6-.3l.3-.3a112.07,112.07,0,0,1,17-13.7c2-1.3,4-2.5,5.9-3.7l1.8-1,.3-.2.5-.3.1-.1.2-.1.2-.2.2-.5Z" style="fill:#00528c;opacity:0.10000000298023224;isolation:isolate"/><path d="M20.5,44.8v-.3c-.1-.5-2-8.8-2.2-9.8a.37.37,0,0,0-.1-.3l-.1-.2a.31.31,0,0,0-.2-.1h-.2c-.1.1-.3.2-.3.3C5.4,50.9,3.8,65.7,3.7,66.2v1l.1.2c0,.1.1.1.2.1h.1a1,1,0,0,0,.7-.4,99.36,99.36,0,0,1,9.2-14,96.9,96.9,0,0,1,6.3-7.7l.1-.1h0v-.1l.1-.1Zm-.2.2Zm-.1.4Zm.1-.2Z" style="fill:#83a4c5;opacity:0.10000000298023224;isolation:isolate"/><path d="M143.4,38.1a83.31,83.31,0,0,0-8.3-15.6,34.17,34.17,0,0,0-4.2-5.2,1.38,1.38,0,0,0-.4-.3,5.78,5.78,0,0,0-1.4-.5c-4.6-1.1-18-2.1-26-2.1-1.5,0-2.8,0-3.8.1h-.5l-.2.1a.22.22,0,0,0-.2.2V15a.37.37,0,0,0,.1.3l.2.4a119.48,119.48,0,0,1,6.2,12.4c.8,1.9,1.5,3.6,2.1,4.8l.6,1.5a1.54,1.54,0,0,0,.3.7.35.35,0,0,0,.1.2l.1.1.1.1h.6c.4,0,2.4-.2,5.4-.2a96.08,96.08,0,0,1,27.7,3.9,4.65,4.65,0,0,1,.9.3.6.6,0,0,0,.4.1.37.37,0,0,0,.3-.1c.1-.1.1-.2.1-.4A1.3,1.3,0,0,0,143.4,38.1Z" style="fill:#4375a5;opacity:0.10000000298023224;isolation:isolate"/><path d="M164.2,51.1a15.83,15.83,0,0,0-.9-3.1c-2.9-5.5-8.8-20.4-24.8-29.9l-.6-.3-.2-.1h-.2l-.2.1-.1.2a.37.37,0,0,0,.1.3c.2.3.6.9,1.4,1.9A81.7,81.7,0,0,1,149,40.1a16.71,16.71,0,0,0,.7,1.9.22.22,0,0,0,.2.2,4.78,4.78,0,0,0,1.1.6c3.9,2.3,7.7,4.9,11.4,7.6l1,.8.3.2a.37.37,0,0,0,.3.1l.2-.1v-.3Z" style="fill:#83a4c5;opacity:0.10000000298023224;isolation:isolate"/><path d="M102.9,35c-4.6-12.2-9.3-18.6-9.7-19.1a2.34,2.34,0,0,0-.7-.7h0c-.1,0-.3-.1-.4-.1h-.3c-10.3,1.4-21.5,3.1-33.1,8.4l-.7.3-.2.2-.1.2v.1c0,.1.1.3.1.4s.1.3.2.4l.4,1c1.6,4,7.4,18.7,7.6,19.2a1.42,1.42,0,0,1,.2.6c.1.1.1.2.3.3h.2a1.42,1.42,0,0,0,.6-.2,100.34,100.34,0,0,1,9.6-3.7,147.17,147.17,0,0,1,24.6-6,4.71,4.71,0,0,0,1.6-.4l.2-.2v-.2A1,1,0,0,1,102.9,35Z" style="fill:#00528c;opacity:0.10000000298023224;isolation:isolate"/><path d="M61.9,47.2l-.1-.2s-.2-.4-1.4-3.3c-1.8-4.3-4.8-11.7-6.1-15L53.7,27a1.83,1.83,0,0,0-.7-1h-.3a1.85,1.85,0,0,0-.7.2l-.5.2-.3.2A111.81,111.81,0,0,0,33.7,38.8c-1.8,1.5-3.6,3.2-5.2,4.8L27,45.1l-.4.4-.1.1c-.2.2-.4.3-.6.5a1.08,1.08,0,0,0-.3.7v.1h0c0,.2.1.3.1.5l.1.3c.5,1.4,4.2,12.3,7.4,19.4.1.2.2.3.3.5l.2.3a.55.55,0,0,0,.5.3h.1a.91.91,0,0,0,.7-.3l.2-.2.2-.2c.1-.1,12.8-11.6,25.6-18a3.51,3.51,0,0,0,.8-.5l.2-.3.1-.2a1.27,1.27,0,0,0,.1-.6C62.1,47.7,62,47.4,61.9,47.2Z" style="fill:#00528c;opacity:0.10000000298023224;isolation:isolate"/><path d="M30.3,71.3l-.3-.6a174.8,174.8,0,0,1-7.3-18.4,3.33,3.33,0,0,0-.3-.6l-.1-.2-.1-.1-.1-.1-.1.2.1-.2h-.2l-.2.1a4.62,4.62,0,0,0-.7.7c-3.5,4.2-6.8,8.5-9.9,13-1.5,2.2-2.9,4.2-3.8,5.7-.5.7-.9,1.4-1.2,1.8a2.06,2.06,0,0,0-.5.9c0,.2-.1.2-.1.3s-.1.2-.1.3V74c0,.2.1.4.1.7s.2.9.4,2A82.39,82.39,0,0,0,13,95.1l.3.6.1.2c.1.1.2.2.3.2s.2,0,.2-.1l.1-.2c.1-.2.2-.5.3-.7.4-.7,8-15.1,15.4-22.5a1,1,0,0,0,.4-.5.6.6,0,0,0,.1-.4h0C30.5,71.6,30.4,71.4,30.3,71.3Z" style="fill:#83a4c5;opacity:0.10000000298023224;isolation:isolate"/><path d="M9.9,98.5c-.3-.8-1.5-2.7-2.8-5.5A53.73,53.73,0,0,1,3.2,82.2c-.2-.9-1.1-3.8-1.3-4.5l-.1-.6-.3.5A8.45,8.45,0,0,0,1,79.3H1S0,88,0,93.8c0,1.2.1,2.5.2,3.7a4.23,4.23,0,0,0,.4,1.2.55.55,0,0,0,.5.3h0s2.8.1,5.1.1A17,17,0,0,0,8.6,99h.8a.37.37,0,0,0,.3-.1l.1-.1c.1-.1.1-.1.1-.2Z" style="fill:#83a4c5;opacity:0.10000000298023224;isolation:isolate"/><path d="M46.2,97.7q-.15-.3-.3-.3h0a10.63,10.63,0,0,1-.9-1.1c-1.5-2.1-4.3-6.7-6.8-10.9-1.2-2.1-2.4-4-3.2-5.5l-1-1.8-.5-.7a2.22,2.22,0,0,0-.4-.7v-.1h-.3l-.2.1c-.2.2-.4.3-.5.5-2.8,2.8-6,7.6-8.5,11.8s-4.5,7.8-4.7,8.3a3.51,3.51,0,0,1-.5.8l-.2.3a.37.37,0,0,0-.1.3c0,.1.1.2.1.3l.2.1H46.1l.1-.2a1.27,1.27,0,0,0,.1-.6C46.3,98,46.3,97.8,46.2,97.7Z" style="fill:#83a4c5;opacity:0.10000000298023224;isolation:isolate"/><path d="M77.1,82.1c-.1-.3-.3-.7-.4-1l-.6-1.3c-1.2-2.7-4.2-9.2-6.8-15L65.8,57l-1.1-2.5-.3-.7-.1-.2v-.1a1,1,0,0,0-.5-.4h-.2a1.42,1.42,0,0,0-.6.2A110.13,110.13,0,0,0,45.1,65c-2.3,1.9-4.2,3.5-5.6,4.8s-2.2,2.1-2.4,2.2-.2.2-.3.3h-.3a.31.31,0,0,0-.1.2h0a.76.76,0,0,0,.2.5.35.35,0,0,0,.1.2c.1.2,7.8,14.3,15.1,24,.3.4.5.7.5.7l.1.1h1.5l.1-.1.9-.9c.3-.3,5.6-5.3,21.6-14.2a1.38,1.38,0,0,0,.4-.3l.1-.1h0l.1-.1Z" style="fill:#00528c;opacity:0.10000000298023224;isolation:isolate"/><path d="M111.8,69.8c-2.3-10.6-5.5-23.1-6.8-27.9a3.55,3.55,0,0,0-.4-.9c-.1-.1-.2-.2-.3-.2h-.4c-.3,0-.5.1-.8.1a136.94,136.94,0,0,0-33.8,9.4l-.6.2-.2.1a.22.22,0,0,0-.2.2V51c0,.2.1.3.1.5l.3.6c.3.7,3.4,7.4,6.4,13.9l4.1,9,1.4,3,.4.9.2.4c.2.3.3.6.5.9a.5.5,0,0,0,.6,0l.4-.2a121,121,0,0,1,28.2-8.6,1.85,1.85,0,0,0,.7-.2l.2-.2.1-.2v-.2C112,70.5,111.9,70.2,111.8,69.8Z" style="fill:#00528c;opacity:0.10000000298023224;isolation:isolate"/><path d="M145.9,46.7a1.42,1.42,0,0,0-.2-.6l-.1-.1-.1-.1a2.55,2.55,0,0,0-1.2-.8c-10.9-4.5-25.2-4.9-30.7-4.9h-2.3a2.77,2.77,0,0,0-.9.1.82.82,0,0,0-.6.4h0v.2a1.88,1.88,0,0,0,.2.8c1.9,5.5,6.4,26.9,6.6,27.5a1.93,1.93,0,0,0,.3,1v.1h.1c.1.1.2.1.4.1.4,0,.8-.1,1.1-.1s1.1-.1,2.6-.2,3.7-.2,6.2-.2a75,75,0,0,1,18.8,2.3,6.75,6.75,0,0,0,1.4.2h.3c.1,0,.1-.1.2-.2a1.88,1.88,0,0,0,.2-.8v-.7c0-.4.1-1.4.1-2.9A133.61,133.61,0,0,0,145.9,46.7Z" style="fill:#4375a5;opacity:0.10000000298023224;isolation:isolate"/><path d="M170.9,85.1a125.32,125.32,0,0,0-2.4-22.9,1.45,1.45,0,0,0-.2-.7c-.1-.2-.2-.3-.3-.5a2.65,2.65,0,0,0-.5-.6c-.1-.1-.2-.2-.2-.3l-.1-.1c-.2-.2-.7-.7-1.6-1.5a96.18,96.18,0,0,0-12.7-9.3c-.2-.1-.4-.3-.6-.4a1.42,1.42,0,0,0-.6-.2.37.37,0,0,0-.3.1l-.1.1v.1s.1.8.2,1.7A127.53,127.53,0,0,1,152.9,68a41,41,0,0,1-.2,5v.5a1.45,1.45,0,0,0,.2.7,1,1,0,0,0,.5.4l.6.2a30.15,30.15,0,0,1,5.1,2.5,46.56,46.56,0,0,1,10.1,8.2c.2.3.4.5.6.8.1.1.1.2.2.3a.52.52,0,0,0,.4.2c.1,0,.2,0,.2-.1s.2-.2.2-.3a3.4,3.4,0,0,0,.1-1Z" style="fill:#83a4c5;opacity:0.10000000298023224;isolation:isolate"/><path d="M170.1,95h0c-.1-.2-.1-.4-.2-.5a1.38,1.38,0,0,0-.3-.4,42.25,42.25,0,0,0-15.4-14,3.36,3.36,0,0,0-1.4-.5.37.37,0,0,0-.3.1l-.1.1v.1s-.1.9-.1,1.2c-.3,3.4-.9,7.2-1.5,10.3s-1.1,5.3-1.2,5.6l-.5,1.5-.1.3,20.3-.3v-.2l.6-2.5.1-.5v-.1l.1-.2Z" style="fill:#83a4c5;opacity:0.10000000298023224;isolation:isolate"/><path d="M147.6,78h0l-.1-.3a.52.52,0,0,0-.4-.2l-.7-.3a27.25,27.25,0,0,0-5.6-1.5,65.64,65.64,0,0,0-13.2-1.3,69.67,69.67,0,0,0-7.9.4l-1.6.3-.2.1-.1.2a3.55,3.55,0,0,0,.2,1c.7,4.1,1.3,9.2,1.7,13.3.2,2.1.4,3.9.5,5.2a10.36,10.36,0,0,1,.1,1.6,3.55,3.55,0,0,0,.1.7,3.44,3.44,0,0,1,.1.9v.5l23.5.2v-.2a4.87,4.87,0,0,0,.4-1.1c.3-1.1,2.2-6.7,3.2-18.3v-.7A.69.69,0,0,0,147.6,78Z" style="fill:#4375a5;opacity:0.10000000298023224;isolation:isolate"/><path d="M115.7,97.1c-.1-1.2-.7-6.2-1.3-10.8l-.8-6.2a19.09,19.09,0,0,1-.2-2c0-.2-.1-.4-.1-.6v-.2h0a4.25,4.25,0,0,0-.2-1.1v-.1H113c-.2,0-.3-.1-.5-.1s-.7.1-1,.1a137.38,137.38,0,0,0-25.9,7.6,4.05,4.05,0,0,0-.9.5,1.34,1.34,0,0,0-.7.6V85c.2.5.4,1,.6,1.4l5.6,11.1a1.45,1.45,0,0,1,.2.7v.6l24.9-.1.1-.1.2-.4a1.88,1.88,0,0,0,.2-.8C115.7,97.4,115.7,97.3,115.7,97.1Z" style="fill:#00528c;opacity:0.10000000298023224;isolation:isolate"/><path d="M84.7,97.7c-.2-.4-1.3-2.6-2.3-4.8s-2.1-4.3-2.2-4.5-.3-.6-.4-.9a.66.66,0,0,0-.5-.4h-.1a.6.6,0,0,0-.4.1l-1.2.6c-4.9,2.9-8.5,5.2-11,6.8-1.2.8-2.2,1.4-2.9,1.9l-1.2.9a.91.91,0,0,0-.4.8h0v.2h.2s13.3.2,19.3.2h2.9a.1.1,0,0,0,.1-.1l.1-.1a.37.37,0,0,0,.1-.3C84.8,97.9,84.7,97.8,84.7,97.7Z" style="fill:#00528c;opacity:0.10000000298023224;isolation:isolate"/></svg>