<svg style="position: absolute; width: 0; height: 0; overflow: hidden;" version="1.1" xmlns="http://www.w3.org/2000/svg">
<defs>
<symbol id="icon-cloud-download" viewBox="0 0 44 32">
<title>Download</title>
<path d="M19.25 14.246v14h4v-14z"></path>
<path d="M16 20.168l-2.828 2.828 8.078 8.078 8.078-8.078-2.828-2.828-5.25 5.25z"></path>
<path d="M20.375 1.746c-7.609 0-13.934 5.638-14.963 13.019-3.225 1.399-5.412 4.59-5.412 8.231 0 4.971 4.030 9.004 9 9.004h5.5v-4h-5.5c-2.76 0-5-2.241-5-5.003 0-2.291 1.567-4.264 3.773-4.823l1.435-0.364 0.071-1.478c0.286-5.916 5.16-10.585 11.096-10.585 5.863 0 10.702 4.559 11.086 10.386l0.124 1.882 1.886-0.013c2.784-0.020 5.029 2.228 5.029 4.995 0 2.762-2.24 5.003-5 5.003h-5.5v4h5.5c4.97 0 9-4.033 9-9.003 0-4.366-3.112-8.019-7.256-8.828-1.278-7.093-7.474-12.422-14.869-12.422z"></path>
</symbol>
<symbol id="icon-facebook" viewBox="0 0 32 32">
<title>Facebookk</title>
<path d="M28 0h-24c-2.267 0-4 1.733-4 4v24c0 2.267 1.733 4 4 4h24c2.267 0 4-1.733 4-4v-24c0-2.267-1.733-4-4-4zM20.133 10.667h-1.467c-1.2 0-1.467 0.533-1.467 1.333v1.867h2.8l-0.4 2.8h-2.4v7.333h-2.933v-7.333h-2.4v-2.8h2.4v-2.133c0-2.4 1.467-3.733 3.733-3.733 1.067 0 2 0.133 2.133 0.133v2.533z"></path>
</symbol>
<symbol id="icon-google-plus" viewBox="0 0 33 32">
<title>Google Plus</title>
<path d="M28.444 0h-24c-2.267 0-4 1.733-4 4v24c0 2.267 1.733 4 4 4h24c2.267 0 4-1.733 4-4v-24c0-2.267-1.733-4-4-4zM13.378 23.333c-4.133 0-7.6-3.333-7.6-7.6 0-4.133 3.333-7.6 7.6-7.6 2 0 3.733 0.8 5.067 2l-2 2c-0.533-0.533-1.6-1.2-3.067-1.2-2.533 0-4.667 2.133-4.667 4.8s2.133 4.8 4.667 4.8c2.933 0 4-2 4.267-3.2h-3.867v-2.667h6.667c0.8 4.267-1.867 8.667-7.067 8.667zM27.111 16h-1.333v1.333h-1.333v-1.333h-1.333v-1.333h1.333v-1.333h1.333v1.333h1.333v1.333z"></path>
</symbol>
<symbol id="icon-instagram" viewBox="0 0 33 32">
<title>Instagram</title>
<path d="M19.556 16c0 1.473-1.194 2.667-2.667 2.667s-2.667-1.194-2.667-2.667c0-1.473 1.194-2.667 2.667-2.667s2.667 1.194 2.667 2.667z"></path>
<path d="M22.528 10.361c-0.651-0.651-1.495-0.832-2.405-0.873-0.844-0.039-1.097-0.047-3.233-0.047s-2.389 0.008-3.232 0.047c-0.911 0.041-1.756 0.224-2.407 0.873s-0.832 1.496-0.873 2.407c-0.039 0.843-0.047 1.096-0.047 3.232s0.008 2.389 0.047 3.232c0.041 0.911 0.224 1.755 0.873 2.405s1.495 0.832 2.405 0.873c0.844 0.039 1.096 0.047 3.232 0.047s2.389-0.008 3.232-0.047c0.911-0.041 1.755-0.224 2.405-0.873s0.832-1.495 0.873-2.405c0.039-0.844 0.047-1.096 0.047-3.232s-0.008-2.389-0.047-3.233c-0.039-0.909-0.221-1.755-0.871-2.405zM16.889 20.108c-2.269 0-4.108-1.839-4.108-4.108s1.839-4.108 4.108-4.108c2.269 0 4.108 1.839 4.108 4.108s-1.839 4.108-4.108 4.108zM21.16 12.689c-0.531 0-0.96-0.429-0.96-0.96s0.429-0.96 0.96-0.96c0.531 0 0.96 0.429 0.96 0.96s-0.431 0.96-0.96 0.96z"></path>
<path d="M28.889 0h-24c-2.209 0-4 1.791-4 4v24c0 2.209 1.791 4 4 4h24c2.209 0 4-1.791 4-4v-24c0-2.209-1.791-4-4-4zM24.841 19.299c-0.060 1.3-0.379 2.443-1.295 3.359-0.917 0.917-2.059 1.235-3.359 1.295-0.853 0.039-1.125 0.048-3.299 0.048s-2.445-0.009-3.299-0.048c-1.3-0.059-2.443-0.379-3.359-1.295-0.917-0.917-1.235-2.059-1.295-3.359-0.039-0.853-0.048-1.125-0.048-3.299s0.009-2.445 0.048-3.299c0.060-1.3 0.379-2.443 1.295-3.359 0.917-0.917 2.059-1.235 3.359-1.295 0.853-0.039 1.125-0.048 3.299-0.048s2.445 0.009 3.299 0.048c1.3 0.059 2.443 0.379 3.359 1.295 0.917 0.917 1.235 2.059 1.295 3.359 0.039 0.853 0.048 1.125 0.048 3.299s-0.009 2.445-0.048 3.299z"></path>
</symbol>
<symbol id="icon-linkedin" viewBox="0 0 33 32">
<title>LinkedIn</title>
<path d="M28.889 0h-24c-2.267 0-4 1.733-4 4v24c0 2.267 1.733 4 4 4h24c2.267 0 4-1.733 4-4v-24c0-2.267-1.733-4-4-4zM12.489 24h-3.333v-10.667h3.333v10.667zM10.756 11.867c-1.067 0-1.867-0.933-1.867-1.867 0-1.067 0.8-2 1.867-2s1.867 0.8 1.867 1.867c0.133 1.067-0.8 2-1.867 2zM24.889 24h-3.333v-5.2c0-1.2 0-2.8-1.733-2.8s-2 1.333-2 2.8v5.333h-3.333v-10.667h3.2v1.467c0.4-0.8 1.467-1.733 3.2-1.733 3.333 0 4 2.267 4 5.067v5.733z"></path>
</symbol>
<symbol id="icon-spotify" viewBox="0 0 32 32">
<title>spotify</title>
<path d="M20.533 16.533c-2.533-1.467-6.133-2-9.067-1.067-0.267 0.133-0.533 0.4-0.4 0.8s0.4 0.533 0.8 0.4c2.533-0.8 5.733-0.4 8 0.933 0.267 0.267 0.667 0.133 0.8-0.267 0.133-0.267 0-0.667-0.133-0.8z"></path>
<path d="M19.467 18.933c-2.133-1.333-4.667-1.6-7.733-0.933-0.267 0.133-0.4 0.267-0.4 0.667 0.133 0.267 0.267 0.4 0.533 0.4 2.8-0.667 5.2-0.4 7.067 0.8 0.267 0.133 0.533 0.133 0.667-0.133 0.133-0.4 0.133-0.8-0.133-0.8z"></path>
<path d="M10.933 12.8c-0.267 0.133-0.533 0.533-0.4 0.933s0.533 0.667 0.933 0.533c2.4-0.8 6.667-0.533 9.333 0.933 0.4 0.267 0.8 0.133 1.067-0.133 0.133-0.4 0.133-0.8-0.267-1.067-3.067-1.867-7.733-2-10.667-1.2z"></path>
<path d="M28 0h-24c-2.267 0-4 1.733-4 4v24c0 2.267 1.733 4 4 4h24c2.267 0 4-1.733 4-4v-24c0-2.267-1.733-4-4-4zM16 24c-4.4 0-8-3.6-8-8s3.6-8 8-8c4.4 0 8 3.6 8 8s-3.6 8-8 8z"></path>
</symbol>
<symbol id="icon-twitter" viewBox="0 0 32 32">
<title>Twitter</title>
<path d="M28 0h-24c-2.267 0-4 1.733-4 4v24c0 2.267 1.733 4 4 4h24c2.267 0 4-1.733 4-4v-24c0-2.267-1.733-4-4-4zM22.4 12.8v0.4c0 4.4-3.333 9.333-9.333 9.333-1.867 0-3.6-0.533-5.067-1.467h0.8c1.6 0 2.933-0.533 4.133-1.467-1.467 0-2.667-0.933-3.067-2.267h0.667c0.267 0 0.533 0 0.8-0.133-1.467-0.267-2.667-1.6-2.667-3.2v0c0.4 0.267 0.933 0.4 1.467 0.4-0.933-0.533-1.467-1.6-1.467-2.667 0-0.667 0.133-1.2 0.4-1.6 1.6 2 4 3.333 6.8 3.467 0-0.267-0.133-0.533-0.133-0.8 0-1.867 1.467-3.333 3.333-3.333 0.933 0 1.733 0.4 2.4 1.067 0.8-0.133 1.467-0.4 2.133-0.8-0.267 0.8-0.8 1.467-1.467 1.867 0.667-0.133 1.333-0.267 1.867-0.533-0.4 0.667-0.933 1.2-1.6 1.733z"></path>
</symbol>
<symbol id="icon-youtube" viewBox="0 0 33 32">
<title>YouTube</title>
<path d="M28.444 0h-24c-2.267 0-4 1.733-4 4v24c0 2.267 1.733 4 4 4h24c2.267 0 4-1.733 4-4v-24c0-2.267-1.733-4-4-4zM24.444 16.667c0 1.333-0.133 2.533-0.133 2.533s-0.133 1.067-0.667 1.6c-0.667 0.667-1.333 0.667-1.6 0.667-2.267 0.133-5.6 0.133-5.6 0.133s-4.133 0-5.467-0.133c-0.4-0.133-1.2 0-1.733-0.667-0.533-0.533-0.667-1.6-0.667-1.6s-0.133-1.333-0.133-2.533v-1.2c0-1.333 0.133-2.533 0.133-2.533s0.133-1.067 0.667-1.6c0.667-0.667 1.333-0.667 1.6-0.667 2.267-0.267 5.6-0.267 5.6-0.267v0c0 0 3.333 0 5.6 0.133 0.267 0 0.933 0 1.6 0.667 0.533 0.533 0.667 1.6 0.667 1.6s0.133 1.333 0.133 2.533v1.333z"></path>
<path d="M14.844 18.133l4.267-2.267-4.267-2.267z"></path>
</symbol>
<symbol id="icon-twitter-bird" viewBox="0 0 39 32">
<title>Twitter Bird</title>
<path d="M38.824 3.721c-1.456 0.647-2.912 1.132-4.529 1.294 1.618-0.971 2.912-2.588 3.559-4.368-1.618 0.971-3.235 1.618-5.015 1.941-1.456-1.618-3.559-2.588-5.824-2.588-4.368 0-7.927 3.559-7.927 7.927 0 0.647 0 1.294 0.162 1.779-6.794-0.324-12.618-3.559-16.5-8.412-0.809 1.294-1.132 2.588-1.132 4.044 0 2.75 1.456 5.176 3.559 6.632-1.294 0-2.588-0.324-3.559-0.971 0 0 0 0 0 0.162 0 3.882 2.75 7.118 6.309 7.765-0.647 0.162-1.294 0.324-2.103 0.324-0.485 0-0.971 0-1.456-0.162 0.971 3.235 3.882 5.5 7.441 5.5-2.75 2.103-6.147 3.397-9.868 3.397-0.647 0-1.294 0-1.941-0.162 3.559 2.265 7.765 3.559 12.132 3.559 14.721 0 22.647-12.132 22.647-22.647v-0.971c1.618-1.132 2.912-2.588 4.044-4.044z"></path>
</symbol>
</defs>
</svg>
